<?xml version="1.0" encoding="utf-8"?>
<!-- Generator: Adobe Illustrator 15.1.0, SVG Export Plug-In  -->
<!DOCTYPE svg PUBLIC "-//W3C//DTD SVG 1.1//EN" "http://www.w3.org/Graphics/SVG/1.1/DTD/svg11.dtd" [
	<!ENTITY ns_flows "http://ns.adobe.com/Flows/1.0/">
]>
<svg version="1.1"
	 xmlns="http://www.w3.org/2000/svg" xmlns:xlink="http://www.w3.org/1999/xlink" xmlns:a="http://ns.adobe.com/AdobeSVGViewerExtensions/3.0/"
	 x="0px" y="0px" width="599px" height="157px" viewBox="-3 9.946 599 157" enable-background="new -3 9.946 599 157"
	 xml:space="preserve">
<defs>
</defs>
<polygon fill="#E23C5E" points="444.806,139.333 572.792,163.946 558.631,126.608 585.227,96.821 457.242,72.208 "/>
<polygon fill="#A83354" points="526.066,144.645 444.795,140.174 452.25,98.729 "/>
<polygon fill="#E23C5E" points="139.957,140.083 11.715,163.321 26.273,126.141 0,96.067 128.242,72.827 "/>
<polygon fill="#A83354" points="58.928,144.643 140.199,140.172 132.741,98.725 "/>
<path fill="#E83F67" d="M59.848,146.399c154.448-59.092,311.236-59.092,465.682,0V61.065c-154.446-59.093-311.234-59.093-465.682,0
	C59.848,89.51,59.85,117.954,59.848,146.399"/>
<path fill="none" d="M55.659,129.653c154.448-59.092,311.236-59.092,465.682,0V44.319c-154.446-59.092-311.234-59.092-465.682,0
	C55.659,72.764,55.661,101.208,55.659,129.653"/>
<text transform="matrix(0.9929 -0.1191 0.1191 0.9929 192.938 92.3765)"><tspan x="0" y="0" fill="#FFFFFF" font-family="'cwTeXYen'" font-size="48">好</tspan><tspan x="43.648" y="-0.022" fill="#FFFFFF" font-family="'cwTeXYen'" font-size="48" rotate="4.027">禮</tspan><tspan x="87.197" y="3.025" fill="#FFFFFF" font-family="'cwTeXYen'" font-size="48" rotate="8.091">大</tspan><tspan x="130.395" y="9.149" fill="#FFFFFF" font-family="'cwTeXYen'" font-size="48" rotate="12.136">方</tspan><tspan x="173.076" y="18.317" fill="#FFFFFF" font-family="'cwTeXYen'" font-size="48" rotate="16.118">送</tspan></text>
<path d="M187.564,137.167c1.167,0,3.24-0.111,6.216-0.336h0.048h0.24v-0.432l-1.176-2.352l1.416-0.553
	c1.488,3.072,2.384,5.041,2.688,5.904l-1.416,0.504c-0.176-0.271-0.4-0.855-0.672-1.752l-4.152,0.336l-0.024,3.672l4.872,0.049
	v1.488h-4.848l-0.024,4.607c0.208,0,0.344,0,0.408,0c0.48,0,1.244-0.092,2.292-0.275s1.956-0.381,2.724-0.588l0.336,1.463
	c-1.872,0.561-5.64,1.113-11.304,1.656l-1.512,0.145c-0.096-0.625-0.184-1.121-0.264-1.488l5.712-0.576l0.024-4.896l-4.944-0.047
	v-1.488h4.92l0.024-3.625l-5.256,0.361l-0.456-1.488l1.632-0.096c0.928-1.553,1.824-3.271,2.688-5.16l0.168-0.336h-4.2v-1.537
	h12.528v1.537h-6.6l-1.68,3.623l-0.672,1.152l-0.384,0.527h0.456C187.42,137.167,187.483,137.167,187.564,137.167z M192.892,134.047
	l-0.048-0.096l-0.048-0.121l-0.12,0.313L192.892,134.047z M200.068,145.784h-1.584v-14.76h1.584V145.784z M204.484,129.631
	l-0.048,19.824c0,0.4-0.272,0.799-0.816,1.199l-0.552,0.289c-0.16,0.063-0.384,0.096-0.672,0.096c-0.72,0-1.744-0.184-3.072-0.553
	l0.072-1.559l1.608,0.479c0.224,0.033,0.432,0.049,0.624,0.049c0.336,0,0.664-0.064,0.984-0.191l0.288-0.434l0.072-19.199H204.484z"
	/>
<path d="M209.764,149.383c0.352-0.24,0.528-0.537,0.528-0.889v-5.16h-0.48l-1.56,0.816c-0.4-0.496-0.712-0.902-0.936-1.223
	l2.952-1.465l0.024-6.119l-2.784-0.025v-1.535h2.76l0.024-4.248h1.536v4.225l2.64,0.023v1.535h-2.616l-0.024,4.992h0.48l1.656-1.248
	l1.032,1.152c-1.072,0.752-2.128,1.432-3.168,2.041l-0.024,7.176c0,0.494-0.256,0.891-0.768,1.188
	c-0.512,0.295-1.008,0.443-1.488,0.443c-0.128,0-0.356-0.027-0.684-0.084c-0.328-0.057-0.656-0.115-0.984-0.18
	c-0.328-0.064-0.508-0.104-0.54-0.119v-1.584c0.88,0.191,1.664,0.287,2.352,0.287H209.764z M228.196,150.823h-1.416v-0.959
	l-9.12-0.072l-0.024,1.031h-1.44v-10.607l0.048-0.049H228.1l0.096,0.098V150.823z M217.876,137.815
	c-0.288,0-0.612-0.195-0.972-0.588c-0.36-0.391-0.54-0.707-0.54-0.947v-6.672h1.464v2.615l0.288-0.047
	c2.912-0.529,5.864-1.328,8.856-2.4l0.432,1.416c-2.816,1.088-5.984,1.959-9.504,2.615c-0.032,0.305-0.048,0.537-0.048,0.695
	c0,0.881,0.279,1.441,0.84,1.682l0.48,0.143l7.176-0.023c0.496-0.16,0.744-0.871,0.744-2.137c0-0.127-0.008-0.271-0.024-0.432
	l1.536,0.217c-0.048,1.488-0.184,2.553-0.408,3.191c-0.256,0.273-0.568,0.496-0.936,0.672H217.876z M217.636,150.823v0.217v0.023
	l0.24-0.24H217.636z M217.66,144.344h9.048v-2.4l-0.336-0.289h-8.424l-0.288,0.24V144.344z M217.66,148.327h9.048v-2.471h-9.048
	V148.327z"/>
<path d="M236.788,140.264c-0.288,1.76-0.504,2.887-0.648,3.383c0.368,0.832,0.796,1.572,1.284,2.221
	c0.488,0.648,0.972,1.156,1.452,1.523c0.48,0.369,0.884,0.645,1.212,0.828c0.328,0.184,0.636,0.324,0.924,0.42l0.312,0.096
	l0.048-10.848l-6.576-0.072v-1.488h14.112v1.488h-5.952l-0.048,4.465l8.208,0.023v1.512h-8.16l-0.048,5.041l0.216,0.215
	c1.568,0.129,3.624,0.193,6.168,0.193c1.056,0,2.208-0.018,3.456-0.049l-0.456,1.561l-6.528-0.025h-0.336
	c-4.512,0-7.712-1.559-9.6-4.68l-0.24-0.383l-0.192,0.408c-0.912,1.967-1.928,3.623-3.048,4.967l-1.272-0.887
	c1.216-1.506,2.164-3.053,2.844-4.645c0.68-1.592,1.107-3.389,1.284-5.389L236.788,140.264z M252.82,132.487
	c-0.128,1.121-0.504,2.682-1.128,4.68l-1.464-0.551c0.399-1.553,0.616-2.432,0.648-2.641l0.096-0.455l-0.336-0.336h-17.232
	l-0.312,0.311v3.289h-1.56l0.024-5.088l0.072-0.049h9.528l0.048-1.967h1.632v1.92l8.472,0.119L252.82,132.487z"/>
<path d="M266.644,131.024c0,2.016,0.228,3.924,0.684,5.723c0.456,1.801,1.124,3.48,2.004,5.041c0.879,1.561,1.912,3.008,3.096,4.344
	s2.568,2.652,4.152,3.947l-1.368,1.01c-4.784-4.129-7.816-8.449-9.096-12.961l-0.24-0.816l-0.24,0.816
	c-1.424,5.248-3.896,9.119-7.416,11.615l-1.8,1.297l-1.176-1.129c6.448-3.68,9.696-10.432,9.744-20.256h1.68
	C266.652,130.12,266.644,130.575,266.644,131.024z"/>
<path d="M291.412,139.016c0,0.031,0,0.072,0,0.119v0.191l-0.048-0.023l-0.048,3.744h-4.872l-1.056,1.512l7.08,0.072v1.152h-2.616
	c-0.8,1.184-1.656,2.168-2.568,2.951l-0.288,0.264l0.384,0.145c0.512,0.209,1.432,0.52,2.76,0.936l-0.888,1.201l-3.864-1.32
	c-1.888,0.768-3.896,1.207-6.024,1.32l-0.384-1.439c1.584-0.113,2.784-0.232,3.6-0.361l0.936-0.168l-2.76-0.936
	c-0.032-0.176-0.096-0.504-0.192-0.984l1.44-1.225v-0.383h-3.096v-1.152h4.68c0.4-0.463,0.696-0.863,0.888-1.199l0.192-0.361
	l-4.68-0.047v-4.008h4.896l0.12-1.416l-4.656-0.049v-2.928l-1.44-0.049v-1.127h1.392l0.096-3h4.488l0.072-0.961h1.464v0.912
	l4.536,0.096v2.904l1.464,0.049v1.127h-1.44l-0.072,3h-4.416l-0.096,1.369L291.412,139.016z M279.988,139.016v-0.025l-0.048,0.025
	H279.988z M279.988,143.024h-0.024l0.024,0.047V143.024z M280.348,137.551h-0.192l0.216,0.168l-0.024-0.119V137.551z
	 M280.396,130.448v-0.072l-0.048,0.072H280.396z M281.404,141.944h3.504v-1.873h-3.552L281.404,141.944z M281.812,133.399h3.096
	v-1.775h-3.096V133.399z M281.836,136.399h3.072v-1.775h-3.096L281.836,136.399z M285.268,148.471
	c0.879-0.447,1.784-1.215,2.712-2.305l0.336-0.383h-3.912l-1.656,1.488v0.359L285.268,148.471z M286.468,133.399h3l-0.048-1.775
	h-2.952V133.399z M286.468,136.399l3-0.047v-1.729h-3V136.399z M286.468,141.944l3.504-0.025l-0.024-1.848h-3.48V141.944z
	 M290.908,137.575v0.049l0.048-0.049H290.908z M290.956,130.495h0.024l-0.024-0.023V130.495z M297.268,145.28
	c1.12,1.951,2.305,3.68,3.553,5.184l-1.345,0.793c-1.056-1.393-1.728-2.301-2.016-2.725s-0.536-0.836-0.744-1.236
	c-0.048-0.08-0.08-0.145-0.097-0.191l-0.191-0.336l-0.216,0.311c-1.089,1.553-2.384,2.889-3.888,4.01l-1.176-1.08
	c1.92-1.248,3.432-2.865,4.536-4.85c-0.928-2.207-1.535-4.096-1.824-5.664l-0.119-0.672l-0.504,0.938l-1.44-0.336
	c1.472-3.217,2.231-6.416,2.28-9.602h1.392l-0.216,2.736l5.568,0.023v1.416h-1.248v0.24
	C299.572,138.063,298.804,141.743,297.268,145.28z M291.316,143.047v0.023l0.024-0.023H291.316z M291.412,139.016h0.096l-0.12-0.049
	C291.404,138.983,291.412,139,291.412,139.016z M291.796,139.424l-0.384-0.098v0.912L291.796,139.424z M295.107,134.047
	c-0.16,0.832-0.24,1.625-0.24,2.377c0,1.982,0.465,4.184,1.393,6.6l0.216,0.6l0.216-0.625c0.912-2.592,1.369-5.496,1.369-8.711
	v-0.24H295.107z"/>
<path d="M314.355,150.344l-1.439,0.432l-0.456-1.369c-0.081-0.24-0.192-0.488-0.336-0.744l-8.185,1.92l-0.527-1.512
	c0.207-0.064,0.56-0.127,1.056-0.191l0.072-18.791c0.063-0.08,0.12-0.121,0.168-0.121l8.952,0.023
	c0.031,0.018,0.072,0.072,0.119,0.168l-0.023,11.113l-0.12,0.143l-7.536,0.025l-0.023,6.959l0.287-0.047
	c2.385-0.512,4.033-0.889,4.944-1.129l0.265-0.264l-1.225-2.832l1.465-0.527C312.932,146.239,313.779,148.487,314.355,150.344z
	 M306.58,131.479c-0.176,0.129-0.293,0.225-0.348,0.289c-0.057,0.063-0.101,0.16-0.133,0.287v2.855h6.145l-0.024-3.023l-0.36-0.359
	L306.58,131.479z M311.691,139.879c0.272,0,0.457-0.127,0.553-0.385v-3H306.1v3.385H311.691z M321.855,149.432
	c-0.632,0-1.38-0.088-2.244-0.266h-0.023c-0.016,0-0.064-0.008-0.145-0.023l-0.047-1.703c0.943,0.256,1.671,0.383,2.184,0.383
	c0.224,0,0.432-0.023,0.623-0.072c0.496-0.398,0.744-0.734,0.744-1.008v-14.975l-0.215-0.313h-4.849l-0.288,0.287v19.105h-1.535
	l0.023-20.832c0.031-0.033,0.056-0.049,0.072-0.049l8.256,0.023l0.048,0.049v17.783c0,0.336-0.232,0.705-0.696,1.105l-0.336,0.238
	C323.012,149.344,322.488,149.432,321.855,149.432z"/>
<path d="M330.771,135.415c0-0.463-0.023-0.982-0.072-1.559h-3.119v-1.512h3.144l0.048-2.568h1.536v2.543l5.376,0.049
	c0.176,0.191,0.264,0.504,0.264,0.936c0,0.033,0,0.064,0,0.096v7.176c0,6.496-0.887,9.92-2.664,10.273
	c-0.239,0.047-0.535,0.07-0.887,0.07c-0.496,0-1.045-0.051-1.645-0.154c-0.6-0.105-1.028-0.189-1.284-0.252l-0.144-1.92l1.728,0.479
	c0.288,0.049,0.56,0.072,0.815,0.072c0.336,0,0.656-0.047,0.961-0.145c0.816-0.703,1.279-2.07,1.392-4.104l0.144-8.783l0.024-1.32
	c-0.08-0.416-0.239-0.729-0.479-0.936h-3.576c-0.016,0.24-0.072,0.887-0.168,1.943s-0.152,1.713-0.168,1.969
	c-0.017,0.256-0.068,0.836-0.156,1.74c-0.088,0.902-0.156,1.504-0.204,1.799c-0.048,0.297-0.128,0.824-0.239,1.584
	c-0.113,0.76-0.217,1.32-0.313,1.68c-0.096,0.361-0.217,0.857-0.36,1.488c-0.144,0.633-0.296,1.16-0.456,1.584
	s-0.344,0.9-0.552,1.428c-0.208,0.529-0.433,1.033-0.672,1.512l-1.704-0.311c1.136-2.512,1.992-5.141,2.568-7.885
	S330.771,137.319,330.771,135.415z M348.604,150.944h-1.56v-1.008l-5.04-0.049l-0.072,1.057h-1.535v-19.873l0.023-0.023h8.04
	c0.079,0.049,0.128,0.088,0.144,0.119V150.944z M341.98,148.327h5.016v-15.479l-0.313-0.266h-4.367l-0.336,0.193V148.327z"/>
<path d="M354.004,147.272c-0.385,1.535-0.912,2.807-1.584,3.816c-0.448-0.369-0.809-0.625-1.08-0.77
	c0.656-1.199,1.08-2.318,1.271-3.359L354.004,147.272z M357.867,145.592l-0.023,0.023h-6.023l-0.024-0.023v-15.098l0.024-0.023
	l6.047,0.049V145.592z M353.188,135.127h3.313l-0.072-3.287h-3.24V135.127z M353.188,139.616h3.313v-3.121h-3.313V139.616z
	 M353.26,144.247l3.24-0.023v-3.24h-3.313L353.26,144.247z M358.54,150.295l-1.32,0.359c-0.464-1.375-0.888-2.471-1.272-3.287
	c0.256-0.129,0.672-0.279,1.248-0.457C357.74,148,358.188,149.127,358.54,150.295z M357.867,130.52h0.049l-0.049-0.049V130.52z
	 M367.779,132.079c0.48-0.559,1.024-1.367,1.633-2.424l1.224,0.793c-0.112,0.207-0.228,0.412-0.349,0.611
	c-0.119,0.201-0.207,0.348-0.264,0.443c-0.056,0.098-0.092,0.186-0.107,0.266l-0.12,0.311l2.808,0.049v8.184l-0.048,0.023h-13.008
	v-8.23l0.024-0.025h3.264l-0.984-1.416c0.16-0.127,0.368-0.275,0.624-0.443s0.44-0.291,0.552-0.371
	c0.4,0.463,0.904,1.207,1.513,2.23H367.779z M360.939,139.04h4.393v-5.664h-4.416L360.939,139.04z M371.813,151.256h-1.393v-0.938
	h-8.137v0.938h-1.344v-9.289h10.752l0.121,0.096V151.256z M362.813,137.719c-0.209-1.008-0.449-1.969-0.721-2.879l1.271-0.289
	c0.353,1.152,0.601,2.145,0.744,2.977L362.813,137.719z M362.332,145.592h8.064V143.6l-0.265-0.266h-7.464l-0.336,0.193V145.592z
	 M362.332,148.928h8.064v-1.992h-8.064V148.928z M366.867,139.04h4.32l-0.023-5.664h-4.297V139.04z M367.924,137.288
	c-0.08-0.031-0.145-0.057-0.191-0.072l0.168,0.24v-0.096L367.924,137.288z M369.148,137.815c-0.192-0.063-0.601-0.24-1.225-0.527
	l1.057-2.904l1.223,0.504C369.884,135.944,369.531,136.92,369.148,137.815z M372.604,132.127h0.024l-0.024-0.023V132.127z"/>
<path d="M384.027,133.231c-0.047,1.76-0.16,3.344-0.336,4.752s-0.416,2.609-0.72,3.6c-0.304,0.992-0.563,1.752-0.78,2.281
	c-0.216,0.527-0.492,1.111-0.828,1.752l2.761,1.943l-0.72,1.344l-2.881-1.967c-1.232,1.615-2.648,3-4.248,4.152
	c-0.4-0.385-0.791-0.816-1.176-1.297c1.84-1.248,3.16-2.4,3.961-3.457l0.143-0.191l-3.768-2.615
	c-0.096-0.096-0.144-0.289-0.144-0.576c0-0.271,0.192-0.824,0.575-1.656l0.072-0.168c0.448-1.328,0.961-3.4,1.536-6.217l0.048-0.287
	l-2.352-0.049v-1.512h2.641c0.271-1.328,0.479-2.455,0.623-3.383l1.536,0.264l-0.456,2.807v0.289l4.44,0.049L384.027,133.231z
	 M380.188,144.631c1.536-2.896,2.353-6.152,2.448-9.768v-0.24h-3.384c-0.32,1.68-0.752,3.4-1.296,5.16l-0.696,2.207
	c-0.064,0.24-0.12,0.473-0.168,0.697l2.76,1.943H380.188z M390.508,148.76c1.376-0.641,2.064-1.857,2.064-3.648
	c0-1.057-0.289-2.48-0.864-4.271l-6.552-0.025v-1.488h5.615v-0.455l-1.439-2.305c0.031-0.08,0.111-0.184,0.24-0.311l4.104-3.912
	c0.08-0.033,0.136-0.088,0.168-0.168l0.168-0.336l-8.472-0.049v-1.512h10.128l0.912,1.344l-4.608,4.416
	c-0.336,0.32-0.504,0.648-0.504,0.984c0,0.143,0.056,0.309,0.168,0.492s0.376,0.555,0.792,1.115l0.408,0.695h3.984v1.488h-3.313
	l0.359,1.512c0.225,1.025,0.336,1.961,0.336,2.809c0,0.881-0.092,1.656-0.275,2.328s-0.412,1.195-0.684,1.572
	c-0.272,0.375-0.597,0.684-0.973,0.924s-0.731,0.396-1.068,0.469c-0.336,0.07-0.688,0.107-1.055,0.107
	c-1.121,0-2.408-0.4-3.865-1.201l0.361-1.68c1.167,0.736,2.439,1.105,3.815,1.105H390.508z M389.332,136.567l-0.024-0.047v0.072
	L389.332,136.567z"/>
<path d="M400.947,138.512c-0.16,4.063-0.352,6.904-0.575,8.52l-0.072,0.504l-1.272-0.191c0.385-3.008,0.576-5.602,0.576-7.777
	c0-0.383-0.008-0.752-0.023-1.104v-0.072L400.947,138.512z M406.42,135.799h-2.76l-0.072,15.385h-1.32v-15.361l-3.072-0.023v-1.32
	h7.225V135.799z M405.699,131.672h-5.735v-1.32h5.735V131.672z M406.54,146.12l-1.128,0.047l-0.408-7.752
	c0.271-0.031,0.648-0.07,1.128-0.119L406.54,146.12z M420.844,150.848h-13.439v-1.225h3.672l-0.049-0.289
	c-0.144-0.656-0.416-1.424-0.815-2.303l-1.92-0.072v-4.271h11.664v4.271l-1.824,0.072c-0.128,0.24-0.384,0.977-0.769,2.207
	l-0.071,0.313l3.552,0.121V150.848z M420.652,141.176h-12.961v-1.225h12.961V141.176z M407.764,130.879v-0.023l-0.023,0.023H407.764
	z M420.508,138.272l-0.023,0.023h-12.697l-0.023-0.023v-7.393h3.792l0.024-1.248h1.392v1.225l2.304,0.023l0.049-1.248h1.32v1.225
	l3.863,0.023V138.272z M408.292,142.688v-0.025l-0.024,0.025H408.292z M408.292,146.959h-0.024l0.024,0.023V146.959z
	 M409.107,133.928h2.448v-1.85h-2.448V133.928z M409.18,137.12h2.376v-2.064h-2.448L409.18,137.12z M409.684,145.807l8.832-0.023
	v-1.943h-8.832V145.807z M415.828,149.551l0.863-2.52h-4.943l0.863,2.52H415.828z M413.02,133.928h2.256v-1.85h-2.256V133.928z
	 M413.02,137.12h2.256v-2.064h-2.256V137.12z M416.668,133.928h2.472l-0.048-1.85h-2.424V133.928z M416.716,137.12l2.424-0.023
	v-2.041h-2.472L416.716,137.12z M419.956,142.688h0.024l-0.024-0.025V142.688z M419.956,146.959v0.023l0.024-0.023H419.956z"/>
</svg>
