<?xml version="1.0" encoding="utf-8"?>
<!-- Generator: Adobe Illustrator 15.1.0, SVG Export Plug-In  -->
<!DOCTYPE svg PUBLIC "-//W3C//DTD SVG 1.1//EN" "http://www.w3.org/Graphics/SVG/1.1/DTD/svg11.dtd" [
	<!ENTITY ns_flows "http://ns.adobe.com/Flows/1.0/">
]>
<svg version="1.1"
	 xmlns="http://www.w3.org/2000/svg" xmlns:xlink="http://www.w3.org/1999/xlink" xmlns:a="http://ns.adobe.com/AdobeSVGViewerExtensions/3.0/"
	 x="0px" y="0px" width="150px" height="199px" viewBox="-1.141 -5.658 150 199" enable-background="new -1.141 -5.658 150 199"
	 xml:space="preserve">
<defs>
</defs>
<g id="Forma_1_4_">
	<g>
		<path fill-rule="evenodd" clip-rule="evenodd" fill="#FFFFFF" d="M74.194,0C33.283,0,0,33.269,0,74.162
			c0,24.487,13.971,43.265,30.297,59.75l38.33,56.054c1.256,1.839,3.34,2.938,5.567,2.938s4.312-1.1,5.567-2.938l38.33-56.054
			c15.291-15.086,30.296-35.263,30.296-59.75C148.387,33.269,115.104,0,74.194,0z M82.66,125.154
			c-2.738,0.32-5.572,0.505-8.466,0.505c-2.895,0-5.726-0.185-8.467-0.505c-24.5-4.052-43.244-25.374-43.244-50.992
			c0-8.029,1.842-15.637,5.124-22.423c-3.141,6.606-4.903,13.993-4.903,21.793c0,28.078,22.769,50.838,50.86,50.838
			c28.088,0,50.859-22.76,50.859-50.838c0-28.076-22.771-50.838-50.859-50.838c-7.808,0-15.202,1.764-21.813,4.906
			c6.791-3.284,14.405-5.127,22.441-5.127c28.514,0,51.711,23.188,51.711,51.689C125.904,99.78,107.161,121.103,82.66,125.154z"/>
	</g>
</g>
<g id="Forma_1_3_">
	<g>
		<path fill-rule="evenodd" clip-rule="evenodd" fill="#E23C5E" d="M74.077,7.903c-35.821,0-64.963,29.13-64.963,64.935
			c0,21.441,12.232,37.882,26.527,52.316l33.561,49.08c1.1,1.61,2.925,2.572,4.875,2.572s3.775-0.962,4.875-2.572l33.561-49.08
			c13.39-13.209,26.527-30.875,26.527-52.316C139.04,37.033,109.897,7.903,74.077,7.903z M81.49,117.486
			c-2.398,0.281-4.879,0.442-7.413,0.442s-5.014-0.162-7.413-0.442c-21.452-3.547-37.864-22.217-37.864-44.648
			c0-24.955,20.311-45.258,45.276-45.258c24.967,0,45.277,20.303,45.277,45.258C119.353,95.27,102.942,113.939,81.49,117.486z
			 M74.077,49.226c-13.047,0-23.623,10.572-23.623,23.613c0,13.042,10.576,23.613,23.623,23.613S97.7,85.88,97.7,72.838
			C97.7,59.798,87.124,49.226,74.077,49.226z"/>
	</g>
</g>
</svg>
