<?xml version="1.0" encoding="utf-8"?>
<!-- Generator: Adobe Illustrator 15.1.0, SVG Export Plug-In  -->
<!DOCTYPE svg PUBLIC "-//W3C//DTD SVG 1.1//EN" "http://www.w3.org/Graphics/SVG/1.1/DTD/svg11.dtd" [
	<!ENTITY ns_flows "http://ns.adobe.com/Flows/1.0/">
]>
<svg version="1.1"
	 xmlns="http://www.w3.org/2000/svg" xmlns:xlink="http://www.w3.org/1999/xlink" xmlns:a="http://ns.adobe.com/AdobeSVGViewerExtensions/3.0/"
	 x="0px" y="0px" width="355px" height="99px" viewBox="-2.957 -3.021 355 99" enable-background="new -2.957 -3.021 355 99"
	 xml:space="preserve">
<defs>
</defs>
<polygon fill="#DDBA28" points="83.979,16.375 8.306,0 16.203,22.369 0,39.695 75.672,56.069 "/>
<polygon fill="#99821F" points="35.917,13.73 84.196,16.385 79.767,41.007 "/>
<polygon fill="#DDBA28" points="264.376,16.376 340.049,0.001 332.152,22.371 348.355,39.697 272.684,56.072 "/>
<polygon fill="#99821F" points="312.438,13.732 264.159,16.386 268.587,41.009 "/>
<path fill="#FFDC27" d="M312.383,13.672c-91.747,35.104-184.891,35.104-276.639,0v50.693c91.749,35.104,184.892,35.104,276.639,0
	C312.383,47.466,312.383,30.57,312.383,13.672"/>
<path fill="#FFFFFF" d="M172.551,54.386c0.009,0.385-0.058,0.687-0.198,0.901l-0.308,0.318l-0.249,0.129l-6.24-0.184
	c-1.684,6.663-5.454,12.575-11.311,17.736c3.2,2.758,6.857,5.109,10.971,7.057l4.873,2.121c0.438,0.187,0.643,0.52,0.613,0.998
	c-0.048,0.798-0.504,1.188-1.368,1.168c-0.128-0.008-0.271-0.033-0.429-0.074c-0.222-0.045-0.956-0.362-2.203-0.95
	c-5.622-2.454-10.345-5.479-14.167-9.076c-3.725,2.757-8.904,5.186-15.538,7.286c-0.719,0.213-1.502,0.454-2.352,0.724
	c-0.895-0.054-1.352-0.45-1.371-1.188c-0.022-0.162-0.027-0.338-0.016-0.529l0.658-0.538c5.487-1.688,9.252-3.001,11.297-3.936
	c2.174-0.958,4.099-2.061,5.778-3.307c-4.7-5.54-7.638-11.84-8.815-18.9l-6.409-0.578c-0.584-0.42-0.679-0.971-0.285-1.652
	c0.145-0.279,0.313-0.414,0.505-0.402l16.677,0.957l0.415-4.495c0.011-0.191,0.245-0.354,0.703-0.486
	c0.451-0.037,0.813,0.081,1.084,0.354l0.313,0.403l-0.209,4.268l17.001,1.169C172.224,53.693,172.418,53.929,172.551,54.386z
	 M163.16,55.407l-18.686-1.126c1.219,6.902,3.945,12.725,8.18,17.468C157.731,67.823,161.233,62.376,163.16,55.407z"/>
<path fill="#FFFFFF" d="M191.531,75.919c-1.356,1.278-3.493,2.657-6.408,4.136c-2.047,1.036-3.566,1.588-4.556,1.654
	c-0.332-0.17-0.525-0.67-0.582-1.5c0.228-0.433,1.791-1.275,4.689-2.529l-0.723-11.449l-4.468,0.108
	c-0.096,0.007-0.192-0.003-0.29-0.028c-0.271-0.206-0.426-0.612-0.467-1.22c0.042-0.323,0.267-0.563,0.673-0.719l4.355-0.342
	l-0.685-10.874l-4.316,0.194c-0.162-0.021-0.4-0.229-0.716-0.625c-0.036-0.543,0.016-0.947,0.159-1.214l0.555-0.326l10.444-0.655
	c0.632,0.343,0.81,0.844,0.534,1.504l-0.44,0.607l-3.876,0.309l0.633,10.83l4.032-0.127c0.63,0.311,0.822,0.778,0.576,1.404
	l-0.396,0.556l-0.09,0.103l-3.876,0.309l0.598,10.304l0.239-0.017l2.952-1.883c0.155-0.074,0.281-0.114,0.377-0.121
	c0.543-0.036,0.898,0.244,1.067,0.842C191.611,75.433,191.612,75.69,191.531,75.919z M216.785,71.574
	c-0.157,0.523-0.312,0.855-0.463,0.993c-0.092,0.07-0.229,0.176-0.411,0.316l-24.192,1.532c-0.543,0.037-0.765-0.397-0.665-1.302
	c0.023-0.13,0.063-0.261,0.118-0.394l0.408-0.364l4.355-0.341l-1.175-18.154l-3.745,0.108c-0.258-0.015-0.5-0.047-0.728-0.096
	c-0.211-0.274-0.317-0.652-0.317-1.134c-0.006-0.096-0.012-0.175-0.016-0.239c0.297-0.34,0.477-0.528,0.539-0.565l4.067-0.321
	l-0.085-3.41c0.083-0.198,0.357-0.409,0.823-0.633l0.53,0.012c0.755,0.271,1.145,1.287,1.167,3.049
	c-0.004,0.418-0.002,0.69,0.007,0.817l11.494-0.773l-0.091-2.784c0.063-0.485,0.28-0.837,0.65-1.055
	c0.479-0.032,0.898,0.021,1.262,0.156l0.373,0.552l0.2,2.97c2.012-0.136,3.229-0.153,3.652-0.054
	c0.13,0.023,0.244,0.048,0.342,0.073c0.313,0.363,0.373,0.776,0.18,1.238c-0.11,0.265-0.288,0.485-0.532,0.661l-3.397,0.277
	l1.123,18.109l3.793-0.111C216.415,70.845,216.659,71.133,216.785,71.574z M193.2,83.553c-0.831,0.056-1.329-0.199-1.495-0.766
	c-0.009-0.128-0.021-0.304-0.035-0.526c0.114-0.2,0.201-0.335,0.262-0.403c0.181-0.172,1.156-0.927,2.926-2.266
	c0.184-0.14,0.335-0.263,0.457-0.367l3.341-3.256l0.045-0.051c0.331-0.312,0.733-0.29,1.206,0.063
	c0.707,0.498,0.64,1.16-0.202,1.986C197.423,80.302,195.255,82.164,193.2,83.553z M208.949,57.379l-0.3-4.453l-11.446,0.771
	l0.301,4.454L208.949,57.379z M209.42,64.372l-0.315-4.693l-11.446,0.771l0.316,4.693L209.42,64.372z M209.865,70.981l-0.29-4.311
	l-11.446,0.771l0.29,4.311L209.865,70.981z M216.296,80.748c-0.204,0.783-0.703,1.233-1.497,1.352
	c-0.368-0.232-1.187-0.947-2.453-2.145c-0.238-0.208-0.443-0.387-0.613-0.536c-0.743-0.559-1.583-1.111-2.518-1.658l-1.152-0.692
	c-0.235-0.145-0.376-0.584-0.426-1.318c0.387-0.442,0.628-0.668,0.725-0.674c0.949-0.192,2.939,1.037,5.973,3.687
	C215.29,79.628,215.944,80.29,216.296,80.748z"/>
</svg>
