<?xml version="1.0" encoding="utf-8"?>
<!-- Generator: Adobe Illustrator 15.1.0, SVG Export Plug-In  -->
<!DOCTYPE svg PUBLIC "-//W3C//DTD SVG 1.1//EN" "http://www.w3.org/Graphics/SVG/1.1/DTD/svg11.dtd" [
	<!ENTITY ns_flows "http://ns.adobe.com/Flows/1.0/">
]>
<svg version="1.1"
	 xmlns="http://www.w3.org/2000/svg" xmlns:xlink="http://www.w3.org/1999/xlink" xmlns:a="http://ns.adobe.com/AdobeSVGViewerExtensions/3.0/"
	 x="0px" y="0px" width="400px" height="150px" viewBox="-14.071 -5.621 400 150" enable-background="new -14.071 -5.621 400 150"
	 xml:space="preserve">
<defs>
</defs>
<path fill="#FFFFFF" d="M69.628,84.062l-15.161,0.572l-1.031-27.29c-0.068-1.818-1.329-2.986-3.146-2.918l-30.321,1.145
	c-1.82,0.07-2.987,1.328-2.919,3.147l1.032,27.29L2.92,86.582c-1.819,0.069-2.986,1.326-2.917,3.146l1.489,39.419l72.772-2.748
	l-1.488-39.419C72.707,85.161,71.447,83.995,69.628,84.062 M7.327,122.853L6.182,92.53l12.128-0.458l1.146,30.322L7.327,122.853z
	 M25.52,122.167l-1.259-33.355L23.23,61.522l24.258-0.917l1.03,27.291l1.26,33.354L25.52,122.167z M55.841,121.022l-1.145-30.324
	l12.129-0.457l1.145,30.323L55.841,121.022z"/>
<rect x="12.474" y="95.274" transform="matrix(-0.9993 0.0373 -0.0373 -0.9993 31.6432 196.0264)" fill="#FFFFFF" width="3.035" height="6.07"/>
<rect x="12.818" y="104.37" transform="matrix(-0.9993 0.0367 -0.0367 -0.9993 32.6014 214.2103)" fill="#FFFFFF" width="3.034" height="6.068"/>
<rect x="57.957" y="93.557" transform="matrix(-0.9993 0.038 -0.038 -0.9993 122.5729 190.8557)" fill="#FFFFFF" width="3.035" height="6.07"/>
<rect x="58.3" y="102.654" transform="matrix(-0.9993 0.038 -0.038 -0.9993 123.6056 209.0295)" fill="#FFFFFF" width="3.035" height="6.07"/>
<rect x="29.637" y="67.298" transform="matrix(-0.9993 0.0378 -0.0378 -0.9993 64.9454 139.4362)" fill="#FFFFFF" width="3.034" height="6.069"/>
<rect x="29.98" y="76.394" transform="matrix(-0.9993 0.038 -0.038 -0.9993 65.9888 157.604)" fill="#FFFFFF" width="3.034" height="6.07"/>
<rect x="30.324" y="85.491" transform="matrix(-0.9993 0.0377 -0.0377 -0.9993 66.9924 175.7891)" fill="#FFFFFF" width="3.034" height="6.069"/>
<rect x="30.667" y="94.587" transform="matrix(-0.9993 0.038 -0.038 -0.9993 68.0532 193.9525)" fill="#FFFFFF" width="3.034" height="6.071"/>
<rect x="31.011" y="103.684" transform="matrix(-0.9993 0.0373 -0.0373 -0.9993 69.0171 212.1478)" fill="#FFFFFF" width="3.034" height="6.069"/>
<rect x="38.734" y="66.954" transform="matrix(-0.9993 0.038 -0.038 -0.9993 83.1313 138.398)" fill="#FFFFFF" width="3.034" height="6.069"/>
<rect x="39.077" y="76.051" transform="matrix(-0.9993 0.0373 -0.0373 -0.9993 84.1132 156.6003)" fill="#FFFFFF" width="3.034" height="6.069"/>
<rect x="39.421" y="85.148" transform="matrix(-0.9993 0.038 -0.038 -0.9993 85.1947 174.745)" fill="#FFFFFF" width="3.034" height="6.068"/>
<rect x="39.764" y="94.243" transform="matrix(-0.9993 0.038 -0.038 -0.9993 86.2263 192.9203)" fill="#FFFFFF" width="3.035" height="6.071"/>
<rect x="40.108" y="103.341" transform="matrix(-0.9993 0.038 -0.038 -0.9993 87.2592 211.0945)" fill="#FFFFFF" width="3.034" height="6.07"/>
<polygon fill="none" stroke="#FFFFFF" stroke-width="3" stroke-linecap="round" stroke-linejoin="round" stroke-miterlimit="10" points="
	326.013,94.786 312.401,96.057 313.927,112.387 324.815,111.371 323.798,100.483 326.267,97.507 "/>
<path fill="none" stroke="#FFFFFF" stroke-width="3" stroke-linecap="round" stroke-linejoin="round" stroke-miterlimit="10" d="
	M375.421,124.006c-0.65,0.301-1.447,0.541-2.475,0.637c-2.092,0.195-5.363-0.075-7.756-1.623c-2.063,1.963-5.227,2.837-7.32,3.031
	c-2.094,0.196-5.363-0.074-7.756-1.623c-2.066,1.963-5.227,2.837-7.32,3.032s-5.363-0.077-7.756-1.623
	c-2.064,1.962-5.229,2.835-7.32,3.032c-2.094,0.195-5.363-0.078-7.756-1.624c-2.064,1.963-5.229,2.835-7.32,3.03
	c-0.939,0.089-1.766,0.081-2.531,0.036"/>
<path fill="none" stroke="#FFFFFF" stroke-width="3" stroke-linecap="round" stroke-linejoin="round" stroke-miterlimit="10" d="
	M375.931,129.452c-0.65,0.299-1.447,0.539-2.475,0.636c-2.094,0.195-5.365-0.075-7.758-1.621c-2.063,1.962-5.225,2.833-7.32,3.029
	c-2.092,0.195-5.361-0.075-7.756-1.623c-2.064,1.964-5.225,2.837-7.318,3.032c-2.096,0.193-5.363-0.076-7.758-1.622
	c-2.063,1.962-5.227,2.836-7.32,3.029c-2.094,0.195-5.361-0.074-7.754-1.621c-2.064,1.961-5.229,2.835-7.32,3.031
	c-0.941,0.085-1.766,0.079-2.533,0.033"/>
<path fill="none" stroke="#FFFFFF" stroke-width="3" stroke-linecap="round" stroke-linejoin="round" stroke-miterlimit="10" d="
	M357.772,126.14c7.299-0.681,16.236-17.252,15.342-26.831c-0.127-1.362-0.645-2-2.006-1.872l-13.156,1.227
	c-1.646,0.156-2.555,0.613-3.191,1.247c-1.227,1.237-2.541,8.899-8.168,9.426c-5.025,0.471-34.027,3.181-35.389,3.307
	c-1.359,0.128-2.594,1.615-2.477,2.873l0.375,4.022c0.205,2.183,3.379,6.498,8.063,8.501"/>
<line fill="none" stroke="#FFFFFF" stroke-width="3" stroke-linecap="round" stroke-linejoin="round" stroke-miterlimit="10" x1="319.079" y1="94.059" x2="318.571" y2="88.616"/>
<path fill="#040000" d="M365.526,106.264c0.117,1.25-1.129,1.409-1.129,1.409l-2.744,0.256c0,0-1.459,0.053-1.574-1.196
	c-0.068-0.727-0.166-1.776-0.166-1.776s-0.002-0.53,0.84-0.608c0.844-0.079,0.975,0.438,0.975,0.438l0.1,1.09
	c0,0,0.135,0.519,0.939,0.441c0.805-0.073,0.877-0.611,0.877-0.611l-0.1-1.09c0,0,0.033-0.531,0.879-0.61s0.934,0.44,0.934,0.44
	S365.462,105.579,365.526,106.264"/>
<path fill="none" stroke="#FFFFFF" stroke-miterlimit="10" d="M365.526,106.264c0.117,1.25-1.129,1.409-1.129,1.409l-2.744,0.256
	c0,0-1.459,0.053-1.574-1.196c-0.068-0.727-0.166-1.776-0.166-1.776s-0.002-0.53,0.84-0.608c0.844-0.079,0.975,0.438,0.975,0.438
	l0.1,1.09c0,0,0.135,0.519,0.939,0.441c0.805-0.073,0.877-0.611,0.877-0.611l-0.1-1.09c0,0,0.033-0.531,0.879-0.61
	s0.934,0.44,0.934,0.44S365.462,105.579,365.526,106.264z"/>
<path fill="#FFFFFF" d="M129.422,79.82c0.439,0,0.854-0.255,1.245-0.768c0.269-0.416,0.524-1.393,0.769-2.93h-5.748h-3.441h-3.404
	l1.464-15.34h3.405h3.441h3.844v-1.939h-11.972v-6.7h11.972h3.404h3.441v8.639v3.332v3.368h-11.349l-0.219,1.94h5.381h3.478h3.515
	c-0.024,5.077-0.341,8.798-0.952,11.166c-0.683,2.343-1.757,4.038-3.221,5.088c-1.368,0.951-3.051,1.429-5.053,1.429
	c-2.368,0-4.723,0.048-7.065,0.146l-1.977-7.284C123.383,79.869,126.396,79.82,129.422,79.82 M151.754,87.251h-7.138V51.814h7.138
	V87.251z"/>
<path fill="#FFFFFF" d="M130.992,85.515c3.873-1.162,5.447-4.062,6.138-7.822c0.685-3.728-1.604-7.476-5.694-7.476h-12.594
	l5.906,5.905c0.488-5.113,0.977-10.226,1.465-15.34l-5.906,5.906h10.69c3.219,0,5.905-2.686,5.905-5.906v-1.939
	c0-3.22-2.687-5.905-5.905-5.905h-11.972l5.906,5.905v-6.7l-5.906,5.905h18.818l-5.906-5.905v15.339l5.906-5.906h-11.349
	c-3.493,0-5.543,2.708-5.905,5.906c-0.073,0.646-0.146,1.294-0.22,1.94c-0.364,3.206,2.961,5.905,5.905,5.905h12.374l-5.905-5.905
	c-0.035,3.185,0.355,7.291-0.959,10.312c-1.224,2.815-6.943,1.52-9.426,1.611c1.898,1.445,3.796,2.891,5.694,4.336l-1.977-7.285
	c-1.897,2.492-3.796,4.983-5.695,7.476c3.015-0.09,6.027-0.139,9.043-0.147c7.615-0.021,7.618-11.831,0-11.811
	c-3.016,0.009-6.028,0.058-9.043,0.147c-3.829,0.114-6.723,3.685-5.693,7.476c0.658,2.428,1.317,4.856,1.976,7.284
	c0.668,2.464,3.091,4.434,5.694,4.336c6.854-0.258,14.064,0.493,18.55-5.766c3.646-5.084,3.582-11.975,3.646-17.969
	c0.036-3.219-2.712-5.905-5.905-5.905h-12.374l5.905,5.905c0.074-0.646,0.146-1.294,0.22-1.94l-5.905,5.905h11.349
	c3.219,0,5.905-2.686,5.905-5.905V52.144c0-3.22-2.686-5.905-5.905-5.905h-18.818c-3.219,0-5.905,2.686-5.905,5.905v6.7
	c0,3.219,2.686,5.905,5.905,5.905h11.972l-5.906-5.905v1.939l5.906-5.905h-10.69c-3.451,0-5.6,2.703-5.905,5.905
	c-0.488,5.114-0.977,10.227-1.465,15.34c-0.306,3.21,2.918,5.905,5.905,5.905h12.594c-1.898-2.493-3.796-4.983-5.694-7.476
	c-0.709,2.145-0.005,2.002,2.111-0.427C120.576,76.307,123.678,87.708,130.992,85.515"/>
<path fill="#FFFFFF" d="M145.849,51.814v35.438c1.969-1.969,3.937-3.937,5.905-5.905h-7.138c1.968,1.969,3.937,3.937,5.905,5.905
	V51.814l-5.905,5.906h7.138c7.616,0,7.616-11.811,0-11.811h-7.138c-3.22,0-5.905,2.686-5.905,5.905v35.438
	c0,3.22,2.686,5.905,5.905,5.905h7.138c3.219,0,5.905-2.686,5.905-5.905V51.814C157.659,44.198,145.849,44.198,145.849,51.814"/>
<path fill="#FFFFFF" d="M156.11,58.989h3.185v4.1c-0.024,3.417-0.183,6.237-0.476,8.458l-3.478-1.721
	c0.513-1.488,0.768-3.734,0.768-6.737V58.989z M185.655,63.565h4.1v4.356h-4.1v0.989h4.247v4.503H186.9
	c0.951,0.586,2.306,1.221,4.064,1.904l-2.453,4.794c-0.465-0.268-0.916-0.488-1.355-0.658c-0.146,0.146-0.268,0.294-0.366,0.439
	c-0.122,0.123-0.256,0.27-0.402,0.439c1.122,0.659,2.463,1.221,4.026,1.685l-3.111,5.454c-2.246-0.878-4.172-2.063-5.784-3.551
	c0,2.367-1.551,3.551-4.65,3.551h-2.049l-0.989-3.258c-1.538,1.244-3.002,2.271-4.393,3.074l-2.783-4.612l-0.402,0.732
	c-0.734-0.659-1.465-1.368-2.197-2.124c-0.879,2.075-2.16,4.112-3.844,6.114l-4.283-5.455c3.002-3.953,4.503-7.992,4.503-12.117
	V51.814h5.675v7.285c0.34-0.463,0.731-0.962,1.17-1.501l0.842,0.659v-0.878v-1.025v-0.951v-1.685V52.07h14.351h3.039h3.075v4.283
	v1.025v5.125h-2.928V63.565z M169.986,73.414h-2.636v-4.503h4.137v-0.989h-3.843v-3.074c-0.489,0.463-1.002,0.964-1.538,1.5v3.478
	c0,1.44-0.087,2.832-0.257,4.174c0.391,0.464,0.818,0.928,1.281,1.391c1.001-0.536,1.842-1.099,2.526-1.684
	C169.779,73.609,169.888,73.512,169.986,73.414 M170.645,79.857c-0.196-0.195-0.403-0.379-0.623-0.549
	c-0.366,0.17-0.708,0.342-1.025,0.512l-0.438-0.476l-1.5,2.599c0.731-0.316,1.33-0.599,1.792-0.841
	C169.314,80.809,169.913,80.394,170.645,79.857 M169.692,62.504c-0.292,0.342-0.585,0.696-0.878,1.062h2.672v-1.062H169.692z
	 M174.965,81.21c0.512-0.049,0.769-0.328,0.769-0.841v-1.648l-2.124,1.831L174.965,81.21z M182.469,56.353v-0.951h-8.237v0.951v0.11
	h8.237V56.353z M182.469,58.623h-8.236v0.99h8.236V58.623z M175.734,77.441v-3.075h5.052c-0.244-0.317-0.488-0.635-0.732-0.952
	h-3.917c-0.585,0.952-1.184,1.794-1.793,2.527C174.756,76.354,175.221,76.855,175.734,77.441 M177.6,63.565h1.94v-1.062h-1.94
	V63.565z M179.541,67.921h-1.94v0.989h1.94V67.921z M183.019,76.708c-0.513-0.439-1.001-0.928-1.464-1.465v2.93
	C182.139,77.586,182.628,77.1,183.019,76.708 M183.348,80.625l-1.793-1.976v4.1L183.348,80.625z"/>
<path fill="#FFFFFF" d="M156.111,64.895h3.185l-5.905-5.905c0,4.192,0.039,8.388-0.476,12.557c2.962-1.699,5.924-3.399,8.887-5.099
	c-1.16-0.574-2.319-1.147-3.478-1.721c0.904,2.223,1.809,4.445,2.713,6.669c1.235-3.969,0.979-8.296,0.979-12.407
	c0-7.616-11.811-7.616-11.811,0v3.839c0,2.406-0.024,3.714-0.558,5.428c-0.743,2.384,0.42,5.534,2.713,6.668
	c1.16,0.573,2.319,1.147,3.478,1.721c4.328,2.143,8.328-0.568,8.886-5.099c0.515-4.169,0.476-8.365,0.476-12.557
	c0-3.22-2.687-5.905-5.906-5.905h-3.185C148.495,53.084,148.495,64.895,156.111,64.895"/>
<path fill="#FFFFFF" d="M185.655,69.471h4.1l-5.905-5.906v4.356l5.905-5.905h-4.1c-3.219,0-5.905,2.686-5.905,5.905v0.989
	c0,3.22,2.687,5.905,5.905,5.905h4.247l-5.905-5.905v4.503l5.905-5.905H186.9c-5.834,0-8.12,8.083-2.98,11.004
	c1.752,0.996,3.609,1.744,5.474,2.5c-1.178-2.892-2.354-5.783-3.53-8.675c-0.817,1.598-1.636,3.196-2.453,4.795
	c2.693-0.707,5.387-1.412,8.081-2.118c-0.436-0.255-0.887-0.474-1.355-0.659c-2.287-1.006-5.342-1.257-7.156,0.923
	c-0.243,0.305-0.498,0.598-0.769,0.878c-2.487,2.714-2.282,7.401,1.195,9.275c1.739,0.938,3.559,1.671,5.438,2.281
	c-1.178-2.893-2.353-5.785-3.53-8.676c-1.038,1.817-2.074,3.636-3.112,5.454c2.693-0.707,5.386-1.412,8.08-2.118
	c-1.645-0.697-3.23-1.454-4.589-2.629c-4.05-3.5-9.623-1.061-10.081,4.177c0.234-2.691,2.985-2.355,0.936-2.355h-1.73
	c1.898,1.445,3.796,2.891,5.695,4.336c-0.33-1.085-0.659-2.172-0.989-3.257c-1.399-4.614-6.42-5.308-9.87-2.606
	c-1.016,0.796-2.098,1.48-3.198,2.151c2.693,0.706,5.386,1.411,8.08,2.119c-0.927-1.538-1.855-3.075-2.782-4.613
	c-2.236-3.705-8.023-3.956-10.198,0c-0.134,0.244-0.268,0.488-0.402,0.732c3.092-0.398,6.183-0.797,9.274-1.195
	c-0.75-0.692-1.479-1.398-2.196-2.123c-2.478-2.506-7.672-2.311-9.275,1.195c-0.798,1.745-1.712,3.417-2.92,4.918h8.351
	c-1.428-1.818-2.855-3.637-4.284-5.455c0.308,2.386,0.616,4.771,0.924,7.156c7.007-9.732,5.309-21.773,5.309-33.109l-5.906,5.906
	h5.675l-5.906-5.906v7.285c0,6.386,7.662,7.379,11.004,2.98c0.083-0.102,0.166-0.203,0.248-0.306h-8.352
	c0.281,0.22,0.562,0.439,0.843,0.66c3.847,3.01,10.08,1.445,10.08-4.177V52.07l-5.905,5.905h20.464l-5.905-5.905v10.434l5.905-5.905
	h-2.928c-3.219,0-5.905,2.686-5.905,5.905v1.062c0,7.617,11.81,7.617,11.81,0v-1.062l-5.905,5.906h2.928
	c3.221,0,5.906-2.686,5.906-5.906V52.07c0-3.219-2.686-5.906-5.906-5.906h-20.464c-3.219,0-5.905,2.687-5.905,5.906v6.187
	c3.36-1.391,6.721-2.783,10.081-4.176c-0.28-0.219-0.562-0.439-0.842-0.659c-2.303-1.803-6.171-2.727-8.352,0
	c-0.71,0.889-1.406,1.79-2.094,2.696l11.004,2.98v-7.285c0-3.219-2.687-5.905-5.905-5.905h-5.675c-3.219,0-5.905,2.686-5.905,5.905
	v11.672c0,5.958,0.027,10.305-3.696,15.478c-1.663,2.31-0.616,5.195,0.923,7.155c1.427,1.819,2.855,3.638,4.284,5.456
	c1.845,2.35,6.497,2.304,8.351,0c1.859-2.309,3.531-4.606,4.768-7.311c-3.091,0.398-6.184,0.797-9.275,1.196
	c0.718,0.726,1.447,1.432,2.197,2.123c2.725,2.515,7.378,2.255,9.274-1.194c0.133-0.245,0.269-0.488,0.402-0.733h-10.198
	c0.927,1.538,1.855,3.075,2.783,4.613c1.638,2.715,5.303,3.812,8.079,2.118c1.969-1.2,3.775-2.578,5.589-3.997
	c-3.291-0.87-6.581-1.738-9.871-2.607c0.33,1.086,0.659,2.171,0.989,3.259c0.766,2.523,3.015,4.336,5.694,4.336
	c6.602,0,11.967-2.152,12.604-9.457c-3.36,1.392-6.721,2.783-10.081,4.176c2.153,1.858,4.359,3.362,6.98,4.473
	c2.935,1.246,6.335,0.94,8.08-2.116c1.037-1.819,2.074-3.636,3.113-5.455c1.953-3.426,0.104-7.498-3.529-8.676
	c-0.977-0.315-1.723-0.605-2.617-1.088c0.398,3.091,0.797,6.183,1.193,9.274c0.271-0.28,0.527-0.574,0.77-0.879
	c-2.385,0.308-4.771,0.615-7.156,0.923c0.467,0.186,0.92,0.405,1.355,0.658c2.714,1.446,6.572,0.829,8.08-2.117
	c0.818-1.598,1.635-3.196,2.453-4.796c1.881-3.681,0.105-7.201-3.529-8.675c-0.926-0.374-1.789-0.816-2.654-1.308
	c-0.994,3.668-1.986,7.336-2.98,11.004h3.001c3.219,0,5.906-2.687,5.906-5.905v-4.503c0-3.219-2.688-5.906-5.906-5.906h-4.247
	l5.905,5.906v-0.989l-5.905,5.905h4.1c3.219,0,5.906-2.686,5.906-5.905v-4.356c0-3.219-2.688-5.905-5.906-5.905h-4.1
	C178.039,57.66,178.039,69.471,185.655,69.471"/>
<path fill="#FFFFFF" d="M169.986,67.508h-2.636l5.905,5.905v-4.503l-5.905,5.905h4.137c3.219,0,5.905-2.686,5.905-5.905v-0.989
	c0-3.219-2.687-5.905-5.905-5.905h-3.844l5.905,5.905v-3.074c0-5.234-6.393-7.709-10.081-4.176
	c-1.692,1.622-3.268,3.193-3.268,5.735v2.634c0,1.202-0.027,2.399-0.114,3.601c-0.112,1.555-0.174,2.907,0.665,4.339
	c0.551,0.94,1.441,1.803,2.205,2.586c1.875,1.924,4.856,2.21,7.155,0.924c1.458-0.814,2.803-1.791,4.051-2.899
	c2.408-2.14,2.174-6.179,0-8.353c-2.375-2.375-5.946-2.136-8.351,0c-0.431,0.369-0.441,0.39-0.032,0.061
	c-0.513,0.376-1.075,0.684-1.629,0.993c2.385,0.308,4.77,0.615,7.156,0.923c-0.441-0.453-0.866-0.913-1.281-1.391
	c0.577,1.393,1.154,2.784,1.73,4.176c0.294-2.548,0.255-5.094,0.255-7.652c-0.576,1.392-1.153,2.784-1.729,4.176
	c0.509-0.506,1.021-1.006,1.538-1.501c-3.36-1.393-6.721-2.785-10.082-4.176v3.074c0,3.22,2.687,5.905,5.905,5.905h3.844
	l-5.905-5.905v0.989l5.905-5.906h-4.137c-3.219,0-5.906,2.687-5.906,5.906v4.503c0,3.219,2.687,5.905,5.906,5.905h2.636
	c3.218,0,5.905-2.687,5.905-5.905C175.892,70.194,173.205,67.508,169.986,67.508"/>
<path fill="#FFFFFF" d="M174.82,75.68c-0.2-0.192-0.406-0.374-0.623-0.548c-0.736-0.731-1.605-1.238-2.605-1.52
	c-1.636-0.449-3.064-0.104-4.55,0.597c-0.346,0.162-0.688,0.332-1.026,0.512c2.386,0.308,4.771,0.614,7.157,0.923
	c-0.146-0.158-0.292-0.316-0.439-0.476c-2.589-2.807-7.426-2.006-9.275,1.195c-0.5,0.865-1,1.732-1.501,2.6
	c-1.329,2.3-0.96,5.271,0.923,7.155c0.737,0.731,1.605,1.239,2.606,1.519c1.671,0.46,3.028,0.071,4.55-0.595
	c1.31-0.572,2.434-1.244,3.587-2.087c1.293-0.945,2.274-1.931,2.714-3.529c0.418-1.524,0.204-3.187-0.596-4.551
	c-0.774-1.32-2.054-2.308-3.53-2.714c-1.396-0.384-3.332-0.295-4.55,0.596c-1.154,0.843-2.277,1.515-3.587,2.087
	c2.693,2.692,5.386,5.387,8.08,8.079c0.5-0.865,1-1.732,1.5-2.6c-3.091,0.399-6.184,0.797-9.274,1.197
	c0.146,0.158,0.292,0.316,0.438,0.475c1.843,1.998,4.871,2.136,7.157,0.923c0.337-0.179,0.678-0.349,1.024-0.512
	c-2.385-0.308-4.771-0.615-7.156-0.923c0.217,0.173,0.423,0.354,0.624,0.549c2.313,2.235,6.046,2.305,8.351,0
	C177.067,81.786,177.134,77.917,174.82,75.68"/>
<path fill="#FFFFFF" d="M165.518,58.328c-0.298,0.35-0.591,0.705-0.879,1.062c-0.731,0.737-1.238,1.605-1.519,2.606
	c-0.281,1.046-0.281,2.094,0,3.14c0.697,2.533,3.069,4.335,5.695,4.335h2.672c3.218,0,5.905-2.686,5.905-5.906v-1.062
	c0-3.219-2.687-5.905-5.905-5.905h-1.794c-3.218,0-5.905,2.686-5.905,5.905c0,3.22,2.687,5.906,5.905,5.906h1.794l-5.905-5.906
	v1.062l5.905-5.905h-2.672c1.392,3.36,2.784,6.72,4.175,10.082c0.289-0.358,0.582-0.712,0.879-1.062
	c1.049-1.23,1.73-2.512,1.73-4.176c0-1.561-0.627-3.073-1.73-4.176c-1.102-1.102-2.614-1.729-4.176-1.729
	C168.239,56.599,166.49,57.186,165.518,58.328"/>
<path fill="#FFFFFF" d="M176.534,86.906c1.79-0.257,3.255-1.64,4.197-3.089c0.647-0.998,0.907-2.397,0.907-3.561v-1.535
	c0-2.082-1.129-4.047-2.924-5.099c-0.921-0.534-1.915-0.804-2.981-0.807c-1.657,0-2.955,0.677-4.175,1.729
	c-0.708,0.61-1.416,1.222-2.124,1.831c-1.14,0.983-1.73,2.714-1.73,4.176c0,1.958,1.096,4.209,2.925,5.099
	c0.451,0.22,0.902,0.439,1.354,0.659C173.454,87.025,174.913,87.351,176.534,86.906c1.476-0.407,2.755-1.395,3.529-2.714
	c0.8-1.364,1.015-3.026,0.596-4.551c-0.38-1.381-1.389-2.885-2.714-3.528c-0.452-0.221-0.903-0.439-1.355-0.659
	c0.4,3.091,0.797,6.183,1.196,9.275c0.707-0.611,1.416-1.222,2.124-1.832c-3.36-1.393-6.721-2.783-10.082-4.176
	c0,0.593,0.021,1.189-0.006,1.782c0.07-0.523,0.14-1.047,0.211-1.569c-0.008,0.079-0.025,0.158-0.052,0.233
	c0.199-0.47,0.397-0.941,0.596-1.41c-0.024,0.066-0.059,0.129-0.102,0.187c0.308-0.398,0.615-0.797,0.923-1.195
	c-0.043,0.056-0.095,0.103-0.152,0.141c0.398-0.308,0.796-0.614,1.195-0.923c-0.031,0.019-0.063,0.036-0.095,0.055l1.411-0.596
	c-0.123,0.047-0.233,0.072-0.362,0.091c-1.425,0.205-2.837,1.531-3.53,2.715c-0.798,1.363-1.014,3.025-0.595,4.55
	c0.406,1.476,1.394,2.756,2.715,3.529c0.47,0.198,0.94,0.396,1.411,0.596C174.441,87.186,175.488,87.186,176.534,86.906"/>
<path fill="#FFFFFF" d="M188.374,56.353v-0.951c0-3.219-2.686-5.905-5.905-5.905h-8.236c-3.22,0-5.905,2.686-5.905,5.905v1.061
	c0,3.22,2.686,5.906,5.905,5.906h8.236c3.219,0,5.905-2.686,5.905-5.906V56.353c0-3.219-2.686-5.905-5.905-5.905
	s-5.905,2.686-5.905,5.905v0.11l5.905-5.905h-8.236l5.905,5.905v-1.061l-5.905,5.905h8.236l-5.905-5.905v0.951
	c0,3.22,2.687,5.905,5.905,5.905S188.374,59.573,188.374,56.353"/>
<path fill="#FFFFFF" d="M182.469,52.718h-8.236c-3.22,0-5.905,2.686-5.905,5.905v0.989c0,3.22,2.686,5.906,5.905,5.906h8.236
	c3.219,0,5.905-2.686,5.905-5.906v-0.989C188.374,55.404,185.688,52.718,182.469,52.718s-5.905,2.686-5.905,5.905v0.989l5.905-5.905
	h-8.236l5.905,5.905v-0.989l-5.905,5.905h8.236c3.219,0,5.905-2.686,5.905-5.905C188.374,55.404,185.688,52.718,182.469,52.718"/>
<path fill="#FFFFFF" d="M181.638,77.441v-3.075l-5.905,5.904h5.052c2.083,0,4.048-1.128,5.1-2.924c0.963-1.646,1.243-4.348,0-5.961
	c-0.863-1.12-1.592-2.334-2.852-3.07c-0.98-0.575-2.036-0.807-3.163-0.807h-2.156h-1.579c-2.404,0-4.131,1.383-5.351,3.326
	c-0.165,0.258-0.333,0.512-0.508,0.762c-0.843,1.239,0.791-0.939-0.11,0.168c-2.042,2.512-2.43,5.882,0,8.352
	c0.479,0.486,0.938,0.989,1.392,1.501c2.134,2.411,6.18,2.171,8.352,0c2.379-2.379,2.131-5.943,0-8.353
	c-0.453-0.512-0.912-1.013-1.392-1.5v8.352c0.972-1.195,1.898-2.417,2.717-3.722l-5.099,2.925h3.918l-5.1-2.925
	c0.243,0.317,0.487,0.636,0.731,0.952l5.1-8.886h-5.052c-3.219,0-5.905,2.686-5.905,5.905v3.075c0,3.219,2.687,5.905,5.905,5.905
	C178.952,83.346,181.638,80.66,181.638,77.441"/>
<path fill="#FFFFFF" d="M171.695,62.504v1.062c0,3.219,2.687,5.906,5.905,5.906h1.94c3.219,0,5.905-2.687,5.905-5.906v-1.062
	c0-3.219-2.687-5.905-5.905-5.905h-1.94C174.381,56.599,171.695,59.285,171.695,62.504c0,3.22,2.687,5.906,5.905,5.906h1.94
	l-5.906-5.906v1.062l5.906-5.905h-1.94l5.905,5.905v-1.062c0-3.219-2.687-5.905-5.905-5.905S171.695,59.285,171.695,62.504"/>
<path fill="#FFFFFF" d="M185.446,68.911v-0.989c0-3.219-2.687-5.905-5.905-5.905h-1.94c-3.219,0-5.905,2.686-5.905,5.905v0.989
	c0,3.22,2.686,5.905,5.905,5.905h1.94C182.759,74.816,185.446,72.13,185.446,68.911c0-3.219-2.687-5.906-5.905-5.906h-1.94
	l5.906,5.906v-0.989l-5.906,5.905h1.94l-5.905-5.905v0.989c0,3.22,2.687,5.905,5.905,5.905
	C182.759,74.816,185.446,72.13,185.446,68.911"/>
<path fill="#FFFFFF" d="M187.194,72.532c-0.523-0.454-1.008-0.942-1.463-1.465c-1.36-1.556-3.82-2.048-5.746-1.519
	c-2.534,0.697-4.336,3.068-4.336,5.695v2.93c0,2.082,1.129,4.046,2.925,5.099c2.29,1.342,5.282,0.952,7.157-0.923
	c0.486-0.488,0.976-0.976,1.463-1.465C189.466,78.607,189.47,74.809,187.194,72.532c-2.274-2.273-6.078-2.276-8.351,0
	c-0.488,0.489-0.977,0.978-1.464,1.465c3.36,1.393,6.721,2.785,10.081,4.177v-2.93c-3.36,1.393-6.721,2.784-10.081,4.176
	c0.456,0.521,0.942,1.009,1.464,1.465c1.212,1.057,2.526,1.729,4.176,1.729c1.56,0,3.073-0.628,4.175-1.729
	C189.353,78.725,189.622,74.65,187.194,72.532"/>
<path fill="#FFFFFF" d="M187.524,76.449c-0.597-0.657-1.197-1.316-1.793-1.976c-1.396-1.538-3.79-2.057-5.746-1.518
	c-2.533,0.696-4.336,3.066-4.336,5.693v4.1c0,2.083,1.129,4.048,2.925,5.1c2.145,1.257,5.465,1.079,7.157-0.924
	c0.597-0.707,1.196-1.415,1.793-2.123c1.045-1.237,1.73-2.507,1.73-4.177C189.255,79.065,188.626,77.552,187.524,76.449
	c-2.132-2.131-6.273-2.461-8.351,0c-0.599,0.709-1.196,1.417-1.794,2.124c3.36,1.394,6.721,2.784,10.081,4.176v-4.1
	c-3.36,1.393-6.721,2.784-10.081,4.177c0.598,0.657,1.196,1.317,1.794,1.976c2.164,2.383,6.158,2.191,8.351,0
	C189.882,82.444,189.687,78.832,187.524,76.449"/>
<path fill="#FFFFFF" d="M212.196,66.165v-3.808V60.6v-3.661v-3.624c4.076,0,8.141-0.44,12.191-1.318l4.283,6.479
	c-2.418,0.977-5.869,1.623-10.361,1.94v1.757h9.957v6.847h-2.342v18.23h-6.406v-18.23h-1.209v0.805
	c-0.023,3.002-0.232,5.857-0.621,8.567c-0.586,3.244-1.66,6.197-3.223,8.858l-5.271-3.844l-0.697,0.988
	c-0.707-0.659-1.438-1.317-2.195-1.977v4.832h-6.406v-4.466c-1,0.781-2.137,1.623-3.404,2.526l-3.844-5.528
	c1.904-1.318,3.635-2.684,5.197-4.101h-3.99v-6.114h6.041v-1.062h-6.041v-6.407h2.6l-0.512-2.232h-1.795v-6.407h5.455v-2.087h6.992
	v2.087h4.539v6.407h-1.098l-0.402,2.232h1.5v6.407h-4.832v1.062h4.832v6.114h-2.928c1.193,0.978,2.172,1.807,2.928,2.49
	c0.709-1.807,1.063-4.589,1.063-8.348V66.165z M203.739,62.101l0.402-2.232h-2.014l0.477,2.232H203.739z"/>
<path fill="#FFFFFF" d="M218.103,66.165v-12.85l-5.906,5.905c4.639-0.063,9.217-0.605,13.762-1.529
	c-2.225-0.905-4.447-1.809-6.67-2.714c1.428,2.16,2.855,4.32,4.283,6.479c1.178-2.891,2.354-5.783,3.529-8.675
	c-2.854,1.06-5.768,1.485-8.789,1.729c-3.209,0.259-5.906,2.49-5.906,5.905v1.757c0,3.22,2.686,5.905,5.906,5.905h9.955
	l-5.904-5.905v6.847l5.904-5.906h-2.342c-3.219,0-5.906,2.686-5.906,5.906v18.23c1.969-1.969,3.938-3.937,5.906-5.905h-6.406
	c1.967,1.969,3.938,3.937,5.906,5.905v-18.23c0-3.22-2.688-5.906-5.906-5.906h-1.207c-3.221,0-5.906,2.686-5.906,5.906
	c0,5.37-0.402,10.474-3.039,15.25c2.693-0.706,5.387-1.412,8.08-2.118c-1.756-1.281-3.514-2.563-5.271-3.843
	c-2.76-2.013-6.377-0.301-8.08,2.117c-0.23,0.33-0.463,0.658-0.695,0.988c3.092-0.397,6.184-0.796,9.275-1.195
	c-0.721-0.671-1.453-1.33-2.195-1.977c-3.762-3.33-10.082-1.21-10.082,4.176v4.832c1.969-1.969,3.938-3.937,5.904-5.905h-6.406
	c1.969,1.969,3.938,3.937,5.906,5.905v-4.466c0-4.053-5.197-7.929-8.887-5.099c-1.123,0.86-2.256,1.698-3.404,2.526
	c2.693,0.705,5.387,1.411,8.078,2.118c-1.279-1.843-2.561-3.686-3.844-5.528c-0.705,2.693-1.412,5.388-2.117,8.079
	c2.215-1.572,4.355-3.228,6.395-5.023c3.963-3.492,0.736-10.081-4.178-10.081h-3.99l5.906,5.905v-6.114l-5.906,5.905h6.041
	c3.219,0,5.906-2.686,5.906-5.905v-1.062c0-3.219-2.688-5.905-5.906-5.905h-6.041l5.906,5.905v-6.407l-5.906,5.906h2.6
	c3.965,0,6.549-3.756,5.695-7.476l-0.514-2.233c-0.582-2.545-3.154-4.335-5.695-4.335h-1.793l5.906,5.905v-6.407l-5.906,5.905h5.455
	c3.219,0,5.906-2.686,5.906-5.905v-2.087l-5.906,5.905h6.992l-5.906-5.905v2.087c0,3.219,2.688,5.905,5.906,5.905h4.539
	l-5.904-5.905v6.407l5.904-5.905h-1.098c-2.445,0-5.234,1.782-5.693,4.335c-0.135,0.744-0.27,1.489-0.402,2.233
	c-0.674,3.727,1.594,7.476,5.693,7.476h1.5l-5.904-5.906v6.407l5.904-5.905h-4.832c-3.219,0-5.904,2.686-5.904,5.905v1.062
	c0,3.22,2.686,5.905,5.904,5.905h4.832l-5.904-5.905v6.114l5.904-5.905h-2.928c-4.797,0-8.297,6.678-4.176,10.081
	c0.988,0.817,1.967,1.642,2.928,2.49c3.438,3.033,8.381,1.725,9.871-2.605C218.317,75.419,218.103,70.677,218.103,66.165
	c0-7.617-11.813-7.617-11.813,0c0,3.482,0.299,7.102-0.85,10.438c3.289-0.868,6.578-1.737,9.869-2.606
	c-0.963-0.848-1.939-1.672-2.928-2.489c-1.391,3.361-2.785,6.721-4.176,10.081h2.928c3.221,0,5.906-2.686,5.906-5.905v-6.114
	c0-3.22-2.686-5.906-5.906-5.906h-4.832l5.906,5.906v-1.062l-5.906,5.906h4.832c3.221,0,5.906-2.687,5.906-5.906v-6.407
	c0-3.219-2.686-5.905-5.906-5.905h-1.5c1.898,2.492,3.797,4.984,5.693,7.476c0.135-0.745,0.27-1.489,0.402-2.233
	c-1.896,1.445-3.795,2.891-5.693,4.335h1.098c3.221,0,5.906-2.686,5.906-5.905v-6.407c0-3.22-2.686-5.905-5.906-5.905h-4.539
	l5.904,5.905v-2.087c0-3.22-2.686-5.905-5.904-5.905h-6.992c-3.219,0-5.904,2.686-5.904,5.905v2.087l5.904-5.905h-5.455
	c-3.219,0-5.904,2.686-5.904,5.905v6.407c0,3.219,2.686,5.905,5.904,5.905h1.793c-1.896-1.445-3.795-2.891-5.693-4.335l0.514,2.233
	c1.896-2.492,3.795-4.984,5.693-7.476h-2.6c-3.219,0-5.904,2.686-5.904,5.905v6.407c0,3.22,2.686,5.906,5.904,5.906h6.041
	l-5.904-5.906v1.062l5.904-5.906h-6.041c-3.219,0-5.904,2.686-5.904,5.906v6.114c0,3.22,2.686,5.905,5.904,5.905h3.99
	c-1.391-3.36-2.783-6.72-4.174-10.081c-1.291,1.137-2.604,2.183-4.004,3.178c-2.457,1.745-4.076,5.268-2.119,8.079
	c1.281,1.844,2.563,3.687,3.844,5.528c1.697,2.439,5.32,4.11,8.08,2.117c1.146-0.826,2.281-1.665,3.404-2.526
	c-2.963-1.7-5.922-3.398-8.885-5.098v4.466c0,3.221,2.686,5.906,5.904,5.906h6.406c3.221,0,5.906-2.686,5.906-5.906v-4.832
	c-3.361,1.392-6.721,2.783-10.082,4.176c0.744,0.647,1.477,1.306,2.197,1.978c2.975,2.723,7.033,1.987,9.273-1.196
	c0.232-0.329,0.465-0.658,0.697-0.988l-8.08,2.118c1.758,1.282,3.516,2.563,5.271,3.844c2.561,1.868,6.639,0.491,8.08-2.118
	c3.652-6.614,4.65-13.737,4.65-21.211l-5.904,5.905h1.207l-5.906-5.905v18.23c0,3.221,2.686,5.906,5.906,5.906h6.406
	c3.219,0,5.906-2.686,5.906-5.906v-18.23l-5.906,5.905h2.342c3.221,0,5.906-2.687,5.906-5.905v-6.847
	c0-3.22-2.686-5.906-5.906-5.906h-9.955l5.904,5.906v-1.757l-5.904,5.905c4.021-0.325,8.123-0.738,11.93-2.15
	c3.371-1.253,5.787-5.259,3.527-8.675c-1.428-2.16-2.855-4.32-4.281-6.479c-1.549-2.342-3.936-3.27-6.67-2.715
	c-3.533,0.719-7.018,1.059-10.621,1.107c-3.217,0.043-5.906,2.654-5.906,5.906v12.85C206.29,73.781,218.103,73.781,218.103,66.165"
	/>
<path fill="#FFFFFF" d="M209.435,63.671l0.402-2.233c0.07-0.523,0.141-1.046,0.209-1.57c-0.002-1.066-0.27-2.059-0.807-2.98
	c-1.051-1.795-3.016-2.925-5.098-2.925h-2.014c-1.559,0-3.072,0.627-4.176,1.729c-0.732,0.737-1.238,1.605-1.518,2.606
	c-0.281,1.047-0.281,2.094,0,3.14c0.158,0.745,0.316,1.489,0.475,2.233c0.545,2.548,3.188,4.335,5.695,4.335h1.135
	c3.219,0,5.906-2.686,5.906-5.906c0-3.219-2.688-5.905-5.906-5.905h-1.135c1.898,1.445,3.797,2.891,5.695,4.335
	c-0.16-0.744-0.318-1.489-0.477-2.233c-1.898,2.492-3.795,4.983-5.695,7.476h2.014c-1.896-2.492-3.795-4.984-5.693-7.476
	l-0.404,2.233c-0.068,0.523-0.139,1.046-0.209,1.57c0.002,1.066,0.271,2.06,0.805,2.98c0.773,1.321,2.055,2.309,3.529,2.715
	c1.525,0.419,3.186,0.203,4.551-0.596C207.942,66.485,209.175,65.113,209.435,63.671"/>
<path fill="#FFFFFF" d="M240.458,55.475h3.186v22.661v1.245c0.707-1.758,1.061-4.211,1.061-7.359V57.378v-2.489v-2.453h14.938h2.893
	h2.93v6.589v2.452v2.491h-5.127v4.722h0.844v-3.405h3.623v9.226h-1.83h-1.793h-0.844v6.334h0.623v-4.868h4.355v11.129h-4.355v-0.733
	h-5.748v0.733h-4.355V76.123h4.355v4.723h0.77v-6.334h-4.613v-2.929v-2.892v-3.405h3.625v3.405h0.988v-4.722h-5.455v8.053
	c0,7.225-1.465,12.411-4.393,15.558l-2.637-2.89h-8.787v1.538h-3.477V55.475h3.477v22.661h0.77V51.961h4.357v26.175h0.621V55.475z
	 M259.642,57.378h-9.115v1.647h9.115V57.378z"/>
<path fill="#FFFFFF" d="M240.458,61.38h3.186l-5.904-5.905v23.906c0,6.934,9.434,7.688,11.6,1.57
	c1.873-5.296,1.271-11.486,1.271-17.035v-11.48l-5.906,5.905h20.76l-5.906-5.905v11.531l5.906-5.905h-5.127
	c-3.219,0-5.904,2.686-5.904,5.905v4.723c0,3.22,2.686,5.905,5.904,5.905h0.844c3.219,0,5.904-2.686,5.904-5.905v-3.405
	l-5.904,5.905h3.623l-5.906-5.905v9.226l5.906-5.905h-4.467c-3.219,0-5.904,2.686-5.904,5.905v6.334c0,3.22,2.686,5.905,5.904,5.905
	h0.623c3.219,0,5.904-2.686,5.904-5.905v-4.869l-5.904,5.905h4.357l-5.906-5.905v11.129c1.969-1.968,3.938-3.937,5.906-5.905h-4.357
	c1.969,1.969,3.938,3.938,5.904,5.905v-0.731c0-3.22-2.686-5.906-5.904-5.906h-5.748c-3.219,0-5.906,2.687-5.906,5.906v0.731
	c1.969-1.968,3.938-3.937,5.906-5.905h-4.355c1.969,1.969,3.938,3.938,5.906,5.905V76.123l-5.906,5.905h4.355l-5.906-5.905v4.723
	c0,3.22,2.688,5.905,5.906,5.905h0.77c3.217,0,5.904-2.686,5.904-5.905v-6.334c0-3.22-2.688-5.905-5.904-5.905h-4.613l5.904,5.905
	v-9.226l-5.904,5.905h3.623l-5.904-5.905v3.405c0,3.22,2.686,5.905,5.904,5.905h0.99c3.217,0,5.904-2.686,5.904-5.905v-4.723
	c0-3.219-2.688-5.905-5.904-5.905h-5.455c-3.219,0-5.906,2.686-5.906,5.905c0,5.857,1.406,14.717-2.662,19.437h8.352
	c-2.211-2.426-3.912-4.621-7.537-4.621h-8.063c-3.219,0-5.904,2.687-5.904,5.906v1.537c1.969-1.969,3.938-3.938,5.904-5.905h-3.477
	c1.969,1.968,3.938,3.937,5.906,5.905V55.475l-5.906,5.905h3.477l-5.904-5.905v22.661c0,3.22,2.686,5.905,5.904,5.905h0.77
	c3.219,0,5.906-2.686,5.906-5.905V51.96l-5.906,5.905h4.357l-5.906-5.905v26.176c0,3.22,2.688,5.905,5.906,5.905h0.621
	c3.219,0,5.906-2.686,5.906-5.905V55.475c0-7.616-11.811-7.616-11.811,0v22.661l5.904-5.905h-0.621l5.904,5.905V51.96
	c0-3.22-2.688-5.906-5.904-5.906h-4.357c-3.219,0-5.904,2.686-5.904,5.906v26.176l5.904-5.905h-0.77l5.906,5.905V55.475
	c0-3.22-2.686-5.905-5.906-5.905h-3.477c-3.221,0-5.904,2.686-5.904,5.905v30.752c0,3.219,2.684,5.905,5.904,5.905h3.477
	c3.221,0,5.906-2.687,5.906-5.905V84.69c-1.969,1.967-3.938,3.937-5.906,5.905h8.787c-1.393-0.576-2.783-1.154-4.176-1.729
	c0.879,0.963,1.758,1.928,2.637,2.892c2.053,2.252,6.316,2.359,8.352,0c6.738-7.816,6.121-18.103,6.121-27.79l-5.904,5.906h5.455
	l-5.906-5.906v4.723l5.906-5.906h-0.99l5.906,5.906v-3.405c0-3.219-2.686-5.905-5.906-5.905h-3.623
	c-3.219,0-5.906,2.686-5.906,5.905v9.226c0,3.22,2.688,5.905,5.906,5.905h4.613l-5.906-5.905v6.334l5.906-5.905h-0.77l5.906,5.905
	v-4.723c0-3.22-2.686-5.905-5.906-5.905h-4.355c-3.221,0-5.906,2.686-5.906,5.905v10.982c0,3.221,2.686,5.906,5.906,5.906h4.355
	c3.221,0,5.906-2.686,5.906-5.906v-0.731l-5.906,5.905h5.748l-5.906-5.905v0.731c0,3.221,2.688,5.906,5.906,5.906h4.357
	c3.219,0,5.904-2.686,5.904-5.906V75.976c0-3.22-2.686-5.905-5.904-5.905h-4.357c-3.219,0-5.906,2.686-5.906,5.905v4.869
	l5.906-5.905h-0.623l5.906,5.905v-6.334l-5.906,5.905h4.467c3.219,0,5.906-2.686,5.906-5.905v-9.226
	c0-3.219-2.688-5.905-5.906-5.905h-3.623c-3.221,0-5.906,2.686-5.906,5.905v3.405l5.906-5.906h-0.844l5.906,5.906v-4.723
	l-5.906,5.906h5.127c3.219,0,5.904-2.686,5.904-5.906V52.437c0-3.22-2.686-5.905-5.904-5.905h-20.76
	c-3.217,0-5.904,2.686-5.904,5.905v10.705c0,4.646,0.721,10.232-0.85,14.669c3.865,0.523,7.732,1.046,11.6,1.57V55.475
	c0-3.22-2.688-5.905-5.906-5.905h-3.186C232.843,49.57,232.843,61.38,240.458,61.38"/>
<path fill="#FFFFFF" d="M265.548,59.026v-1.647c0-3.22-2.686-5.905-5.906-5.905h-9.115c-3.219,0-5.906,2.686-5.906,5.905v1.647
	c0,3.22,2.688,5.905,5.906,5.905h9.115C262.862,64.931,265.548,62.246,265.548,59.026c0-3.219-2.686-5.905-5.906-5.905h-9.115
	l5.904,5.905v-1.647l-5.904,5.905h9.115l-5.904-5.905v1.647c0,3.22,2.686,5.905,5.904,5.905
	C262.862,64.931,265.548,62.246,265.548,59.026"/>
<path fill="#FFFFFF" d="M278.788,75.976c-1.391,4.442-3.111,8.091-5.16,10.947l-5.529-4.943c1.977-2.928,3.672-6.309,5.09-10.141
	L278.788,75.976z M279.485,66.201l-4.357,5.456c-1.855-1.465-4.137-2.819-6.846-4.063l4.283-5.529
	C275.128,63.333,277.435,64.712,279.485,66.201 M279.228,53.242h22.406v7.139h-7.836v18.122h8.568v7.284h-24.164v-7.284h8.457
	V60.381h-7.432v-2.636l-3.295,4.319c-1.953-1.488-4.355-2.855-7.213-4.101l4.285-5.894c2.244,1.025,4.32,2.136,6.223,3.332V53.242z"
	/>
<path fill="#FFFFFF" d="M273.095,74.407c-1.105,3.422-2.512,6.572-4.566,9.535c3.09-0.397,6.182-0.796,9.273-1.195
	c-1.842-1.647-3.686-3.295-5.527-4.942c0.309,2.386,0.617,4.771,0.924,7.156c2.375-3.616,4.148-7.513,5.684-11.551
	c-2.893,1.177-5.783,2.353-8.674,3.528c1.867,1.38,3.732,2.759,5.6,4.137c2.596,1.918,6.584,0.436,8.08-2.118
	c1.758-3.002,0.465-6.172-2.119-8.078c-1.867-1.38-3.732-2.759-5.6-4.138c-3.332-2.461-7.455,0.321-8.676,3.528
	c-1.172,3.082-2.684,5.975-4.492,8.73c-1.389,2.113-0.967,5.468,0.922,7.157c1.844,1.646,3.686,3.294,5.527,4.943
	c2.988,2.67,7.033,2.032,9.275-1.198c2.607-3.753,4.355-8.022,5.758-12.355C286.833,70.279,275.427,67.19,273.095,74.407"/>
<path fill="#FFFFFF" d="M275.308,62.025c-1.451,1.819-2.902,3.637-4.355,5.456c2.387-0.308,4.771-0.615,7.156-0.923
	c-2.123-1.631-4.426-2.927-6.846-4.063c0.398,3.091,0.797,6.183,1.195,9.275c1.428-1.844,2.855-3.686,4.283-5.528
	c-2.387,0.308-4.771,0.615-7.156,0.922c2.41,1.217,4.719,2.57,6.92,4.136c2.627,1.87,6.563,0.472,8.078-2.118
	c1.736-2.965,0.498-6.217-2.119-8.079c-2.199-1.566-4.508-2.92-6.918-4.136c-2.154-1.087-5.49-1.229-7.156,0.923
	c-1.43,1.843-2.855,3.686-4.283,5.528c-2.117,2.731-2.605,7.49,1.195,9.275c2.418,1.137,4.723,2.433,6.846,4.063
	c1.91,1.468,5.668,0.941,7.156-0.923c1.451-1.817,2.904-3.637,4.355-5.456c2.008-2.513,2.467-5.887,0-8.352
	C281.575,59.941,277.321,59.506,275.308,62.025"/>
<path fill="#FFFFFF" d="M279.228,59.147h22.406l-5.906-5.905v7.139l5.906-5.905h-7.836c-3.219,0-5.904,2.687-5.904,5.905v18.122
	c0,3.219,2.686,5.905,5.904,5.905h8.568l-5.906-5.905v7.284l5.906-5.905h-24.164l5.906,5.905v-7.284l-5.906,5.905h8.457
	c3.219,0,5.906-2.687,5.906-5.905V60.381c0-3.219-2.688-5.905-5.906-5.905h-7.432l5.906,5.905v-2.636
	c0-6.393-7.658-7.369-11.006-2.98c-1.098,1.439-2.197,2.879-3.293,4.32c2.693-0.707,5.385-1.413,8.08-2.119
	c-2.262-1.649-4.666-2.949-7.215-4.101c0.707,2.693,1.414,5.386,2.119,8.079c1.428-1.964,2.855-3.929,4.283-5.894
	c-2.693,0.707-5.385,1.413-8.078,2.119c2.139,1.009,4.203,2.103,6.223,3.332c3.85,2.341,8.887-0.683,8.887-5.099v-2.16
	c0-7.617-11.811-7.617-11.811,0v2.16c2.961-1.699,5.922-3.399,8.885-5.099c-2.02-1.229-4.084-2.323-6.223-3.332
	c-3.145-1.482-6.057-0.666-8.08,2.119c-1.428,1.964-2.855,3.928-4.283,5.893c-1.756,2.416-0.617,6.843,2.119,8.08
	c2.547,1.153,4.949,2.452,7.211,4.101c2.828,2.063,6.293,0.229,8.08-2.119c1.098-1.439,2.197-2.879,3.295-4.319l-11.004-2.98v2.636
	c0,3.219,2.686,5.905,5.904,5.905h7.432l-5.906-5.905v18.122l5.906-5.905h-8.457c-3.219,0-5.904,2.686-5.904,5.905v7.284
	c0,3.22,2.686,5.906,5.904,5.906h24.164c3.219,0,5.904-2.687,5.904-5.906v-7.284c0-3.22-2.686-5.905-5.904-5.905h-8.568l5.906,5.905
	V60.381l-5.906,5.905h7.836c3.219,0,5.906-2.686,5.906-5.905v-7.139c0-3.22-2.688-5.905-5.906-5.905h-22.406
	C271.61,47.336,271.61,59.147,279.228,59.147"/>
<path fill="#FFFFFF" d="M94.9,119.644v-2.782v-2.746V97.128h3.185h3.222h6.772h3.185h3.222v16.987v2.746v2.782h-5.858v5.345
	c0.025,0.27,0.16,0.403,0.404,0.403h0.622c0.512,0,0.77-0.257,0.77-0.77v-3.953l5.235,2.05v3.478c0,3.929-1.026,5.895-3.076,5.895
	h-7.504c-1.709,0-2.563-0.855-2.563-2.563v-6.518c-1.049,2.074-2.173,3.746-3.369,5.016c-1.44,1.514-3.441,2.966-6.004,4.357
	l-4.063-3.991c-2.538,0.903-5.052,1.538-7.542,1.904l-0.622-6.993c1.268-0.293,2.538-0.598,3.807-0.915v-6.626h-3.039v-6.552h3.039
	v-5.017h-3.039v-6.553h12.009v6.553h-2.417v5.017h2.563v6.552h-2.563v4.541c0.829-0.317,1.66-0.637,2.489-0.953v4.575
	c0-0.023,0.012-0.035,0.037-0.035c1.293-1.002,2.538-2.417,3.734-4.247H94.9z M102.515,121.51v-1.866H99.33L102.515,121.51z
	 M108.08,102.659h-6.773v0.915h6.773V102.659z M108.08,107.929h-6.773v0.915h6.773V107.929z M101.307,114.116h6.773v-0.915h-6.773
	V114.116z"/>
<path fill="#FFFFFF" d="M100.806,119.644V97.128l-5.905,5.905h19.586l-5.905-5.905v22.516l5.905-5.906h-5.857
	c-3.219,0-5.905,2.687-5.905,5.906c0,4.631-0.337,11.653,6.308,11.653c6.633,0,7.297-5.453,7.297-10.628
	c-2.492,1.897-4.984,3.795-7.476,5.694c1.746,0.683,3.49,1.366,5.235,2.05c-1.445-1.898-2.891-3.798-4.335-5.694v3.285
	c0,0.646-0.004,1.268-0.13,1.896c0.377-1.884,4.555-1.715,2.18-1.715c-2.533,0-5.127,0.178-7.647-0.103
	c0.994,0.269,1.987,0.536,2.98,0.806c0.194,0.194,0.387,0.388,0.581,0.58c0.269,0.993,0.538,1.987,0.806,2.982
	c-0.272-2.453-0.102-4.976-0.102-7.44c0-5.735-8.191-8.252-11.004-2.98c-1.841,3.449-3.859,5.327-7.254,7.254
	c2.386,0.308,4.772,0.614,7.156,0.923l-4.062-3.99c-1.44-1.413-3.769-2.188-5.746-1.518c-2.479,0.839-4.959,1.478-7.542,1.903
	c2.491,1.898,4.983,3.795,7.475,5.694c-0.207-2.332-0.415-4.663-0.622-6.993c-1.446,1.898-2.891,3.797-4.336,5.695
	c1.271-0.298,2.54-0.604,3.808-0.914c2.541-0.628,4.335-3.123,4.335-5.696v-6.626c0-3.22-2.685-5.905-5.905-5.905h-3.038
	l5.905,5.905v-6.552l-5.905,5.905h3.038c3.22,0,5.905-2.687,5.905-5.905v-5.017c0-3.22-2.685-5.906-5.905-5.906h-3.038l5.905,5.906
	v-6.553l-5.905,5.905h12.008l-5.906-5.905v6.553l5.906-5.906h-2.417c-3.219,0-5.905,2.687-5.905,5.906v5.017
	c0,3.219,2.687,5.905,5.905,5.905h2.563l-5.905-5.905v6.552l5.905-5.905h-2.563c-3.219,0-5.905,2.686-5.905,5.905v4.541
	c0,3.556,3.827,7.088,7.475,5.692c0.83-0.317,1.66-0.634,2.489-0.951c-2.491-1.899-4.983-3.797-7.475-5.694v4.575
	c0,5.173,6.426,7.793,10.081,4.177c1.753-1.735,3.281-3.431,4.694-5.479c2.603-3.772-0.877-8.886-5.099-8.886H94.9
	c-7.617,0-7.617,11.812,0,11.812h2.636l-5.099-8.886c-0.836,1.212-1.814,2.065-2.849,3.088c3.361,1.391,6.722,2.783,10.082,4.175
	v-4.575c0-3.558-3.828-7.089-7.476-5.694c-0.83,0.316-1.659,0.635-2.49,0.951c2.492,1.898,4.983,3.796,7.476,5.696v-4.541
	l-5.905,5.905h2.563c3.218,0,5.905-2.687,5.905-5.905v-6.552c0-3.221-2.687-5.905-5.905-5.905h-2.563l5.905,5.905v-5.017
	l-5.905,5.905h2.417c3.219,0,5.905-2.686,5.905-5.905v-6.553c0-3.219-2.687-5.906-5.905-5.906H81.684
	c-3.219,0-5.906,2.688-5.906,5.906v6.553c0,3.22,2.687,5.905,5.906,5.905h3.038l-5.905-5.905v5.017l5.905-5.905h-3.038
	c-3.219,0-5.906,2.685-5.906,5.905v6.552c0,3.219,2.687,5.905,5.906,5.905h3.038l-5.905-5.905v6.626
	c1.446-1.898,2.891-3.797,4.336-5.693c-1.268,0.312-2.537,0.617-3.808,0.915c-2.377,0.557-4.559,3.182-4.335,5.693
	c0.207,2.33,0.415,4.661,0.622,6.993c0.365,4.093,3.472,6.355,7.476,5.695c2.583-0.427,5.064-1.067,7.542-1.904
	c-1.915-0.508-3.831-1.013-5.746-1.52l4.063,3.991c1.913,1.879,4.828,2.245,7.157,0.922c5.007-2.841,8.768-6.39,11.49-11.49
	l-11.004-2.98c0,2.857-0.455,6.215,0.313,9.009c1.422,5.17,6.208,5.977,10.796,5.977c3.439,0,8.273,0.634,10.748-2.384
	c3.139-3.829,3.096-8.19,3.096-12.894c0-2.837-1.85-4.722-4.336-5.694c-1.745-0.684-3.49-1.367-5.234-2.051
	c-3.642-1.425-7.476,2.161-7.476,5.695v1.977c0,0.776-0.504,2.554,0.019,0.982l4.125-4.124c0.786-0.014,0.909-0.021,0.371-0.018
	c1.392,0.576,2.784,1.153,4.175,1.728c-0.134-0.134-0.268-0.268-0.402-0.403c0.577,1.396,1.153,2.785,1.73,4.178v-5.345
	l-5.905,5.905h5.857c3.219,0,5.905-2.686,5.905-5.905V97.128c0-3.22-2.687-5.905-5.905-5.905H94.9c-3.219,0-5.906,2.686-5.906,5.905
	v22.516C88.995,127.26,100.806,127.26,100.806,119.644"/>
<path fill="#FFFFFF" d="M108.42,121.511v-1.867c0-3.219-2.687-5.906-5.905-5.906H99.33c-2.626,0-4.998,1.803-5.694,4.336
	c-0.704,2.556,0.431,5.331,2.714,6.668c1.062,0.623,2.123,1.246,3.185,1.869c2.778,1.628,6.456,0.653,8.079-2.121
	c1.628-2.777,0.654-6.453-2.119-8.078c-1.062-0.623-2.123-1.246-3.185-1.866l-2.98,11.004h3.185l-5.906-5.905v1.867
	c0,3.22,2.687,5.905,5.906,5.905C105.734,127.417,108.42,124.731,108.42,121.511"/>
<path fill="#FFFFFF" d="M113.985,103.573v-0.914c0-3.222-2.687-5.905-5.905-5.905h-6.773c-3.219,0-5.905,2.684-5.905,5.905v0.914
	c0,3.219,2.686,5.905,5.905,5.905h6.773C111.298,109.478,113.985,106.792,113.985,103.573c0-3.221-2.687-5.905-5.905-5.905h-6.773
	l5.905,5.905v-0.914l-5.905,5.905h6.773l-5.905-5.905v0.914c0,3.219,2.687,5.905,5.905,5.905S113.985,106.792,113.985,103.573"/>
<path fill="#FFFFFF" d="M113.985,108.845v-0.915c0-3.221-2.687-5.905-5.905-5.905h-6.773c-3.219,0-5.905,2.685-5.905,5.905v0.915
	c0,3.218,2.686,5.905,5.905,5.905h6.773C111.298,114.75,113.985,112.063,113.985,108.845c0-3.222-2.687-5.905-5.905-5.905h-6.773
	l5.905,5.905v-0.915l-5.905,5.905h6.773l-5.905-5.905v0.915c0,3.218,2.687,5.905,5.905,5.905S113.985,112.063,113.985,108.845"/>
<path fill="#FFFFFF" d="M95.401,113.202v0.914c0,3.22,2.687,5.905,5.906,5.905h6.773c3.219,0,5.905-2.686,5.905-5.905v-0.914
	c0-3.22-2.687-5.905-5.905-5.905h-6.773C98.088,107.296,95.401,109.982,95.401,113.202c0,3.219,2.687,5.905,5.906,5.905h6.773
	l-5.905-5.905v0.914l5.905-5.905h-6.773l5.905,5.905v-0.914c0-3.22-2.687-5.905-5.905-5.905
	C98.088,107.296,95.401,109.982,95.401,113.202"/>
<path fill="#FFFFFF" d="M130.997,132.676l-2.893-3.258c5.711-2.147,9.995-4.869,12.851-8.163h-0.878
	c-1.977,2.099-3.93,3.709-5.857,4.831c-2.172,1.22-4.918,2.246-8.237,3.076l-1.941-3.551c4.027-1.343,7.322-2.796,9.885-4.356
	h-1.171c-1.807,0.977-3.967,1.867-6.479,2.671l-0.403-0.584c-2.026,0.952-4.063,1.695-6.113,2.233l-1.209-6.92
	c1.099-0.366,2.197-0.733,3.295-1.1v-6.845h-2.672v-6.701h2.672v-7.65h6.406v7.65h2.05v5.858h23.138v5.234h-13.912
	c-0.27,0.294-0.525,0.599-0.769,0.915h7.98h2.892h2.929v6.519c-0.024,2.294-0.451,4.282-1.282,5.967
	c-0.708,1.487-1.647,2.501-2.819,3.038c-1.855,0.829-4.466,1.063-7.833,0.695l-1.025-4.063
	C137.33,129.833,134.462,131.333,130.997,132.676 M129.423,110.711h-1.172v4.209c0.39-0.195,0.781-0.379,1.172-0.549V110.711z
	 M132.572,115.103h-2.087v1.575c0.341-0.268,0.67-0.487,0.988-0.66C131.838,115.726,132.205,115.421,132.572,115.103
	 M144.834,109.027h-6.772h-3.369h-3.331V97.054h3.331h3.369h6.772h3.333h3.368v11.973h-3.368H144.834z M144.834,100.68h-6.773v0.842
	h6.773V100.68z M138.063,105.403h6.773v-0.988h-6.773V105.403z M145.091,125.245c0.903-0.535,1.428-1.865,1.574-3.989h-0.549
	c-1.172,1.709-2.38,3.186-3.625,4.429C143.761,125.684,144.628,125.538,145.091,125.245"/>
<path fill="#FFFFFF" d="M135.172,128.499c-0.964-1.085-1.929-2.171-2.892-3.256c-0.869,3.289-1.737,6.58-2.605,9.87
	c5.763-2.256,11.228-5.05,15.455-9.683c3.406-3.734,1.153-10.08-4.176-10.08c-3.725,0-5.39,2.254-8.001,4.512
	c-2.336,2.021-5.642,2.838-8.541,3.606c2.223,0.904,4.446,1.809,6.669,2.715c-0.647-1.185-1.293-2.368-1.941-3.551
	c-1.176,2.891-2.353,5.781-3.53,8.674c3.893-1.337,7.739-2.867,11.296-4.954c5.07-2.971,2.904-11.002-2.98-11.002
	c-3.326,0-6.118,1.845-9.221,2.881c2.223,0.905,4.445,1.812,6.668,2.714c-0.134-0.194-0.269-0.39-0.402-0.584
	c-1.974-2.87-4.968-3.515-8.079-2.118c-1.526,0.685-3.097,1.185-4.703,1.638l7.264,4.124c-0.402-2.307-0.806-4.611-1.208-6.918
	c-1.375,2.42-2.75,4.842-4.125,7.264c1.098-0.367,2.197-0.732,3.295-1.1c2.512-0.837,4.335-2.96,4.335-5.694v-6.845
	c0-3.22-2.686-5.905-5.906-5.905h-2.672l5.906,5.905v-6.701l-5.906,5.905h2.672c3.22,0,5.906-2.685,5.906-5.905v-7.65l-5.906,5.906
	h6.407l-5.905-5.906v7.65c0,3.221,2.687,5.905,5.905,5.905h2.051l-5.905-5.905v5.858c0,3.221,2.687,5.905,5.905,5.905h23.138
	l-5.906-5.905v5.234l5.906-5.905h-8.111c-3.926,0-7.931-0.704-10.746,2.646c-3.194,3.801-1.311,10.08,4.176,10.08h13.802
	l-5.905-5.905c0,2.868,0.334,5.942-0.269,8.748c-0.55,2.561-3.204,1.784-5.761,1.564c1.898,1.446,3.797,2.893,5.694,4.337
	c-0.341-1.354-0.683-2.709-1.025-4.063c-0.88-3.489-5.554-5.713-8.675-3.529c-2.25,1.574-4.641,2.882-7.192,3.907
	c-2.984,1.2-5.052,3.894-4.125,7.265c0.781,2.837,4.273,5.326,7.264,4.124c3.512-1.411,6.904-2.924,10.015-5.099
	c-2.892-1.176-5.784-2.352-8.674-3.528c0.34,1.354,0.682,2.709,1.024,4.063c0.682,2.705,3.09,4.113,5.694,4.336
	c5.484,0.473,12.175-0.262,15.179-5.632c2.911-5.205,2.662-10.713,2.662-16.492c0-3.218-2.687-5.905-5.905-5.905h-13.802
	c1.392,3.36,2.783,6.722,4.175,10.082c0.257-0.306,0.513-0.609,0.769-0.915c-1.391,0.575-2.784,1.152-4.175,1.729h13.913
	c3.218,0,5.905-2.686,5.905-5.905v-5.234c0-3.219-2.687-5.905-5.905-5.905h-23.138l5.905,5.905v-5.858
	c0-3.218-2.687-5.905-5.905-5.905h-2.051l5.906,5.905v-7.65c0-3.218-2.687-5.905-5.906-5.905h-6.407
	c-3.219,0-5.905,2.688-5.905,5.905v7.65l5.905-5.905h-2.672c-3.219,0-5.905,2.688-5.905,5.905v6.701
	c0,3.219,2.687,5.905,5.905,5.905h2.672l-5.905-5.905v6.845c1.446-1.897,2.891-3.796,4.336-5.694
	c-1.099,0.365-2.197,0.734-3.295,1.1c-3.277,1.093-4.702,3.956-4.125,7.264c0.402,2.307,0.806,4.613,1.208,6.92
	c0.553,3.158,4.394,4.936,7.265,4.125c2.599-0.735,5.063-1.725,7.524-2.83l-8.079-2.118c0.134,0.195,0.269,0.391,0.402,0.585
	c1.452,2.111,4.04,3.592,6.668,2.714c2.706-0.902,5.354-1.958,7.891-3.269c-0.994,0.27-1.988,0.539-2.98,0.809h1.172
	c-0.994-3.667-1.988-7.338-2.981-11.006c-2.706,1.587-5.512,2.746-8.474,3.763c-3.655,1.255-5.441,5.179-3.529,8.675
	c0.647,1.184,1.294,2.366,1.941,3.551c1.272,2.328,4.163,3.379,6.668,2.714c6.556-1.739,11.937-4.556,16.701-9.427
	c-1.392,0.576-2.784,1.153-4.176,1.73h0.877c-1.391-3.36-2.783-6.721-4.175-10.083c-2.824,3.099-6.358,5.127-10.244,6.646
	c-4.21,1.648-5.749,6.331-2.605,9.872c0.963,1.086,1.927,2.172,2.892,3.257C131.887,142.559,140.209,134.174,135.172,128.499"/>
<path fill="#FFFFFF" d="M129.423,104.806h-1.172c-3.219,0-5.905,2.686-5.905,5.905v4.209c0,2.082,1.129,4.048,2.925,5.1
	c1.921,1.126,4.029,0.952,5.961,0c0.387-0.19,0.777-0.373,1.171-0.55c1.84-0.816,2.925-3.196,2.925-5.099v-3.66
	C135.328,107.492,132.642,104.806,129.423,104.806s-5.906,2.686-5.906,5.905v3.66l2.925-5.098c-0.395,0.175-0.784,0.356-1.171,0.548
	c2.962,1.7,5.923,3.4,8.886,5.099v-4.209l-5.906,5.905h1.172c3.219,0,5.905-2.686,5.905-5.905S132.642,104.806,129.423,104.806"/>
<path fill="#FFFFFF" d="M132.571,109.199h-2.086c-3.219,0-5.906,2.686-5.906,5.905v1.575c0,2.082,1.129,4.046,2.925,5.098
	c0.92,0.534,1.915,0.803,2.98,0.808c1.066-0.005,2.06-0.273,2.98-0.808c0.165-0.127,0.332-0.249,0.503-0.364
	c0.603-0.412,1.034-0.698,1.681-1.217c0.371-0.299,0.738-0.605,1.098-0.915c1.14-0.984,1.73-2.713,1.73-4.177
	c0-1.56-0.626-3.073-1.73-4.176C135.644,109.827,134.131,109.199,132.571,109.199c-1.656,0-2.955,0.676-4.175,1.729
	c-0.362,0.313-0.727,0.616-1.099,0.914c0.399-0.307,0.796-0.614,1.195-0.921c-0.348,0.192-0.673,0.414-0.988,0.657
	c2.962,1.699,5.923,3.4,8.886,5.101v-1.575l-5.905,5.905h2.086c3.219,0,5.905-2.686,5.905-5.905S135.79,109.199,132.571,109.199"/>
<path fill="#FFFFFF" d="M144.835,103.123h-13.472l5.905,5.905V97.055l-5.905,5.905h20.172l-5.905-5.905v11.973l5.905-5.905H144.835
	c-7.616,0-7.616,11.811,0,11.811h6.7c3.219,0,5.905-2.687,5.905-5.905V97.055c0-3.218-2.687-5.905-5.905-5.905h-20.172
	c-3.219,0-5.905,2.688-5.905,5.905v11.973c0,3.219,2.686,5.905,5.905,5.905h13.472C152.452,114.933,152.452,103.123,144.835,103.123
	"/>
<path fill="#FFFFFF" d="M150.74,101.522v-0.842c0-3.219-2.686-5.905-5.905-5.905h-6.773c-3.219,0-5.905,2.687-5.905,5.905v0.842
	c0,3.221,2.687,5.905,5.905,5.905h6.773C148.054,107.427,150.74,104.743,150.74,101.522c0-3.22-2.686-5.905-5.905-5.905h-6.773
	l5.905,5.905v-0.842l-5.905,5.905h6.773l-5.905-5.905v0.842c0,3.221,2.687,5.905,5.905,5.905
	C148.054,107.427,150.74,104.743,150.74,101.522"/>
<path fill="#FFFFFF" d="M132.157,104.415v0.988c0,3.221,2.687,5.906,5.905,5.906h6.773c3.219,0,5.905-2.686,5.905-5.906v-0.988
	c0-3.22-2.687-5.905-5.905-5.905h-6.773C134.844,98.509,132.157,101.195,132.157,104.415s2.687,5.905,5.905,5.905h6.773
	l-5.905-5.905v0.988l5.905-5.905h-6.773l5.905,5.905v-0.988c0-3.22-2.687-5.905-5.905-5.905
	C134.844,98.509,132.157,101.195,132.157,104.415"/>
<path fill="#FFFFFF" d="M148.072,130.343c3.227-2.103,4.21-5.44,4.499-9.089c0.255-3.214-2.878-5.905-5.905-5.905
	c-1.239,0-2.429,0.162-3.53,0.806c-1.476,0.865-2.294,2.428-3.302,3.749c0.308-0.397,0.615-0.796,0.923-1.194
	c-0.761,0.98-1.568,1.916-2.44,2.799c-3.585,3.63-1.019,10.133,4.176,10.081C144.435,131.571,146.356,131.312,148.072,130.343
	c2.799-1.579,3.726-5.334,2.118-8.08c-1.643-2.806-5.275-3.7-8.079-2.117c-0.085,0.052-0.173,0.098-0.266,0.134l1.41-0.595
	c-0.313,0.114-0.627,0.179-0.958,0.229c0.524-0.071,1.047-0.143,1.57-0.211c-0.458,0.051-0.915,0.07-1.376,0.074
	c1.392,3.361,2.784,6.721,4.175,10.083c1.695-1.717,3.178-3.646,4.548-5.625l-5.099,2.924h0.549l-5.905-5.905
	c-0.024,0.303-0.054,0.603-0.091,0.902c0.07-0.524,0.14-1.047,0.21-1.569c-0.098,0.649-0.238,1.275-0.494,1.88
	c0.2-0.47,0.398-0.938,0.596-1.409c-0.111,0.232-0.234,0.446-0.384,0.654c0.308-0.397,0.616-0.796,0.924-1.194
	c-0.144,0.175-0.293,0.325-0.473,0.465c0.398-0.308,0.796-0.615,1.195-0.925c-0.044,0.03-0.089,0.06-0.132,0.088
	c-2.692,1.753-3.805,5.201-2.119,8.079C141.56,130.9,145.372,132.103,148.072,130.343"/>
<path fill="#FFFFFF" d="M159.772,109.614h-3.258v-6.847h3.258v-6.261h6.406v6.261h1.904v6.847h-1.904v3.148l2.05-0.329v6.844
	l-2.05,0.329v7.433c0,3.417-2.049,5.125-6.15,5.125h-1.793l-1.977-6.847h2.379c0.756,0,1.135-0.375,1.135-1.134v-3.587l-3.112,0.439
	v-6.848l3.112-0.437V109.614z M183.787,102.547h2.893h2.929v29.544h-5.822v-1.465h-8.822v1.465h-5.821v-23.138v-3.223v-3.184h7.249
	v-6.041h5.967v6.041H183.787z M176.393,108.954h-1.428v4.504h1.428V108.954z M176.393,119.717h-1.428v4.503h1.428V119.717z
	 M182.36,113.458h1.427v-4.504h-1.427V113.458z M182.36,124.22h1.427v-4.503h-1.427V124.22z"/>
<path fill="#FFFFFF" d="M159.772,103.708h-3.258l5.905,5.905v-6.847l-5.905,5.906h3.258c3.219,0,5.905-2.688,5.905-5.906v-6.26
	l-5.905,5.905h6.406l-5.905-5.905v6.26c0,3.219,2.686,5.906,5.905,5.906h1.904l-5.905-5.906v6.847l5.905-5.905h-1.904
	c-3.219,0-5.905,2.685-5.905,5.905v3.147c0,4.155,3.747,6.293,7.475,5.695c0.684-0.11,1.367-0.221,2.05-0.33
	c-2.491-1.899-4.983-3.797-7.475-5.694v6.845c1.445-1.897,2.891-3.796,4.335-5.694c-0.684,0.111-1.367,0.22-2.05,0.329
	c-2.556,0.41-4.336,3.289-4.336,5.694v6.658c0,1.565,0.066,0.221,1.083-0.175c-0.888,0.345-2.159,0.17-3.121,0.17
	c1.898,1.444,3.796,2.89,5.694,4.335c-0.659-2.282-1.318-4.564-1.976-6.847c-1.898,2.493-3.796,4.984-5.694,7.476
	c2.864,0,5.381-0.052,7.563-2.233c2.229-2.228,1.856-5.522,1.856-8.395c0-4.208-3.747-6.221-7.476-5.694
	c-1.038,0.146-2.074,0.294-3.111,0.438c2.491,1.899,4.983,3.797,7.475,5.696v-6.847c-1.445,1.899-2.891,3.797-4.335,5.695
	c1.038-0.147,2.075-0.293,3.113-0.44c2.556-0.36,4.335-3.324,4.335-5.692v-4.138c0-7.618-11.811-7.618-11.811,0v4.138
	c1.445-1.9,2.89-3.798,4.335-5.696c-1.038,0.146-2.074,0.293-3.111,0.438c-2.557,0.362-4.336,3.326-4.336,5.696v6.847
	c0,4.209,3.748,6.22,7.476,5.694c1.038-0.147,2.075-0.294,3.113-0.439c-2.492-1.897-4.983-3.797-7.476-5.695v2.878
	c0,3.127,7.201-4.062,3.933-4.062h-1.542c-3.803,0-6.762,3.777-5.694,7.477c0.658,2.282,1.317,4.563,1.976,6.847
	c0.73,2.528,3.043,4.335,5.695,4.335c6.074,0,11.252-1.581,13.435-7.769c1.1-3.115,0.415-7.455,0.415-10.695
	c-1.445,1.899-2.891,3.798-4.335,5.695c0.684-0.11,1.367-0.22,2.05-0.329c2.556-0.411,4.336-3.286,4.336-5.695v-6.845
	c0-4.154-3.747-6.292-7.475-5.694c-0.684,0.108-1.367,0.22-2.05,0.329c2.491,1.898,4.983,3.795,7.475,5.694v-3.147l-5.905,5.905
	h1.904c3.22,0,5.905-2.687,5.905-5.905v-6.847c0-3.22-2.686-5.905-5.905-5.905h-1.904l5.905,5.905v-6.26
	c0-3.22-2.686-5.906-5.905-5.906h-6.406c-3.219,0-5.905,2.687-5.905,5.906v6.26l5.905-5.905h-3.258c-3.22,0-5.905,2.686-5.905,5.905
	v6.847c0,3.219,2.686,5.905,5.905,5.905h3.258C167.388,115.519,167.388,103.708,159.772,103.708"/>
<path fill="#FFFFFF" d="M183.788,108.453h5.821l-5.905-5.905v29.543l5.905-5.905h-5.821l5.905,5.905v-1.464
	c0-3.219-2.686-5.905-5.905-5.905h-8.823c-3.219,0-5.905,2.687-5.905,5.905v1.464l5.905-5.905h-5.821l5.905,5.905v-29.543
	l-5.905,5.905h7.249c3.219,0,5.905-2.685,5.905-5.905v-6.041l-5.905,5.905h5.967l-5.905-5.905v6.041
	c0,3.221,2.686,5.905,5.905,5.905H183.788c7.616,0,7.616-11.811,0-11.811h-1.428l5.905,5.905v-6.041
	c0-3.219-2.686-5.905-5.905-5.905h-5.967c-3.219,0-5.906,2.687-5.906,5.905v6.041l5.906-5.905h-7.249
	c-3.218,0-5.905,2.686-5.905,5.905v29.543c0,3.221,2.687,5.906,5.905,5.906h5.821c3.22,0,5.905-2.686,5.905-5.906v-1.464
	l-5.905,5.905h8.823l-5.905-5.905v1.464c0,3.221,2.687,5.906,5.905,5.906h5.821c3.219,0,5.906-2.686,5.906-5.906v-29.543
	c0-3.22-2.688-5.905-5.906-5.905h-5.821C176.171,96.642,176.171,108.453,183.788,108.453"/>
<path fill="#FFFFFF" d="M176.393,103.047h-1.428c-3.219,0-5.906,2.686-5.906,5.905v4.505c0,3.22,2.687,5.905,5.906,5.905h1.428
	c3.219,0,5.905-2.686,5.905-5.905v-4.505C182.298,105.733,179.612,103.047,176.393,103.047c-3.219,0-5.906,2.686-5.906,5.905v4.505
	l5.906-5.905h-1.428l5.905,5.905v-4.505l-5.905,5.906h1.428c3.219,0,5.905-2.687,5.905-5.906S179.612,103.047,176.393,103.047"/>
<path fill="#FFFFFF" d="M176.393,113.811h-1.428c-3.219,0-5.906,2.688-5.906,5.906v4.503c0,3.221,2.687,5.905,5.906,5.905h1.428
	c3.219,0,5.905-2.685,5.905-5.905v-4.503C182.298,116.499,179.612,113.811,176.393,113.811c-3.219,0-5.906,2.688-5.906,5.906v4.503
	l5.906-5.905h-1.428l5.905,5.905v-4.503l-5.905,5.905h1.428c3.219,0,5.905-2.687,5.905-5.905S179.612,113.811,176.393,113.811"/>
<path fill="#FFFFFF" d="M182.36,119.363h1.427c3.22,0,5.906-2.686,5.906-5.905v-4.505c0-3.22-2.686-5.905-5.906-5.905h-1.427
	c-3.219,0-5.906,2.686-5.906,5.905v4.505C176.454,116.677,179.141,119.363,182.36,119.363s5.905-2.686,5.905-5.905v-4.505
	l-5.905,5.906h1.427l-5.905-5.906v4.505l5.905-5.905h-1.427c-3.219,0-5.906,2.686-5.906,5.905S179.141,119.363,182.36,119.363"/>
<path fill="#FFFFFF" d="M182.36,130.125h1.427c3.22,0,5.906-2.685,5.906-5.905v-4.503c0-3.219-2.686-5.906-5.906-5.906h-1.427
	c-3.219,0-5.906,2.688-5.906,5.906v4.503C176.454,127.441,179.141,130.125,182.36,130.125s5.905-2.685,5.905-5.905v-4.503
	l-5.905,5.905h1.427l-5.905-5.905v4.503l5.905-5.905h-1.427c-3.219,0-5.906,2.686-5.906,5.905
	C176.454,127.441,179.141,130.125,182.36,130.125"/>
<path fill="#FFFFFF" d="M215.856,123.817v-5.272h-5.453v-6.844h5.453v-3.919h0.953l1.793-3.222h-8.016
	c-0.221,7.81-1.111,13.182-2.674,16.108l3.039,2.233l-3.295,6.553l-3.625-2.855c-1.635,1.929-3.635,3.929-6.004,6.005l-4.867-5.454
	c2.195-1.66,4.039-3.271,5.527-4.834l-5.455-4.319c1.195-3.003,2.172-5.943,2.928-8.823h-2.451v-6.847h3.77
	c0.27-1.976,0.414-3.892,0.439-5.746h6.662c-0.096,1.929-0.256,3.844-0.475,5.746h0.256h3.111h2.93v-4.758h15.74v6.991l-3.586,6.298
	v0.036v0.807h5.125v6.844h-5.125v8.567c0,3.416-2.051,5.125-6.15,5.125h-3.697l-1.979-7.284h3.992
	C215.478,124.953,215.856,124.574,215.856,123.817 M202.825,115.764c0.561-1.904,0.965-4.101,1.207-6.591h-1.063
	c-0.488,2.245-1.072,4.443-1.756,6.591l1.244,0.914C202.604,116.362,202.728,116.055,202.825,115.764"/>
<path fill="#FFFFFF" d="M221.763,123.817v-5.271c0-3.219-2.686-5.905-5.904-5.905h-5.455l5.904,5.905V111.7l-5.904,5.905h5.455
	c3.219,0,5.904-2.686,5.904-5.905v-3.917l-5.904,5.905h0.951c2.047,0,4.092-1.118,5.1-2.926c0.598-1.073,1.195-2.147,1.793-3.223
	c2.166-3.888-0.553-8.884-5.1-8.884h-8.016c-3.303,0-5.797,2.689-5.906,5.905c-0.141,4.132-0.139,9.626-1.867,13.128
	c-1.541,3.125-0.617,6.066,2.119,8.078c1.014,0.746,2.025,1.49,3.039,2.234c-0.707-2.692-1.412-5.387-2.119-8.079
	c-1.098,2.183-2.195,4.369-3.295,6.553c3.092-0.399,6.184-0.798,9.273-1.196c-1.207-0.951-2.414-1.903-3.623-2.855
	c-2.387-1.882-6.053-2.626-8.352,0c-1.873,2.143-3.883,4.107-6.004,6.004h8.352c-1.623-1.816-3.246-3.636-4.867-5.454v8.352
	c1.947-1.506,3.797-3.078,5.525-4.834c2.063-2.091,2.541-6.34,0-8.352c-1.818-1.438-3.637-2.879-5.453-4.317
	c0.506,1.913,1.012,3.83,1.52,5.745c1.125-2.897,2.109-5.824,2.928-8.824c1.012-3.705-1.85-7.476-5.695-7.476h-2.451l5.906,5.906
	v-6.847l-5.906,5.906h3.771c3.51,0,5.516-2.71,5.904-5.906c0.232-1.916,0.381-3.817,0.438-5.747l-5.904,5.905h6.662l-5.906-5.905
	c-0.111,1.922-0.27,3.834-0.475,5.747c-0.342,3.208,2.947,5.906,5.906,5.906h6.297c3.219,0,5.904-2.685,5.904-5.906v-4.759
	l-5.904,5.906h15.74l-5.904-5.906v6.993l0.807-2.981c-1.781,3.127-4.395,6.404-4.395,10.12c0,3.22,2.686,5.905,5.906,5.905h5.125
	l-5.906-5.905v6.846l5.906-5.905h-5.125c-3.221,0-5.906,2.687-5.906,5.905v8.24c0,0.086,0.027,0.346,0.01,0.452
	c0.24-1.272,2.166-1.002-0.254-0.907c-1.229,0.051-2.469,0-3.699,0c1.9,1.446,3.797,2.892,5.695,4.336l-1.977-7.285
	c-1.898,2.493-3.797,4.984-5.695,7.476c4.426,0,9.721,0.026,10.82-5.47c1.49-7.437-9.895-10.605-11.389-3.141
	c0.734-3.663,6.979-3.2,2.564-3.2h-1.996c-3.85,0-6.699,3.77-5.693,7.477l1.977,7.284c0.688,2.533,3.076,4.335,5.693,4.335
	c6.008,0,12.736-0.387,15.086-7.046c1.34-3.798,0.668-8.588,0.668-12.551l-5.904,5.905h5.125c3.219,0,5.904-2.687,5.904-5.905V111.7
	c0-3.219-2.686-5.905-5.904-5.905h-5.125l5.904,5.905v-0.842l-0.805,2.98c1.371-2.406,3.439-5.011,4.182-7.708
	c0.723-2.627,0.211-5.871,0.211-8.563c0-3.22-2.686-5.905-5.906-5.905h-15.74c-3.219,0-5.906,2.686-5.906,5.905v4.759l5.906-5.905
	h-6.297l5.904,5.905c0.205-1.913,0.363-3.825,0.477-5.747c0.189-3.217-2.828-5.905-5.906-5.905h-6.662
	c-3.291,0-5.813,2.688-5.906,5.905c-0.057,1.93-0.205,3.831-0.438,5.747l5.906-5.905h-3.771c-3.221,0-5.906,2.687-5.906,5.905v6.847
	c0,3.219,2.686,5.905,5.906,5.905h2.451c-1.898-2.493-3.795-4.984-5.693-7.476c-0.82,2.999-1.803,5.927-2.93,8.823
	c-0.678,1.745,0.039,4.573,1.52,5.747c1.818,1.438,3.637,2.878,5.455,4.317v-8.352c-1.73,1.755-3.58,3.33-5.527,4.834
	c-2.651,2.048-1.93,6.191,0,8.352c1.621,1.818,3.244,3.635,4.867,5.456c2.23,2.496,6.061,2.047,8.352,0
	c2.121-1.896,4.131-3.863,6.004-6.005h-8.352c1.209,0.952,2.418,1.904,3.625,2.855c2.783,2.194,7.402,2.527,9.275-1.196
	c1.098-2.184,2.197-4.368,3.295-6.553c1.564-3.112,0.602-6.079-2.119-8.079c-1.014-0.744-2.025-1.489-3.039-2.234
	c0.707,2.693,1.412,5.388,2.119,8.08c2.898-5.876,3.258-12.646,3.479-19.088l-5.904,5.905h8.016l-5.1-8.887
	c-0.598,1.073-1.193,2.148-1.793,3.223l5.1-2.925h-0.951c-3.219,0-5.906,2.686-5.906,5.905v3.917l5.906-5.905h-5.455
	c-3.219,0-5.906,2.687-5.906,5.905v6.846c0,3.219,2.688,5.905,5.906,5.905h5.455l-5.906-5.905v5.271
	C209.952,131.435,221.763,131.435,221.763,123.817"/>
<path fill="#FFFFFF" d="M208.519,117.334c0.76-2.665,1.133-5.411,1.418-8.161c0.336-3.208-2.938-5.905-5.904-5.905h-1.063
	c-2.525,0-5.131,1.788-5.693,4.336c-0.492,2.223-1.076,4.418-1.758,6.589c-0.852,2.713,0.611,5.124,2.715,6.668
	c0.414,0.306,0.83,0.611,1.246,0.916c2.375,1.746,6.891,0.631,8.078-2.119C207.89,118.889,208.229,118.122,208.519,117.334
	c1.111-3.026-1.215-6.466-4.125-7.267c-3.299-0.907-6.154,1.107-7.264,4.125c0.078-0.164,0.152-0.33,0.229-0.495
	c2.695-0.707,5.389-1.413,8.08-2.119c-0.414-0.304-0.828-0.61-1.244-0.915c0.904,2.225,1.809,4.446,2.713,6.671
	c0.682-2.175,1.266-4.369,1.758-6.591c-1.898,1.444-3.797,2.89-5.695,4.335h1.063l-5.906-5.905c-0.012,0.13-0.25,1.998-0.059,0.645
	c-0.072,0.52-0.166,1.036-0.262,1.552c-0.174,0.953-0.41,1.893-0.676,2.823c-0.881,3.095,1.045,6.418,4.125,7.265
	C204.38,122.316,207.636,120.426,208.519,117.334"/>
<path fill="#FFFFFF" d="M240.788,132.237h-6.553v-10.689c-0.439,0.391-0.877,0.78-1.318,1.172l-2.744-7.028
	c2.83-2.223,5.088-5.249,6.771-9.081h-5.602v-6.699h2.746V96.36h6.553v3.551h2.637v6.699c-0.611,1.954-1.33,3.822-2.16,5.602
	c0.732,0.636,1.33,1.112,1.793,1.429c0.172,0.122,0.367,0.269,0.586,0.439v-1.43h21.527v5.238h-19.988l-2.381,3.733
	c-0.707-0.488-1.33-0.915-1.867-1.283V132.237z M246.976,125.356h-1.83v-6.847h3.184h3.223h5.455h3.186h3.221v6.847h-1.758
	c-0.121,0.462-0.195,0.914-0.219,1.354h3.588v5.526h-21.381v-5.526h3.516C247.06,126.246,246.999,125.794,246.976,125.356
	 M260.228,112.103h-15.961v-1.831v-1.794v-3.33v-1.026v-1.392v-2.123V98.52h5.125v-2.014h4.064v2.014h1.354v-2.014h4.064v2.014
	h1.354h1.867h1.904v5.602v1.026v6.955h-1.904H260.228z M249.392,102.73h-1.355v1.355h1.355V102.73z M249.392,107.125h-1.355v1.354
	h1.355V107.125z M257.007,121.401h-5.455v1.061h5.455V121.401z M255.212,126.71c0.098-0.44,0.195-0.893,0.293-1.354h-2.379
	c0.072,0.511,0.121,0.964,0.146,1.354H255.212z M254.81,102.73h-1.354v1.355h1.354V102.73z M254.81,107.125h-1.354v1.354h1.354
	V107.125z M258.874,104.084h1.354v-1.354h-1.354V104.084z M260.228,107.125h-1.355v1.354h1.355V107.125z"/>
<path fill="#FFFFFF" d="M240.788,126.331h-6.553l5.904,5.906v-10.689c0-5.378-6.324-7.514-10.08-4.176
	c-0.439,0.391-0.879,0.781-1.318,1.171c3.291,0.869,6.582,1.737,9.871,2.606c-0.916-2.343-1.83-4.686-2.746-7.028
	c-0.506,1.915-1.014,3.831-1.52,5.745c3.354-2.781,5.869-6.339,7.697-10.275c1.832-3.947-0.303-8.886-5.1-8.886h-5.602l5.906,5.905
	v-6.699l-5.906,5.906h2.746c3.219,0,5.906-2.688,5.906-5.906V96.36l-5.906,5.906h6.553l-5.904-5.906v3.551
	c0,3.219,2.686,5.906,5.904,5.906h2.637l-5.906-5.906v4.489c0,2.269-0.32,2.53-1.354,4.832c-1.023,2.281-1.242,5.347,0.924,7.155
	c1.162,0.972,2.363,1.883,3.576,2.789c3.709,2.781,8.885-1.007,8.885-5.098v-1.429l-5.906,5.906h21.527l-5.906-5.906v5.237
	l5.906-5.905h-14.807h-5.182c-3.971,0-5.654,3.792-7.479,6.658c2.693-0.707,5.385-1.413,8.078-2.119
	c-0.621-0.427-1.244-0.854-1.867-1.281c-3.777-2.587-8.887,0.867-8.887,5.099v11.898c0,7.617,11.811,7.617,11.811,0v-11.898
	c-2.961,1.701-5.922,3.4-8.885,5.099c0.623,0.426,1.246,0.854,1.867,1.281c2.729,1.876,6.449,0.442,8.08-2.116
	c0.793-1.244,1.586-2.49,2.381-3.734l-5.1,2.925h19.988c3.219,0,5.904-2.688,5.904-5.905v-5.237c0-3.218-2.686-5.905-5.904-5.905
	h-21.527c-3.219,0-5.904,2.688-5.904,5.905v1.429c2.961-1.699,5.924-3.399,8.887-5.099c-0.414-0.292-0.809-0.606-1.186-0.944
	c0.309,2.387,0.615,4.771,0.924,7.157c1.344-2.99,2.965-6.147,2.965-9.488v-5.794c0-3.221-2.686-5.905-5.904-5.905h-2.637
	l5.906,5.905V96.36c0-3.218-2.688-5.905-5.906-5.905h-6.553c-3.219,0-5.904,2.688-5.904,5.905v3.551l5.904-5.905h-2.746
	c-3.219,0-5.904,2.685-5.904,5.905v6.699c0,3.221,2.686,5.905,5.904,5.905h5.602l-5.1-8.886c-1.463,3.153-3.164,5.658-5.85,7.886
	c-1.459,1.211-2.211,3.972-1.518,5.746c0.914,2.342,1.83,4.685,2.746,7.027c1.645,4.211,6.33,5.749,9.869,2.606
	c0.439-0.392,0.879-0.781,1.318-1.171c-3.361-1.394-6.721-2.785-10.082-4.177v10.689c0,3.221,2.688,5.905,5.906,5.905h6.553
	C248.405,138.142,248.405,126.331,240.788,126.331"/>
<path fill="#FFFFFF" d="M246.976,119.451h-1.83l5.904,5.905v-6.847l-5.904,5.905h18.268l-5.904-5.905v6.847l5.904-5.905h-1.758
	c-2.41,0-5.279,1.78-5.693,4.335c-0.074,0.45-0.148,0.901-0.221,1.354c-0.605,3.728,1.543,7.476,5.693,7.476h3.59l-5.906-5.905
	v5.526l5.906-5.906h-21.381l5.906,5.906v-5.526l-5.906,5.905h3.516c4.227,0,6.197-3.748,5.693-7.476
	c-0.061-0.453-0.121-0.904-0.184-1.354c-0.43-3.197-4.479-4.891-7.264-4.125c-3.41,0.939-4.555,4.076-4.123,7.264
	c0.059,0.453,0.121,0.903,0.182,1.355c1.898-2.492,3.797-4.983,5.695-7.475h-3.516c-3.219,0-5.904,2.687-5.904,5.905v5.526
	c0,3.22,2.686,5.905,5.904,5.905h21.381c3.219,0,5.906-2.686,5.906-5.905v-5.526c0-3.219-2.688-5.905-5.906-5.905h-3.59
	c1.9,2.491,3.797,4.982,5.695,7.475c0.074-0.452,0.146-0.902,0.221-1.355c-1.898,1.446-3.795,2.892-5.695,4.337h1.758
	c3.219,0,5.906-2.686,5.906-5.905v-6.847c0-3.219-2.688-5.905-5.906-5.905h-18.268c-3.221,0-5.906,2.687-5.906,5.905v6.847
	c0,3.22,2.686,5.905,5.906,5.905h1.83C254.593,131.261,254.593,119.451,246.976,119.451"/>
<path fill="#FFFFFF" d="M260.228,106.197h-15.961l5.906,5.906V98.519l-5.906,5.905h5.125c3.219,0,5.904-2.685,5.904-5.905v-2.013
	l-5.904,5.905h4.064l-5.906-5.905v2.013c0,3.221,2.688,5.905,5.906,5.905h1.354c3.221,0,5.904-2.685,5.904-5.905v-2.013
	l-5.904,5.905h4.064l-5.906-5.905v2.013c0,3.221,2.686,5.905,5.906,5.905h5.125l-5.906-5.905v13.584l5.906-5.906H260.228
	c-7.615,0-7.615,11.812,0,11.812h3.771c3.219,0,5.906-2.686,5.906-5.905V98.519c0-3.219-2.688-5.905-5.906-5.905h-5.125l5.904,5.905
	v-2.013c0-3.219-2.686-5.905-5.904-5.905h-4.064c-3.219,0-5.906,2.687-5.906,5.905v2.013l5.906-5.905h-1.354l5.904,5.905v-2.013
	c0-3.219-2.686-5.905-5.904-5.905h-4.064c-3.219,0-5.906,2.687-5.906,5.905v2.013l5.906-5.905h-5.125
	c-3.221,0-5.904,2.687-5.904,5.905v13.584c0,3.22,2.684,5.905,5.904,5.905h15.961C267.845,118.008,267.845,106.197,260.228,106.197"
	/>
<path fill="#FFFFFF" d="M249.392,96.825h-1.355c-3.219,0-5.906,2.686-5.906,5.905v1.355c0,3.22,2.688,5.905,5.906,5.905h1.355
	c3.219,0,5.906-2.686,5.906-5.905v-1.355C255.298,99.51,252.61,96.825,249.392,96.825s-5.904,2.686-5.904,5.905v1.355l5.904-5.905
	h-1.355l5.904,5.905v-1.355l-5.904,5.905h1.355c3.219,0,5.906-2.685,5.906-5.905C255.298,99.51,252.61,96.825,249.392,96.825"/>
<path fill="#FFFFFF" d="M255.298,108.478v-1.354c0-3.221-2.688-5.905-5.906-5.905h-1.355c-3.219,0-5.906,2.685-5.906,5.905v1.354
	c0,3.22,2.688,5.905,5.906,5.905h1.355C252.61,114.383,255.298,111.698,255.298,108.478c0-3.221-2.688-5.905-5.906-5.905h-1.355
	l5.904,5.905v-1.354l-5.904,5.905h1.355l-5.904-5.905v1.354c0,3.22,2.686,5.905,5.904,5.905S255.298,111.698,255.298,108.478"/>
<path fill="#FFFFFF" d="M257.007,115.496h-5.455c-3.219,0-5.906,2.687-5.906,5.905v1.062c0,3.221,2.688,5.905,5.906,5.905h5.455
	c3.219,0,5.904-2.685,5.904-5.905v-1.062C262.911,118.182,260.226,115.496,257.007,115.496s-5.906,2.687-5.906,5.905v1.062
	l5.906-5.905h-5.455l5.904,5.905v-1.062l-5.904,5.905h5.455c3.219,0,5.904-2.686,5.904-5.905
	C262.911,118.182,260.226,115.496,257.007,115.496"/>
<path fill="#FFFFFF" d="M260.905,128.279c0.102-0.451,0.197-0.901,0.295-1.354c0.336-1.588,0.242-3.12-0.596-4.551
	c-1.053-1.795-3.016-2.924-5.1-2.924h-2.379c-1.561,0-3.074,0.627-4.176,1.729c-0.732,0.737-1.238,1.605-1.518,2.605
	c-0.283,1.047-0.283,2.094,0,3.14c0.006,0.059,0.014,0.114,0.021,0.17c-0.07-0.524-0.141-1.048-0.211-1.571
	c0.053,0.395,0.098,0.79,0.123,1.188c0.111,1.605,0.566,3.011,1.73,4.175c1.102,1.103,2.617,1.73,4.176,1.73h1.939
	c3.219,0,5.906-2.688,5.906-5.905c0-3.219-2.688-5.905-5.906-5.905h-1.939l5.904,5.905c-0.066-0.98-0.223-1.955-0.357-2.926
	c-1.896,2.492-3.797,4.983-5.693,7.476h2.379c-1.898-2.492-3.795-4.983-5.693-7.476c-0.096,0.451-0.193,0.904-0.293,1.355
	c-0.35,1.579-0.236,3.129,0.596,4.55c0.771,1.319,2.051,2.309,3.527,2.714C256.624,133.224,260.212,131.422,260.905,128.279"/>
<path fill="#FFFFFF" d="M254.81,96.825h-1.354c-3.219,0-5.906,2.686-5.906,5.905v1.355c0,3.22,2.688,5.905,5.906,5.905h1.354
	c3.219,0,5.904-2.686,5.904-5.905v-1.355C260.714,99.51,258.028,96.825,254.81,96.825s-5.906,2.686-5.906,5.905v1.355l5.906-5.905
	h-1.354l5.904,5.905v-1.355l-5.904,5.905h1.354c3.219,0,5.904-2.685,5.904-5.905C260.714,99.51,258.028,96.825,254.81,96.825"/>
<path fill="#FFFFFF" d="M260.714,108.478v-1.354c0-3.221-2.686-5.905-5.904-5.905h-1.354c-3.219,0-5.906,2.685-5.906,5.905v1.354
	c0,3.22,2.688,5.905,5.906,5.905h1.354C258.028,114.383,260.714,111.698,260.714,108.478c0-3.221-2.686-5.905-5.904-5.905h-1.354
	l5.904,5.905v-1.354l-5.904,5.905h1.354l-5.906-5.905v1.354c0,3.22,2.688,5.905,5.906,5.905S260.714,111.698,260.714,108.478"/>
<path fill="#FFFFFF" d="M258.874,109.99h1.354c3.219,0,5.906-2.685,5.906-5.905v-1.354c0-3.22-2.688-5.905-5.906-5.905h-1.354
	c-3.221,0-5.906,2.686-5.906,5.905v1.354C252.968,107.305,255.653,109.99,258.874,109.99c3.219,0,5.904-2.685,5.904-5.905v-1.354
	l-5.904,5.905h1.354l-5.904-5.905v1.354l5.904-5.905h-1.354c-3.221,0-5.906,2.687-5.906,5.905
	C252.968,107.305,255.653,109.99,258.874,109.99"/>
<path fill="#FFFFFF" d="M260.228,101.219h-1.354c-3.221,0-5.906,2.684-5.906,5.905v1.354c0,3.219,2.686,5.905,5.906,5.905h1.354
	c3.219,0,5.906-2.687,5.906-5.905v-1.354C266.134,103.903,263.446,101.219,260.228,101.219s-5.904,2.684-5.904,5.905v1.354
	l5.904-5.906h-1.354l5.904,5.906v-1.354l-5.904,5.905h1.354c3.219,0,5.906-2.688,5.906-5.905
	C266.134,103.903,263.446,101.219,260.228,101.219"/>
<path fill="#FFFFFF" d="M90.09,39.239h-4.472v10.088h-4.42V39.239H67.522v-1.925c4.836-6.396,10.66-14.092,15.704-20.229h2.392
	v19.189h4.993L90.09,39.239z M81.198,22.65h-0.156c-3.432,4.419-6.708,8.945-9.984,13.624h10.14V22.65z"/>
<path fill="#FFFFFF" d="M90.09,33.334h-4.473c-3.218,0-5.905,2.687-5.905,5.905v10.088l5.905-5.905h-4.42l5.905,5.905V39.239
	c0-3.219-2.686-5.905-5.905-5.905H67.522l5.905,5.905v-1.925l-0.806,2.98c4.845-6.408,9.694-12.813,14.781-19.033
	c-1.392,0.577-2.784,1.152-4.176,1.73h2.392l-5.905-5.905v19.188c0,3.219,2.687,5.905,5.905,5.905h4.993
	c-1.898-2.491-3.797-4.984-5.694-7.475l-0.521,2.964c-1.308,7.447,10.074,10.632,11.389,3.141c0.173-0.989,0.346-1.977,0.52-2.964
	c0.654-3.728-1.581-7.476-5.694-7.476h-4.993l5.906,5.905V17.086c0-3.22-2.686-5.905-5.906-5.905c-2.235,0-4.972-0.222-6.567,1.73
	c-2.549,3.117-5.04,6.281-7.506,9.465c-3.812,4.924-9.928,10.377-9.928,16.863c0,3.219,2.687,5.905,5.905,5.905h13.676l-5.905-5.905
	v10.088c0,3.22,2.687,5.905,5.905,5.905h4.42c3.22,0,5.906-2.686,5.906-5.905V39.239l-5.906,5.905h4.473
	C97.707,45.145,97.707,33.334,90.09,33.334"/>
<path fill="#FFFFFF" d="M81.198,16.745c-4.16,0-6.237,4.171-8.431,7.1c-2.327,3.107-4.578,6.271-6.808,9.449
	c-2.639,3.761,0.904,8.886,5.099,8.886h10.14c3.219,0,5.905-2.686,5.905-5.905V22.65c0-7.616-11.811-7.616-11.811,0v13.624
	l5.905-5.905h-10.14c1.7,2.962,3.399,5.924,5.099,8.886c2.944-4.197,5.925-8.374,9.061-12.43c-1.392,0.578-2.784,1.154-4.176,1.73
	h0.156C88.814,28.556,88.814,16.745,81.198,16.745"/>
<polygon fill="#FFFFFF" points="96.382,43.399 93.315,43.399 104.962,5.905 108.03,5.905 "/>
<path fill="#FFFFFF" d="M96.382,37.494h-3.067c1.897,2.492,3.795,4.983,5.693,7.476c3.884-12.499,7.766-24.996,11.648-37.494
	l-5.694,4.335h3.068l-5.694-7.474c-3.883,12.497-7.766,24.995-11.648,37.493c-2.266,7.295,9.137,10.389,11.389,3.14
	c3.882-12.499,7.765-24.996,11.647-37.494C114.871,3.786,111.774,0,108.03,0h-3.068c-2.692,0-4.911,1.815-5.694,4.336
	c-3.883,12.497-7.766,24.995-11.648,37.493c-1.146,3.689,1.95,7.476,5.695,7.476h3.067C103.999,49.305,103.999,37.494,96.382,37.494
	"/>
<path fill="#FFFFFF" d="M114.791,41.059v-1.456l3.38-0.416c2.444-0.208,2.704-0.729,2.704-3.329V24.262
	c0-2.757-0.208-3.172-2.236-3.327l-3.224-0.157v-1.404c3.796-0.521,6.708-1.3,9.88-2.289v18.772c0,2.601,0.312,3.121,2.86,3.381
	l3.172,0.364v1.456H114.791z"/>
<path fill="#FFFFFF" d="M120.696,41.059v-1.456l-5.905,5.905c4.328-0.533,8.005-0.595,10.889-4.333
	c1.878-2.437,1.101-7.802,1.101-10.737c0-3.268,0.388-6.975-0.453-10.164c-1.337-5.072-6.676-5.197-10.913-5.402l5.905,5.905v-1.404
	l-4.335,5.695c3.369-0.505,6.625-1.293,9.881-2.289l-7.476-5.695v16.403c0,3.184-0.087,6.256,2.054,8.886
	c2.337,2.872,6.511,2.747,9.884,3.134l-5.906-5.905v1.456l5.906-5.905h-16.537c-7.616,0-7.616,11.811,0,11.811h16.537
	c3.219,0,5.905-2.686,5.905-5.905v-1.456c0-3.497-2.708-5.539-5.905-5.905c-0.848-0.097-1.695-0.195-2.543-0.292
	c-1.013-0.117,2.06,0.402,2.442,3.445c-0.041-0.316-0.025-0.784-0.025-1.16v-5.409V17.085c0-3.757-3.783-6.823-7.474-5.694
	c-3.257,0.995-6.512,1.784-9.881,2.289c-2.556,0.382-4.336,3.308-4.336,5.694v1.404c0,3.337,2.691,5.75,5.905,5.905
	c0.862,0.042,1.724,0.084,2.586,0.125c2.734,0.133-3.031-6.233-3.031-2.482v5.355v5.929c0,3.656,2.091-2.193,3.014-2.306
	c-1.064,0.131-2.128,0.262-3.193,0.393c-3.195,0.393-5.906,2.388-5.906,5.905v1.456C108.885,48.675,120.696,48.675,120.696,41.059"
	/>
<path fill="#FFFFFF" d="M159.095,10.742c-2.339,0.52-4.731,1.56-6.604,3.016c-4.421,2.392-7.228,6.189-8.373,9.464l3.173-1.3
	c1.508-0.625,2.6-0.936,3.223-0.936c5.097,0,9.205,3.64,9.205,9.516c0,6.344-4.784,11.181-10.92,11.181
	c-5.357,0-10.557-3.953-10.557-12.481c0-8.997,6.448-15.444,13.625-18.356c2.391-0.936,4.783-1.508,6.864-1.769L159.095,10.742z
	 M147.708,24.003c-1.196,0-2.6,0.415-4.057,1.092c-0.312,1.508-0.364,2.548-0.364,3.847c0,6.865,2.913,10.869,6.501,10.869
	c2.704,0,5.148-2.027,5.148-6.968c0-4.004-1.559-8.839-7.176-8.839H147.708z"/>
<path fill="#FFFFFF" d="M157.526,5.048c-8.565,2.213-15.906,8.348-19.101,16.604c-1.535,3.967,3.242,8.914,7.264,7.265
	c2.731-1.12,5.748-3.528,7.678-0.513c2.598,4.055-2.392,8.13-6.152,7.105c-4.159-1.133-3.368-8.27-2.098-11.108
	c2.691-6.021,9.053-8.703,15.185-9.629l-7.264-4.124c0.122,0.554,0.242,1.108,0.364,1.664c1.625,7.439,13.011,4.285,11.389-3.14
	c-0.122-0.554-0.243-1.109-0.364-1.664c-0.746-3.412-4.225-4.584-7.265-4.125c-11.267,1.702-21.596,9.269-24.269,20.713
	c-2.605,11.159,3.439,22.15,15.104,23.461c11.942,1.343,19.586-11.396,16.949-21.872c-1.303-5.177-5.87-8.947-10.883-10.204
	c-4.201-1.053-7.729,0.495-11.515,2.045l7.265,7.265c1.651-4.267,6.648-7.27,10.852-8.356
	C168.035,14.533,164.906,3.141,157.526,5.048"/>
<path fill="#FFFFFF" d="M147.708,18.097c-4.305,0.348-9.075,1.644-9.939,6.482c-0.68,3.807-0.461,7.835,0.625,11.544
	c1.899,6.481,7.406,10.392,14.101,9.255c7.256-1.232,9.015-10.168,7.994-16.15C159.393,22.807,154.336,18.097,147.708,18.097
	c-7.616,0-7.616,11.811,0,11.811c1.153,0,0.824,0.107,1.119,1.097c0.214,0.718,0.181,0.797,0.204,1.837
	c0.019,0.848-0.265,1.614-0.257,1.605c0.459-0.479,0.82-0.582,1.476-0.463c0.529,0.302,0.484,0.273-0.133-0.084
	c0.355,0.208,0.678,0.853-0.008-0.231c-1.183-1.869-1.136-4.92-0.763-7.005c-0.905,1.177-1.809,2.353-2.715,3.529
	c0.354-0.115,0.713-0.21,1.077-0.285c3.207-0.26,5.905-2.49,5.905-5.905C153.613,20.979,150.921,17.837,147.708,18.097"/>
<path fill="#ED9736" d="M129.422,79.82c0.439,0,0.854-0.257,1.245-0.768c0.269-0.416,0.524-1.393,0.769-2.93h-5.748h-3.441h-3.404
	l1.464-15.34h3.405h3.441h3.844v-1.939h-11.972v-6.7h11.972h3.404h3.441v8.639v3.332v3.368h-11.349l-0.219,1.939h5.381h3.478h3.515
	c-0.024,5.078-0.341,8.799-0.952,11.167c-0.683,2.343-1.757,4.038-3.221,5.088c-1.368,0.951-3.051,1.429-5.053,1.429
	c-2.368,0-4.723,0.047-7.065,0.146l-1.977-7.285C123.383,79.869,126.396,79.82,129.422,79.82 M151.754,87.251h-7.138V51.813h7.138
	V87.251z"/>
<path fill="#ED9736" d="M156.11,58.989h3.185v4.1c-0.024,3.417-0.183,6.237-0.476,8.458l-3.478-1.721
	c0.513-1.488,0.768-3.735,0.768-6.737V58.989z M185.655,63.565h4.1v4.356h-4.1v0.989h4.247v4.503H186.9
	c0.951,0.586,2.306,1.221,4.064,1.904l-2.453,4.794c-0.465-0.268-0.916-0.488-1.355-0.658c-0.146,0.146-0.268,0.293-0.366,0.439
	c-0.122,0.123-0.256,0.27-0.402,0.439c1.122,0.659,2.463,1.221,4.026,1.684l-3.111,5.455c-2.246-0.878-4.172-2.063-5.784-3.551
	c0,2.367-1.551,3.551-4.65,3.551h-2.049l-0.989-3.258c-1.538,1.244-3.002,2.27-4.393,3.074l-2.783-4.612l-0.402,0.732
	c-0.734-0.659-1.465-1.368-2.197-2.124c-0.879,2.075-2.16,4.112-3.844,6.114l-4.283-5.455c3.002-3.953,4.503-7.993,4.503-12.117
	V51.813h5.675v7.286c0.34-0.464,0.731-0.963,1.17-1.501l0.842,0.659v-0.878v-1.025v-0.952v-1.684v-1.648h14.351h3.039h3.075v4.284
	v1.025v5.125h-2.928V63.565z M169.986,73.414h-2.636v-4.503h4.137v-0.989h-3.843v-3.074c-0.489,0.463-1.002,0.964-1.538,1.5v3.478
	c0,1.44-0.087,2.831-0.257,4.174c0.391,0.464,0.818,0.928,1.281,1.391c1.001-0.536,1.842-1.099,2.526-1.684
	C169.779,73.609,169.888,73.511,169.986,73.414 M170.645,79.857c-0.196-0.195-0.403-0.379-0.623-0.55
	c-0.366,0.171-0.708,0.343-1.025,0.513l-0.438-0.476l-1.5,2.599c0.731-0.316,1.33-0.599,1.792-0.843
	C169.314,80.809,169.913,80.394,170.645,79.857 M169.692,62.503c-0.292,0.343-0.585,0.697-0.878,1.063h2.672v-1.063H169.692z
	 M174.965,81.21c0.512-0.049,0.769-0.329,0.769-0.841v-1.648l-2.124,1.831L174.965,81.21z M182.469,56.353v-0.952h-8.237v0.952v0.11
	h8.237V56.353z M182.469,58.623h-8.236v0.99h8.236V58.623z M175.734,77.441v-3.075h5.052c-0.244-0.317-0.488-0.635-0.732-0.952
	h-3.917c-0.585,0.952-1.184,1.794-1.793,2.525C174.756,76.354,175.221,76.855,175.734,77.441 M177.6,63.565h1.94v-1.063h-1.94
	V63.565z M179.541,67.921h-1.94v0.989h1.94V67.921z M183.019,76.708c-0.513-0.439-1.001-0.928-1.464-1.465v2.929
	C182.139,77.586,182.628,77.099,183.019,76.708 M183.348,80.625l-1.793-1.976v4.1L183.348,80.625z"/>
<path fill="#ED9736" d="M212.196,66.165v-3.808V60.6v-3.661v-3.624c4.076,0,8.141-0.44,12.191-1.318l4.283,6.479
	c-2.418,0.977-5.869,1.623-10.361,1.94v1.757h9.957v6.846h-2.342v18.231h-6.406V69.02h-1.209v0.806
	c-0.023,3.002-0.232,5.857-0.621,8.566c-0.586,3.245-1.66,6.198-3.223,8.859l-5.271-3.844l-0.697,0.988
	c-0.707-0.659-1.438-1.317-2.195-1.977v4.832h-6.406v-4.466c-1,0.78-2.137,1.623-3.404,2.526l-3.844-5.528
	c1.904-1.318,3.635-2.685,5.197-4.101h-3.99v-6.114h6.041v-1.062h-6.041v-6.407h2.6l-0.512-2.232h-1.795v-6.407h5.455v-2.087h6.992
	v2.087h4.539v6.407h-1.098l-0.402,2.232h1.5v6.407h-4.832v1.062h4.832v6.114h-2.928c1.193,0.976,2.172,1.807,2.928,2.489
	c0.709-1.806,1.063-4.588,1.063-8.347V66.165z M203.739,62.101l0.402-2.232h-2.014l0.477,2.232H203.739z"/>
<path fill="#ED9736" d="M240.458,55.475h3.186v22.661v1.245c0.707-1.758,1.061-4.211,1.061-7.359V57.378v-2.489v-2.453h14.938h2.893
	h2.93v6.588v2.453v2.491h-5.127v4.722h0.844v-3.405h3.623v9.226h-1.83h-1.793h-0.844v6.334h0.623v-4.87h4.355v11.131h-4.355v-0.733
	h-5.748v0.733h-4.355V76.123h4.355v4.723h0.77v-6.334h-4.613v-2.929v-2.892v-3.405h3.625v3.405h0.988v-4.722h-5.455v8.053
	c0,7.225-1.465,12.411-4.393,15.558l-2.637-2.891h-8.787v1.539h-3.477V55.475h3.477v22.661h0.77V51.961h4.357v26.175h0.621V55.475z
	 M259.642,57.378h-9.115v1.646h9.115V57.378z"/>
<path fill="#ED9736" d="M278.788,75.975c-1.391,4.443-3.111,8.092-5.16,10.948l-5.529-4.943c1.977-2.928,3.672-6.309,5.09-10.141
	L278.788,75.975z M279.485,66.201l-4.357,5.456c-1.855-1.465-4.137-2.819-6.846-4.063l4.283-5.529
	C275.128,63.333,277.435,64.712,279.485,66.201 M279.228,53.242h22.406v7.139h-7.836v18.122h8.568v7.284h-24.164v-7.284h8.457
	V60.381h-7.432v-2.637l-3.295,4.32c-1.953-1.488-4.355-2.855-7.213-4.101l4.285-5.895c2.244,1.026,4.32,2.137,6.223,3.332V53.242z"
	/>
<path fill="#ED9736" d="M94.9,119.644v-2.782v-2.746V97.128h3.185h3.222h6.772h3.185h3.222v16.987v2.746v2.782h-5.858v5.345
	c0.025,0.27,0.16,0.401,0.404,0.401h0.622c0.512,0,0.77-0.255,0.77-0.768v-3.953l5.235,2.05v3.478c0,3.929-1.026,5.895-3.076,5.895
	h-7.504c-1.709,0-2.563-0.855-2.563-2.563v-6.518c-1.049,2.074-2.173,3.746-3.369,5.016c-1.44,1.514-3.441,2.966-6.004,4.357
	l-4.063-3.991c-2.538,0.903-5.052,1.538-7.542,1.904l-0.622-6.993c1.268-0.293,2.538-0.598,3.807-0.915v-6.626h-3.039v-6.552h3.039
	v-5.017h-3.039v-6.553h12.009v6.553h-2.417v5.017h2.563v6.552h-2.563v4.541c0.829-0.317,1.66-0.637,2.489-0.953v4.575
	c0-0.023,0.012-0.035,0.037-0.035c1.293-1.002,2.538-2.417,3.734-4.247H94.9z M102.515,121.51v-1.866H99.33L102.515,121.51z
	 M108.08,102.659h-6.773v0.915h6.773V102.659z M108.08,107.929h-6.773v0.915h6.773V107.929z M101.307,114.116h6.773v-0.915h-6.773
	V114.116z"/>
<path fill="#ED9736" d="M130.997,132.676l-2.893-3.258c5.711-2.147,9.995-4.869,12.851-8.163h-0.878
	c-1.977,2.099-3.93,3.709-5.857,4.831c-2.172,1.22-4.918,2.246-8.237,3.076l-1.941-3.553c4.027-1.341,7.322-2.794,9.885-4.354
	h-1.171c-1.807,0.977-3.967,1.867-6.479,2.671l-0.403-0.586c-2.026,0.954-4.063,1.697-6.113,2.235l-1.209-6.921
	c1.099-0.365,2.197-0.732,3.295-1.099v-6.845h-2.672v-6.701h2.672v-7.65h6.406v7.65h2.05v5.858h23.138v5.234h-13.912
	c-0.27,0.294-0.525,0.599-0.769,0.915h7.98h2.892h2.929v6.519c-0.024,2.294-0.451,4.282-1.282,5.967
	c-0.708,1.487-1.647,2.501-2.819,3.038c-1.855,0.829-4.466,1.063-7.833,0.695l-1.025-4.063
	C137.33,129.833,134.462,131.333,130.997,132.676 M129.423,110.711h-1.172v4.209c0.39-0.195,0.781-0.379,1.172-0.549V110.711z
	 M132.572,115.103h-2.087v1.575c0.341-0.27,0.67-0.487,0.988-0.66C131.838,115.726,132.205,115.421,132.572,115.103
	 M144.834,109.027h-6.772h-3.369h-3.331V97.054h3.331h3.369h6.772h3.333h3.368v11.973h-3.368H144.834z M144.834,100.68h-6.773v0.842
	h6.773V100.68z M138.063,105.403h6.773v-0.988h-6.773V105.403z M145.091,125.245c0.903-0.535,1.428-1.865,1.574-3.989h-0.549
	c-1.172,1.707-2.38,3.186-3.625,4.429C143.761,125.684,144.628,125.538,145.091,125.245"/>
<path fill="#ED9736" d="M159.772,109.614h-3.258v-6.847h3.258v-6.261h6.406v6.261h1.904v6.847h-1.904v3.148l2.05-0.329v6.844
	l-2.05,0.329v7.433c0,3.417-2.049,5.125-6.15,5.125h-1.793l-1.977-6.847h2.379c0.756,0,1.135-0.377,1.135-1.134v-3.587l-3.112,0.439
	v-6.848l3.112-0.437V109.614z M183.787,102.547h2.893h2.929v29.544h-5.822v-1.465h-8.822v1.465h-5.821v-23.138v-3.223v-3.184h7.249
	v-6.041h5.967v6.041H183.787z M176.393,108.954h-1.428v4.504h1.428V108.954z M176.393,119.717h-1.428v4.503h1.428V119.717z
	 M182.36,113.458h1.427v-4.504h-1.427V113.458z M182.36,124.22h1.427v-4.503h-1.427V124.22z"/>
<path fill="#ED9736" d="M215.856,123.817v-5.272h-5.453v-6.846h5.453v-3.917h0.953l1.793-3.222h-8.016
	c-0.221,7.81-1.111,13.18-2.674,16.108l3.039,2.233l-3.295,6.553l-3.625-2.855c-1.635,1.929-3.635,3.929-6.004,6.005l-4.867-5.455
	c2.195-1.659,4.039-3.27,5.527-4.833l-5.455-4.319c1.195-3.003,2.172-5.943,2.928-8.823h-2.451v-6.847h3.77
	c0.27-1.976,0.414-3.892,0.439-5.746h6.662c-0.096,1.929-0.256,3.844-0.475,5.746h0.256h3.111h2.93v-4.758h15.74v6.991l-3.586,6.298
	v0.036v0.805h5.125v6.846h-5.125v8.567c0,3.416-2.051,5.125-6.15,5.125h-3.697l-1.979-7.284h3.992
	C215.478,124.953,215.856,124.574,215.856,123.817 M202.825,115.764c0.561-1.904,0.965-4.101,1.207-6.591h-1.063
	c-0.488,2.245-1.072,4.443-1.756,6.591l1.244,0.914C202.604,116.362,202.728,116.055,202.825,115.764"/>
<path fill="#ED9736" d="M240.788,132.237h-6.553v-10.689c-0.439,0.391-0.877,0.78-1.318,1.172l-2.744-7.029
	c2.83-2.222,5.088-5.248,6.771-9.08h-5.602v-6.699h2.746V96.36h6.553v3.551h2.637v6.699c-0.611,1.954-1.33,3.82-2.16,5.602
	c0.732,0.636,1.33,1.112,1.793,1.429c0.172,0.122,0.367,0.269,0.586,0.439v-1.43h21.527v5.238h-19.988l-2.381,3.733
	c-0.707-0.489-1.33-0.915-1.867-1.283V132.237z M246.976,125.356h-1.83v-6.847h3.184h3.223h5.455h3.186h3.221v6.847h-1.758
	c-0.121,0.462-0.195,0.914-0.219,1.354h3.588v5.526h-21.381v-5.526h3.516C247.06,126.246,246.999,125.793,246.976,125.356
	 M260.228,112.102h-15.961v-1.83v-1.794v-3.332v-1.024v-1.392v-2.123V98.52h5.125v-2.014h4.064v2.014h1.354v-2.014h4.064v2.014
	h1.354h1.867h1.904v5.602v1.024v6.956h-1.904H260.228z M249.392,102.73h-1.355v1.355h1.355V102.73z M249.392,107.125h-1.355v1.354
	h1.355V107.125z M257.007,121.401h-5.455v1.061h5.455V121.401z M255.212,126.71c0.098-0.44,0.195-0.893,0.293-1.354h-2.379
	c0.072,0.511,0.121,0.964,0.146,1.354H255.212z M254.81,102.73h-1.354v1.355h1.354V102.73z M254.81,107.125h-1.354v1.354h1.354
	V107.125z M258.874,104.084h1.354v-1.354h-1.354V104.084z M260.228,107.125h-1.355v1.354h1.355V107.125z"/>
<path fill="#ED9736" d="M90.09,39.239h-4.472v10.088h-4.42V39.239H67.522v-1.925c4.836-6.396,10.66-14.092,15.704-20.229h2.392
	v19.189h4.993L90.09,39.239z M81.198,22.65h-0.156c-3.432,4.419-6.708,8.945-9.984,13.624h10.14V22.65z"/>
<polygon fill="#ED9736" points="96.382,43.399 93.315,43.399 104.962,5.905 108.03,5.905 "/>
<path fill="#ED9736" d="M114.791,41.059v-1.456l3.38-0.416c2.444-0.208,2.704-0.729,2.704-3.329V24.262
	c0-2.757-0.208-3.172-2.236-3.327l-3.224-0.157v-1.404c3.796-0.521,6.708-1.3,9.88-2.289v18.772c0,2.601,0.312,3.121,2.86,3.381
	l3.172,0.364v1.456H114.791z"/>
<path fill="#ED9736" d="M159.095,10.742c-2.339,0.52-4.731,1.56-6.604,3.016c-4.421,2.392-7.228,6.189-8.373,9.464l3.173-1.3
	c1.508-0.625,2.6-0.936,3.223-0.936c5.097,0,9.205,3.64,9.205,9.516c0,6.344-4.784,11.181-10.92,11.181
	c-5.357,0-10.557-3.953-10.557-12.481c0-8.997,6.448-15.444,13.625-18.356c2.391-0.936,4.783-1.508,6.864-1.769L159.095,10.742z
	 M147.708,24.003c-1.196,0-2.6,0.415-4.057,1.092c-0.312,1.508-0.364,2.548-0.364,3.847c0,6.865,2.913,10.869,6.501,10.869
	c2.704,0,5.148-2.027,5.148-6.968c0-4.004-1.559-8.839-7.176-8.839H147.708z"/>
</svg>
