<?xml version="1.0" encoding="utf-8"?>
<!-- Generator: Adobe Illustrator 15.1.0, SVG Export Plug-In  -->
<!DOCTYPE svg PUBLIC "-//W3C//DTD SVG 1.1//EN" "http://www.w3.org/Graphics/SVG/1.1/DTD/svg11.dtd" [
	<!ENTITY ns_flows "http://ns.adobe.com/Flows/1.0/">
]>
<svg version="1.1"
	 xmlns="http://www.w3.org/2000/svg" xmlns:xlink="http://www.w3.org/1999/xlink" xmlns:a="http://ns.adobe.com/AdobeSVGViewerExtensions/3.0/"
	 x="0px" y="0px" width="434px" height="116px" viewBox="-10.826 -16.1 434 116" enable-background="new -10.826 -16.1 434 116"
	 xml:space="preserve">
<defs>
</defs>
<path fill="#FFFFFF" d="M26.273,72.787l-10.564-0.031l0.313-15.656c-1.554,2.391-3.445,5.027-5.674,7.912L6,53.273
	c3.904-4.732,6.62-8.68,8.146-11.838l-6.645-0.021l0.244-12.133l8.837,0.026l0.129-6.437l-6.486,5.402l-3.66-13.023l7.23-6.011
	l3.013,8.754l0.218-10.846l10.566,0.033l-0.261,12.878l3.664-10.292l5.667,5.644l-4.614,11.373l-4.77-4.014l-0.132,6.574
	l7.176,0.022l-0.245,12.134l-6.444-0.021c1.833,1.315,4.012,3.086,6.539,5.307l-3.437,12.259c-1.427-1.677-2.793-3.195-4.093-4.557
	L26.273,72.787z M66.666,33.394l-0.462,23.045c-0.141,7.003-1.028,11.452-2.66,13.344c-1.589,1.895-4.333,2.836-8.23,2.823
	l-5.448-0.017L45.89,62.207c-2.555,3.605-6.416,7.23-11.584,10.877l-6.898-10.393c4.708-2.877,8.046-5.896,10.015-9.053
	c1.278-1.893,2.24-4.534,2.885-7.922l-4.984-0.016l0.249-12.403l3.123,0.01L33.5,27.395c3.015-4.51,5.493-11.054,7.437-19.634
	l10.325,2.065c-1.377,9.032-3.816,16.865-7.316,23.499l11.627,0.035l3.654,0.01c-3.846-6.925-6.142-14.999-6.888-24.219
	l10.467-1.663c0.611,4.748,1.447,8.365,2.506,10.853c0.968,2.534,2.7,5.565,5.198,9.098l-6.962,5.945L66.666,33.394z M50.702,60.729
	c1.77,0.005,2.958-0.624,3.56-1.888c0.559-1.354,0.898-5.035,1.018-11.045l0.041-2.033l-3.456-0.01
	c-1.1,6.277-2.75,11.267-4.95,14.963L50.702,60.729z"/>
<path fill="none" stroke="#FFFFFF" stroke-width="12" stroke-linecap="round" stroke-linejoin="round" stroke-miterlimit="10" d="
	M26.273,72.787l-10.564-0.031l0.313-15.656c-1.554,2.391-3.445,5.027-5.674,7.912L6,53.273c3.904-4.732,6.62-8.68,8.146-11.838
	l-6.645-0.021l0.244-12.133l8.837,0.026l0.129-6.437l-6.486,5.402l-3.66-13.023l7.23-6.011l3.013,8.754l0.218-10.846l10.566,0.033
	l-0.261,12.878l3.664-10.292l5.667,5.644l-4.614,11.373l-4.77-4.014l-0.132,6.574l7.176,0.022l-0.245,12.134l-6.444-0.021
	c1.833,1.315,4.012,3.086,6.539,5.307l-3.437,12.259c-1.427-1.677-2.793-3.195-4.093-4.557L26.273,72.787z M66.666,33.394
	l-0.462,23.045c-0.141,7.003-1.028,11.452-2.66,13.344c-1.589,1.895-4.333,2.836-8.23,2.823l-5.448-0.017L45.89,62.207
	c-2.555,3.605-6.416,7.23-11.584,10.877l-6.898-10.393c4.708-2.877,8.046-5.896,10.015-9.053c1.278-1.893,2.24-4.534,2.885-7.922
	l-4.984-0.016l0.249-12.403l3.123,0.01L33.5,27.395c3.015-4.51,5.493-11.054,7.437-19.634l10.325,2.065
	c-1.377,9.032-3.816,16.865-7.316,23.499l11.627,0.035l3.654,0.01c-3.846-6.925-6.142-14.999-6.888-24.219l10.467-1.663
	c0.611,4.748,1.447,8.365,2.506,10.853c0.968,2.534,2.7,5.565,5.198,9.098l-6.962,5.945L66.666,33.394z M50.702,60.729
	c1.77,0.005,2.958-0.624,3.56-1.888c0.559-1.354,0.898-5.035,1.018-11.045l0.041-2.033l-3.456-0.01
	c-1.1,6.277-2.75,11.267-4.95,14.963L50.702,60.729z"/>
<path fill="#FFFFFF" d="M98.146,67.246l-0.978-17.424l2.997-0.33c-0.153-1.22-0.287-2.305-0.4-3.253
	c-1.11,0.043-2.219,0.126-3.328,0.259l-0.543,27.045l-11.096-0.035l0.53-26.434c-3.323,0.081-6.713,0.184-10.172,0.309l-0.218-12.27
	l6.243,0.086c-2.305-4.208-4.759-7.762-7.359-10.664c2.277-3.108,4.407-6.651,6.394-10.62c0.518,0.633,0.993,1.245,1.424,1.833
	C83.296,12.68,84.712,9.432,85.89,6l10.356,3.759c-2.769,5.506-5.616,10.489-8.54,14.955c0.298,0.498,0.6,0.974,0.9,1.426
	c2.873-4.102,5.621-8.524,8.24-13.26l9.674,4.638c-2.616,4.559-5.452,9-8.505,13.327l4.413-1.408
	c0.711,2.08,1.269,4.092,1.672,6.037l6.908,0.157c0.092-0.136,0.204-0.225,0.338-0.271c-2.446-3.938-5.06-7.289-7.838-10.055
	c2.144-3.157,4.145-6.788,6-10.896c0.693,0.771,1.385,1.586,2.077,2.446c2.015-3.291,3.747-6.789,5.196-10.488l10.212,4.301
	c-2.944,5.369-6.009,10.238-9.198,14.612c0.301,0.454,0.602,0.905,0.903,1.358c2.866-3.741,5.605-7.777,8.217-12.107l9.006,4.838
	c-2.653,4.151-5.437,8.142-8.347,11.973l5.559-2.218c2.241,5.338,3.959,11.331,5.155,17.975l-4.539,1.006l4.348,21.633l-9.404,1.803
	l-3.161-17.974l-0.404,20.063l-11.095-0.033l0.536-26.706c-2.791,0.085-5.541,0.142-8.243,0.18c0.121,0.679,0.194,1.379,0.225,2.103
	l6.578,0.021c-0.011,0.586-0.026,1.31-0.044,2.169c-0.195,9.717-1.007,17.1-2.44,22.158l-7.133-5.377
	c0.143-0.497,0.306-0.905,0.491-1.223L98.146,67.246z M84.158,49.104c-0.02,1.041-0.05,2.51-0.088,4.405
	c-0.205,8-1.292,14.638-3.258,19.918l-7.521-5.92c0.508-1.037,0.923-1.918,1.25-2.639c0.978-2.394,1.549-7.654,1.712-15.789
	L84.158,49.104z M96.716,32.672c-0.729,0.902-1.388,1.783-1.981,2.636l2.79,0.078C97.231,34.526,96.962,33.622,96.716,32.672
	 M106.27,49.85l-2.667,0.399l1.234,14.644c0.817-3.16,1.255-6.231,1.315-9.214C106.207,53.06,106.245,51.115,106.27,49.85
	 M126.549,32.696c-0.863,1.037-1.727,2.096-2.589,3.175l3.786,0.082C127.324,34.912,126.924,33.827,126.549,32.696 M130.952,48.298
	c-0.161-0.77-0.303-1.445-0.423-2.033c-1.641,0.039-3.259,0.125-4.857,0.259l-0.062,3.114L130.952,48.298z"/>
<path fill="none" stroke="#FFFFFF" stroke-width="12" stroke-linecap="round" stroke-linejoin="round" stroke-miterlimit="10" d="
	M98.146,67.246l-0.978-17.424l2.997-0.33c-0.153-1.22-0.287-2.305-0.4-3.253c-1.11,0.043-2.219,0.126-3.328,0.259l-0.543,27.045
	l-11.096-0.035l0.53-26.434c-3.323,0.081-6.713,0.184-10.172,0.309l-0.218-12.27l6.243,0.086c-2.305-4.208-4.759-7.762-7.359-10.664
	c2.277-3.108,4.407-6.651,6.394-10.62c0.518,0.633,0.993,1.245,1.424,1.833C83.296,12.68,84.712,9.432,85.89,6l10.356,3.759
	c-2.769,5.506-5.616,10.489-8.54,14.955c0.298,0.498,0.6,0.974,0.9,1.426c2.873-4.102,5.621-8.524,8.24-13.26l9.674,4.638
	c-2.616,4.559-5.452,9-8.505,13.327l4.413-1.408c0.711,2.08,1.269,4.092,1.672,6.037l6.908,0.157
	c0.092-0.136,0.204-0.225,0.338-0.271c-2.446-3.938-5.06-7.289-7.838-10.055c2.144-3.157,4.145-6.788,6-10.896
	c0.693,0.771,1.385,1.586,2.077,2.446c2.015-3.291,3.747-6.789,5.196-10.488l10.212,4.301c-2.944,5.369-6.009,10.238-9.198,14.612
	c0.301,0.454,0.602,0.905,0.903,1.358c2.866-3.741,5.605-7.777,8.217-12.107l9.006,4.838c-2.653,4.151-5.437,8.142-8.347,11.973
	l5.559-2.218c2.241,5.338,3.959,11.331,5.155,17.975l-4.539,1.006l4.348,21.633l-9.404,1.803l-3.161-17.974l-0.404,20.063
	l-11.095-0.033l0.536-26.706c-2.791,0.085-5.541,0.142-8.243,0.18c0.121,0.679,0.194,1.379,0.225,2.103l6.578,0.021
	c-0.011,0.586-0.026,1.31-0.044,2.169c-0.195,9.717-1.007,17.1-2.44,22.158l-7.133-5.377c0.143-0.497,0.306-0.905,0.491-1.223
	L98.146,67.246z M84.158,49.104c-0.02,1.041-0.05,2.51-0.088,4.405c-0.205,8-1.292,14.638-3.258,19.918l-7.521-5.92
	c0.508-1.037,0.923-1.918,1.25-2.639c0.978-2.394,1.549-7.654,1.712-15.789L84.158,49.104z M96.716,32.672
	c-0.729,0.902-1.388,1.783-1.981,2.636l2.79,0.078C97.231,34.526,96.962,33.622,96.716,32.672z M106.27,49.85l-2.667,0.399
	l1.234,14.644c0.817-3.16,1.255-6.231,1.315-9.214C106.207,53.06,106.245,51.115,106.27,49.85z M126.549,32.696
	c-0.863,1.037-1.727,2.096-2.589,3.175l3.786,0.082C127.324,34.912,126.924,33.827,126.549,32.696z M130.952,48.298
	c-0.161-0.77-0.303-1.445-0.423-2.033c-1.641,0.039-3.259,0.125-4.857,0.259l-0.062,3.114L130.952,48.298z"/>
<path fill="#FFFFFF" d="M181.018,63.229l-12.556-0.038c0.896,1.673,1.788,3.598,2.673,5.77l-11.731,5.183
	c-1.268-3.03-2.803-5.974-4.606-8.825l3.233-2.158l-15.415-0.048l0.184-9.149l38.47,0.117l0.045-2.236l-37.5,1.174l-0.281-9.148
	l24.115,0.207l0.031-1.49l-19.668-0.062l0.066-3.254l0.063-3.186l0.295-14.639l5.648,0.015l5.713,0.019l8.305,0.025l0.035-1.694
	l-23.854-0.074l0.185-9.149l23.853,0.072l0.066-3.32l11.895,0.037l-0.067,3.32l24.318,0.075l-0.184,9.148l-24.318-0.072
	l-0.035,1.693l8.042,0.026l5.646,0.015l5.713,0.018l-0.294,14.641l-0.064,3.186l-0.065,3.253h-0.398
	c2.387,2.447,4.12,4.373,5.2,5.777l-5.032,5.678l5.447,0.016l-0.183,9.15l-11.56-0.034l-0.024,1.084
	c-0.126,6.323-3.91,9.478-11.353,9.454l-4.717-0.014l-3.415-8.621l6.046,0.021C180.271,65.146,180.948,64.492,181.018,63.229
	 M167.974,27.942l-8.306-0.025l-0.034,1.693l8.305,0.025L167.974,27.942z M167.843,34.45l-8.304-0.028l-0.036,1.694l8.306,0.027
	L167.843,34.45z M179.832,29.672l8.042,0.024l0.032-1.695l-8.04-0.025L179.832,29.672z M179.701,36.179l8.041,0.025l0.035-1.695
	l-8.041-0.024L179.701,36.179z M185.885,42.638l-6.313-0.021l-0.031,1.561l7.971,0.093
	C186.947,43.726,186.405,43.183,185.885,42.638 M192.631,54.113l4.054,0.012c-0.779-0.951-1.558-1.855-2.338-2.72l-1.664,0.132
	L192.631,54.113z"/>
<path fill="none" stroke="#FFFFFF" stroke-width="12" stroke-linecap="round" stroke-linejoin="round" stroke-miterlimit="10" d="
	M181.018,63.229l-12.556-0.038c0.896,1.673,1.788,3.598,2.673,5.77l-11.731,5.183c-1.268-3.03-2.803-5.974-4.606-8.825l3.233-2.158
	l-15.415-0.048l0.184-9.149l38.47,0.117l0.045-2.236l-37.5,1.174l-0.281-9.148l24.115,0.207l0.031-1.49l-19.668-0.062l0.066-3.254
	l0.063-3.186l0.295-14.639l5.648,0.015l5.713,0.019l8.305,0.025l0.035-1.694l-23.854-0.074l0.185-9.149l23.853,0.072l0.066-3.32
	l11.895,0.037l-0.067,3.32l24.318,0.075l-0.184,9.148l-24.318-0.072l-0.035,1.693l8.042,0.026l5.646,0.015l5.713,0.018
	l-0.294,14.641l-0.064,3.186l-0.065,3.253h-0.398c2.387,2.447,4.12,4.373,5.2,5.777l-5.032,5.678l5.447,0.016l-0.183,9.15
	l-11.56-0.034l-0.024,1.084c-0.126,6.323-3.91,9.478-11.353,9.454l-4.717-0.014l-3.415-8.621l6.046,0.021
	C180.271,65.146,180.948,64.492,181.018,63.229z M167.974,27.942l-8.306-0.025l-0.034,1.693l8.305,0.025L167.974,27.942z
	 M167.843,34.45l-8.304-0.028l-0.036,1.694l8.306,0.027L167.843,34.45z M179.832,29.672l8.042,0.024l0.032-1.695l-8.04-0.025
	L179.832,29.672z M179.701,36.179l8.041,0.025l0.035-1.695l-8.041-0.024L179.701,36.179z M185.885,42.638l-6.313-0.021l-0.031,1.561
	l7.971,0.093C186.947,43.726,186.405,43.183,185.885,42.638z M192.631,54.113l4.054,0.012c-0.779-0.951-1.558-1.855-2.338-2.72
	l-1.664,0.132L192.631,54.113z"/>
<path fill="#FFFFFF" d="M214.012,25.1l0.109-5.421l0.242-12.134l5.384,0.018l5.446,0.016l5.447,0.016l2.127,0.006l26.377,0.082
	l6.313,0.019l6.38,0.019l-0.118,5.898l-0.06,2.779l-0.053,2.643l-0.054,2.711l-46.644-0.143l-0.069,3.525l-0.233,11.656
	c-0.138,4.611-0.406,9.04-0.801,13.283c1.926-1.032,4.037-2.427,6.33-4.182l-4.186-0.013l0.234-11.59l4.982,0.015l5.049,0.016
	l23.984,0.073l4.984,0.014l5.049,0.017l-0.232,11.59L264.953,46l-4.982-0.017l-17.874-0.056c-0.452,0.494-0.884,1.014-1.292,1.556
	l20.729,0.063l5.248,0.017l5.317,0.017l-0.207,10.166c-0.139,7.004-1.024,11.45-2.659,13.346c-1.59,1.894-4.332,2.834-8.229,2.82
	l-4.917-0.014l-1.41-2.581l-30.668,1.873l-0.454-7.257l14.885,0.046l0.035-1.761l-10.896-0.033l0.039-1.898l0.037-1.83l0.031-1.625
	c-0.854,0.496-1.703,0.967-2.553,1.416l-2.348-2.313c-0.906,5.421-2.342,10.726-4.307,15.917l-9.721-8.908
	c3.154-9.436,4.83-18.831,5.02-28.182L214.012,25.1z M225.02,16.254l33.952,0.104l0.035-1.694l-26.377-0.081l-2.129-0.006
	l-5.445-0.017L225.02,16.254z M240.348,27.213l-13.818-0.042l0.078-3.999l13.82,0.042L240.348,27.213z M240.24,32.637l-13.82-0.042
	l0.083-4l13.817,0.041L240.24,32.637z M238.705,52.83l-2.858-0.009c-0.769,0.722-1.485,1.375-2.164,1.96h-0.065l2.322,0.008
	l2.728,0.006L238.705,52.83z M238.852,38.866l-2.727-0.007l-0.049,2.507l2.724,0.009L238.852,38.866z M238.592,58.524l-2.729-0.009
	l-0.041,1.966l2.728,0.009L238.592,58.524z M253.324,23.051l-0.197,9.759l-11.36-0.035l0.194-9.759L253.324,23.051z M249.48,38.9
	l-2.723-0.007l-0.052,2.508l2.727,0.009L249.48,38.9z M254.953,64.268c0.214,0.405,0.404,0.836,0.572,1.29l1.326,0.003
	c1.772,0.005,2.961-0.623,3.563-1.888c0.513-1.31,0.828-4.899,0.947-10.774l-12.359-0.037l-0.038,1.966l2.457,0.01l3.522,0.01
	l3.586,0.01l-0.112,5.693l-0.036,1.83l-0.038,1.896L254.953,64.268z M251.306,60.528l0.04-1.966l-2.458-0.008l-0.037,1.966
	L251.306,60.528z M248.773,64.248l-0.035,1.764l2.726,0.007c-0.299-0.589-0.533-1.177-0.694-1.765L248.773,64.248z M271.976,27.311
	l-17.011-0.053l0.082-3.999l17.008,0.052L271.976,27.311z M271.867,32.732l-17.01-0.05l0.082-4l17.006,0.052L271.867,32.732z
	 M257.34,41.432l2.725,0.009l0.049-2.508l-2.723-0.01L257.34,41.432z"/>
<path fill="none" stroke="#FFFFFF" stroke-width="12" stroke-linecap="round" stroke-linejoin="round" stroke-miterlimit="10" d="
	M214.012,25.1l0.109-5.421l0.242-12.134l5.384,0.018l5.446,0.016l5.447,0.016l2.127,0.006l26.377,0.082l6.313,0.019l6.38,0.019
	l-0.118,5.898l-0.06,2.779l-0.053,2.643l-0.054,2.711l-46.644-0.143l-0.069,3.525l-0.233,11.656
	c-0.138,4.611-0.406,9.04-0.801,13.283c1.926-1.032,4.037-2.427,6.33-4.182l-4.186-0.013l0.234-11.59l4.982,0.015l5.049,0.016
	l23.984,0.073l4.984,0.014l5.049,0.017l-0.232,11.59L264.953,46l-4.982-0.017l-17.874-0.056c-0.452,0.494-0.884,1.014-1.292,1.556
	l20.729,0.063l5.248,0.017l5.317,0.017l-0.207,10.166c-0.139,7.004-1.024,11.45-2.659,13.346c-1.59,1.894-4.332,2.834-8.229,2.82
	l-4.917-0.014l-1.41-2.581l-30.668,1.873l-0.454-7.257l14.885,0.046l0.035-1.761l-10.896-0.033l0.039-1.898l0.037-1.83l0.031-1.625
	c-0.854,0.496-1.703,0.967-2.553,1.416l-2.348-2.313c-0.906,5.421-2.342,10.726-4.307,15.917l-9.721-8.908
	c3.154-9.436,4.83-18.831,5.02-28.182L214.012,25.1z M225.02,16.254l33.952,0.104l0.035-1.694l-26.377-0.081l-2.129-0.006
	l-5.445-0.017L225.02,16.254z M240.348,27.213l-13.818-0.042l0.078-3.999l13.82,0.042L240.348,27.213z M240.24,32.637l-13.82-0.042
	l0.083-4l13.817,0.041L240.24,32.637z M238.705,52.83l-2.858-0.009c-0.769,0.722-1.485,1.375-2.164,1.96h-0.065l2.322,0.008
	l2.728,0.006L238.705,52.83z M238.852,38.866l-2.727-0.007l-0.049,2.507l2.724,0.009L238.852,38.866z M238.592,58.524l-2.729-0.009
	l-0.041,1.966l2.728,0.009L238.592,58.524z M253.324,23.051l-0.197,9.759l-11.36-0.035l0.194-9.759L253.324,23.051z M249.48,38.9
	l-2.723-0.007l-0.052,2.508l2.727,0.009L249.48,38.9z M254.953,64.268c0.214,0.405,0.404,0.836,0.572,1.29l1.326,0.003
	c1.772,0.005,2.961-0.623,3.563-1.888c0.513-1.31,0.828-4.899,0.947-10.774l-12.359-0.037l-0.038,1.966l2.457,0.01l3.522,0.01
	l3.586,0.01l-0.112,5.693l-0.036,1.83l-0.038,1.896L254.953,64.268z M251.306,60.528l0.04-1.966l-2.458-0.008l-0.037,1.966
	L251.306,60.528z M248.773,64.248l-0.035,1.764l2.726,0.007c-0.299-0.589-0.533-1.177-0.694-1.765L248.773,64.248z M271.976,27.311
	l-17.011-0.053l0.082-3.999l17.008,0.052L271.976,27.311z M271.867,32.732l-17.01-0.05l0.082-4l17.006,0.052L271.867,32.732z
	 M257.34,41.432l2.725,0.009l0.049-2.508l-2.723-0.01L257.34,41.432z"/>
<path fill="#FFFFFF" d="M285.771,31.963l-5.916-0.02l0.256-12.674l5.912,0.017l0.234-11.588l11.628,0.035l-0.233,11.591l3.455,0.01
	l-0.256,12.673l-3.455-0.008l-0.117,5.827l3.732-0.598l-0.255,12.673l-3.731,0.599l-0.278,13.76
	c-0.125,6.326-3.909,9.478-11.353,9.455l-3.256-0.012l-3.332-12.683l4.317,0.011c1.372,0.006,2.073-0.691,2.103-2.094l0.135-6.643
	l-5.664,0.797l0.254-12.675l5.666-0.797L285.771,31.963z M329.617,19.013l5.25,0.015l5.316,0.017l-1.101,54.697l-10.563-0.033
	L328.57,71l-16.01-0.049l-0.055,2.708l-10.563-0.03l0.857-42.835l0.123-5.964l0.116-5.898l13.157,0.042l0.224-11.184l10.831,0.035
	l-0.227,11.181L329.617,19.013z M315.959,30.832l-2.594-0.008l-0.166,8.34l2.593,0.006L315.959,30.832z M315.559,50.761l-2.591-0.01
	l-0.169,8.338l2.591,0.008L315.559,50.761z M326.622,39.203l2.592,0.009l0.165-8.337l-2.59-0.01L326.622,39.203z M326.223,59.13
	l2.59,0.008l0.166-8.336l-2.591-0.01L326.223,59.13z"/>
<path fill="none" stroke="#FFFFFF" stroke-width="12" stroke-miterlimit="10" d="M285.771,31.963l-5.916-0.02l0.256-12.674
	l5.912,0.017l0.234-11.588l11.628,0.035l-0.233,11.591l3.455,0.01l-0.256,12.673l-3.455-0.008l-0.117,5.827l3.732-0.598
	l-0.255,12.673l-3.731,0.599l-0.278,13.76c-0.125,6.326-3.909,9.478-11.353,9.455l-3.256-0.012l-3.332-12.683l4.317,0.011
	c1.372,0.006,2.073-0.691,2.103-2.094l0.135-6.643l-5.664,0.797l0.254-12.675l5.666-0.797L285.771,31.963z M329.617,19.013
	l5.25,0.015l5.316,0.017l-1.101,54.697l-10.563-0.033L328.57,71l-16.01-0.049l-0.055,2.708l-10.563-0.03l0.857-42.835l0.123-5.964
	l0.116-5.898l13.157,0.042l0.224-11.184l10.831,0.035l-0.227,11.181L329.617,19.013z M315.959,30.832l-2.594-0.008l-0.166,8.34
	l2.593,0.006L315.959,30.832z M315.559,50.761l-2.591-0.01l-0.169,8.338l2.591,0.008L315.559,50.761z M326.622,39.203l2.592,0.009
	l0.165-8.337l-2.59-0.01L326.622,39.203z M326.223,59.13l2.59,0.008l0.166-8.336l-2.591-0.01L326.223,59.13z"/>
<path fill="#FFFFFF" d="M375.859,39.15l4.691-2.021l-7.51-0.021l0.178-8.88l0.066,0.001l-1.848-3.938l-0.462,22.978l-10.03-0.03
	l0.25-12.471l-1.729-0.006c-0.556,5.693-1.666,10.229-3.329,13.615l-8.58-6.195c1.018-2.074,1.777-4.557,2.278-7.448l-2.526-0.007
	l0.194-9.693l13.888,0.044l0.03-1.561l-11.69-0.035l0.094-4.744l0.093-4.677l0.086-4.271l8.97,0.027l-0.084,4.271l2.723,0.008
	l0.131-6.44l10.033,0.032l-0.111,5.558c5.344-1.429,9.386-3.111,12.127-5.048l10.498,0.034c-0.818,0.946-1.588,1.849-2.313,2.704
	l15.347,0.047l-0.123,6.167c-2.485,2.479-5.541,4.684-9.168,6.614l6.91,0.022l-0.092,4.541l4.251,0.013l-0.178,8.878l-4.252-0.011
	l-0.072,3.523c-0.063,1.04-0.327,1.985-0.789,2.844c1.109,2.128,1.984,3.826,2.624,5.093l1.994,0.006l-0.201,9.963l-20.797-0.063
	c4.872,2.273,12.044,3.563,21.52,3.859l-4.563,12.119c-8.271-0.703-14.663-2.168-19.18-4.396c-2.589-1.319-5.21-3.092-7.869-5.312
	c-6.103,6.08-14.203,9.242-24.312,9.48l-6.998-12.018c9.651,0.164,16.434-1.104,20.34-3.803l-19.267-0.059l0.199-9.963l25.447,0.077
	l0.099-4.813l5.645,0.018C377.679,42.23,376.801,40.69,375.859,39.15 M376.222,21.053c-0.491,0.18-0.937,0.359-1.339,0.54
	l-3.234-7.603l-0.19,9.421c1.911-0.31,3.731-0.598,5.466-0.864C376.623,22.004,376.39,21.506,376.222,21.053 M382.26,21.479
	c0.76-0.224,1.561-0.402,2.403-0.535c-0.513-0.995-1.048-2.037-1.599-3.123c-0.718,0.313-1.408,0.672-2.082,1.077
	C381.538,19.895,381.966,20.756,382.26,21.479 M393.807,25.514c-2.633,0.986-5.643,1.903-9.025,2.751l8.971,0.027L393.807,25.514z
	 M384.639,48.6l9.768,0.028c-0.215-0.406-0.405-0.77-0.575-1.086l0.403-0.201c-0.444-0.002-0.891-0.004-1.33-0.004l-2.524-0.01
	l-1.59-3.597l-4.086,1.612L384.639,48.6z M388.594,17.093c0.516,0.951,0.916,1.789,1.212,2.511c0.403-0.27,0.81-0.426,1.207-0.47
	c1.562-0.629,3.104-1.301,4.623-2.021L388.594,17.093z M391.992,39.81c1.02-0.04,1.539-0.56,1.56-1.554l0.021-1.085l-5.979-0.019
	c0.559,0.906,1.051,1.789,1.475,2.648L391.992,39.81z"/>
<path fill="none" stroke="#FFFFFF" stroke-width="12" stroke-linecap="round" stroke-linejoin="round" stroke-miterlimit="10" d="
	M375.859,39.15l4.691-2.021l-7.51-0.021l0.178-8.88l0.066,0.001l-1.848-3.938l-0.462,22.978l-10.03-0.03l0.25-12.471l-1.729-0.006
	c-0.556,5.693-1.666,10.229-3.329,13.615l-8.58-6.195c1.018-2.074,1.777-4.557,2.278-7.448l-2.526-0.007l0.194-9.693l13.888,0.044
	l0.03-1.561l-11.69-0.035l0.094-4.744l0.093-4.677l0.086-4.271l8.97,0.027l-0.084,4.271l2.723,0.008l0.131-6.44l10.033,0.032
	l-0.111,5.558c5.344-1.429,9.386-3.111,12.127-5.048l10.498,0.034c-0.818,0.946-1.588,1.849-2.313,2.704l15.347,0.047l-0.123,6.167
	c-2.485,2.479-5.541,4.684-9.168,6.614l6.91,0.022l-0.092,4.541l4.251,0.013l-0.178,8.878l-4.252-0.011l-0.072,3.523
	c-0.063,1.04-0.327,1.985-0.789,2.844c1.109,2.128,1.984,3.826,2.624,5.093l1.994,0.006l-0.201,9.963l-20.797-0.063
	c4.872,2.273,12.044,3.563,21.52,3.859l-4.563,12.119c-8.271-0.703-14.663-2.168-19.18-4.396c-2.589-1.319-5.21-3.092-7.869-5.312
	c-6.103,6.08-14.203,9.242-24.312,9.48l-6.998-12.018c9.651,0.164,16.434-1.104,20.34-3.803l-19.267-0.059l0.199-9.963l25.447,0.077
	l0.099-4.813l5.645,0.018C377.679,42.23,376.801,40.69,375.859,39.15z M376.222,21.053c-0.491,0.18-0.937,0.359-1.339,0.54
	l-3.234-7.603l-0.19,9.421c1.911-0.31,3.731-0.598,5.466-0.864C376.623,22.004,376.39,21.506,376.222,21.053z M382.26,21.479
	c0.76-0.224,1.561-0.402,2.403-0.535c-0.513-0.995-1.048-2.037-1.599-3.123c-0.718,0.313-1.408,0.672-2.082,1.077
	C381.538,19.895,381.966,20.756,382.26,21.479z M393.807,25.514c-2.633,0.986-5.643,1.903-9.025,2.751l8.971,0.027L393.807,25.514z
	 M384.639,48.6l9.768,0.028c-0.215-0.406-0.405-0.77-0.575-1.086l0.403-0.201c-0.444-0.002-0.891-0.004-1.33-0.004l-2.524-0.01
	l-1.59-3.597l-4.086,1.612L384.639,48.6z M388.594,17.093c0.516,0.951,0.916,1.789,1.212,2.511c0.403-0.27,0.81-0.426,1.207-0.47
	c1.562-0.629,3.104-1.301,4.623-2.021L388.594,17.093z M391.992,39.81c1.02-0.04,1.539-0.56,1.56-1.554l0.021-1.085l-5.979-0.019
	c0.559,0.906,1.051,1.789,1.475,2.648L391.992,39.81z"/>
<path fill="#E33D5E" d="M26.273,72.787l-10.564-0.031l0.313-15.656c-1.554,2.391-3.445,5.027-5.674,7.912L6,53.273
	c3.904-4.732,6.62-8.68,8.146-11.838l-6.645-0.021l0.244-12.133l8.837,0.026l0.129-6.437l-6.486,5.402l-3.66-13.023l7.23-6.011
	l3.013,8.754l0.218-10.846l10.566,0.033l-0.261,12.878l3.664-10.292l5.667,5.644l-4.614,11.373l-4.77-4.014l-0.132,6.574
	l7.176,0.022l-0.245,12.134l-6.444-0.021c1.833,1.315,4.012,3.086,6.539,5.307l-3.437,12.259c-1.427-1.677-2.793-3.195-4.093-4.557
	L26.273,72.787z M66.666,33.394l-0.462,23.045c-0.141,7.003-1.028,11.452-2.66,13.344c-1.589,1.895-4.333,2.836-8.23,2.823
	l-5.448-0.017L45.89,62.207c-2.555,3.605-6.416,7.23-11.584,10.877l-6.898-10.393c4.708-2.877,8.046-5.896,10.015-9.053
	c1.278-1.893,2.24-4.534,2.885-7.922l-4.984-0.016l0.249-12.403l3.123,0.01L33.5,27.395c3.015-4.51,5.493-11.054,7.437-19.634
	l10.325,2.065c-1.377,9.032-3.816,16.865-7.316,23.499l11.627,0.035l3.654,0.01c-3.846-6.925-6.142-14.999-6.888-24.219
	l10.467-1.663c0.611,4.748,1.447,8.365,2.506,10.853c0.968,2.534,2.7,5.565,5.198,9.098l-6.962,5.945L66.666,33.394z M50.702,60.729
	c1.77,0.005,2.958-0.624,3.56-1.888c0.559-1.354,0.898-5.035,1.018-11.045l0.041-2.033l-3.456-0.01
	c-1.1,6.277-2.75,11.267-4.95,14.963L50.702,60.729z"/>
<path fill="#E33D5E" d="M98.146,67.246l-0.978-17.424l2.997-0.33c-0.153-1.22-0.287-2.305-0.4-3.253
	c-1.11,0.043-2.219,0.126-3.328,0.259l-0.543,27.045l-11.096-0.035l0.53-26.434c-3.323,0.081-6.713,0.184-10.172,0.309l-0.218-12.27
	l6.243,0.086c-2.305-4.208-4.759-7.762-7.359-10.664c2.277-3.108,4.407-6.651,6.394-10.62c0.518,0.633,0.993,1.245,1.424,1.833
	C83.296,12.68,84.712,9.432,85.89,6l10.356,3.759c-2.769,5.506-5.616,10.489-8.54,14.955c0.298,0.498,0.6,0.974,0.9,1.426
	c2.873-4.102,5.621-8.524,8.24-13.26l9.674,4.638c-2.616,4.559-5.452,9-8.505,13.327l4.413-1.408
	c0.711,2.08,1.269,4.092,1.672,6.037l6.908,0.157c0.092-0.136,0.204-0.225,0.338-0.271c-2.446-3.938-5.06-7.289-7.838-10.055
	c2.144-3.157,4.145-6.788,6-10.896c0.693,0.771,1.385,1.586,2.077,2.446c2.015-3.291,3.747-6.789,5.196-10.488l10.212,4.301
	c-2.944,5.369-6.009,10.238-9.198,14.612c0.301,0.454,0.602,0.905,0.903,1.358c2.866-3.741,5.605-7.777,8.217-12.107l9.006,4.838
	c-2.653,4.151-5.437,8.142-8.347,11.973l5.559-2.218c2.241,5.338,3.959,11.331,5.155,17.975l-4.539,1.006l4.348,21.633l-9.404,1.803
	l-3.161-17.974l-0.404,20.063l-11.095-0.033l0.536-26.706c-2.791,0.085-5.541,0.142-8.243,0.18c0.121,0.679,0.194,1.379,0.225,2.103
	l6.578,0.021c-0.011,0.586-0.026,1.31-0.044,2.169c-0.195,9.717-1.007,17.1-2.44,22.158l-7.133-5.377
	c0.143-0.497,0.306-0.905,0.491-1.223L98.146,67.246z M84.158,49.104c-0.02,1.041-0.05,2.51-0.088,4.405
	c-0.205,8-1.292,14.638-3.258,19.918l-7.521-5.92c0.508-1.037,0.923-1.918,1.25-2.639c0.978-2.394,1.549-7.654,1.712-15.789
	L84.158,49.104z M96.716,32.672c-0.729,0.902-1.388,1.783-1.981,2.636l2.79,0.078C97.231,34.526,96.962,33.622,96.716,32.672
	 M106.27,49.85l-2.667,0.399l1.234,14.644c0.817-3.16,1.255-6.231,1.315-9.214C106.207,53.06,106.245,51.115,106.27,49.85
	 M126.549,32.696c-0.863,1.037-1.727,2.096-2.589,3.175l3.786,0.082C127.324,34.912,126.924,33.827,126.549,32.696 M130.952,48.298
	c-0.161-0.77-0.303-1.445-0.423-2.033c-1.641,0.039-3.259,0.125-4.857,0.259l-0.062,3.114L130.952,48.298z"/>
<path fill="#E33D5E" d="M181.018,63.229l-12.556-0.038c0.896,1.673,1.788,3.598,2.673,5.77l-11.731,5.183
	c-1.268-3.03-2.803-5.974-4.606-8.825l3.233-2.158l-15.415-0.048l0.184-9.149l38.47,0.117l0.045-2.236l-37.5,1.174l-0.281-9.148
	l24.115,0.207l0.031-1.49l-19.668-0.062l0.066-3.254l0.063-3.186l0.295-14.639l5.648,0.015l5.713,0.019l8.305,0.025l0.035-1.694
	l-23.854-0.074l0.185-9.149l23.853,0.072l0.066-3.32l11.895,0.037l-0.067,3.32l24.318,0.075l-0.184,9.148l-24.318-0.072
	l-0.035,1.693l8.042,0.026l5.646,0.015l5.713,0.018l-0.294,14.641l-0.064,3.186l-0.065,3.253h-0.398
	c2.387,2.447,4.12,4.373,5.2,5.777l-5.032,5.678l5.447,0.016l-0.183,9.15l-11.56-0.034l-0.024,1.084
	c-0.126,6.323-3.91,9.478-11.353,9.454l-4.717-0.014l-3.415-8.621l6.046,0.021C180.271,65.146,180.948,64.492,181.018,63.229
	 M167.974,27.942l-8.306-0.025l-0.034,1.693l8.305,0.025L167.974,27.942z M167.843,34.45l-8.304-0.028l-0.036,1.694l8.306,0.027
	L167.843,34.45z M179.832,29.672l8.042,0.024l0.032-1.695l-8.04-0.025L179.832,29.672z M179.701,36.179l8.041,0.025l0.035-1.695
	l-8.041-0.024L179.701,36.179z M185.885,42.638l-6.313-0.021l-0.031,1.561l7.971,0.093
	C186.947,43.726,186.405,43.183,185.885,42.638 M192.631,54.113l4.054,0.012c-0.779-0.951-1.558-1.855-2.338-2.72l-1.664,0.132
	L192.631,54.113z"/>
<path fill="#E33D5E" d="M214.012,25.1l0.109-5.421l0.242-12.134l5.384,0.018l5.446,0.016l5.447,0.016l2.127,0.006l26.377,0.082
	l6.313,0.019l6.38,0.019l-0.118,5.898l-0.06,2.779l-0.053,2.643l-0.054,2.711l-46.644-0.143l-0.069,3.525l-0.233,11.656
	c-0.138,4.611-0.406,9.04-0.801,13.283c1.926-1.032,4.037-2.427,6.33-4.182l-4.186-0.013l0.234-11.59l4.982,0.015l5.049,0.016
	l23.984,0.073l4.984,0.014l5.049,0.017l-0.232,11.59L264.953,46l-4.982-0.017l-17.874-0.056c-0.452,0.494-0.884,1.014-1.292,1.556
	l20.729,0.063l5.248,0.017l5.317,0.017l-0.207,10.166c-0.139,7.004-1.024,11.45-2.659,13.346c-1.59,1.894-4.332,2.834-8.229,2.82
	l-4.917-0.014l-1.41-2.581l-30.668,1.873l-0.454-7.257l14.885,0.046l0.035-1.761l-10.896-0.033l0.039-1.898l0.037-1.83l0.031-1.625
	c-0.854,0.496-1.703,0.967-2.553,1.416l-2.348-2.313c-0.906,5.421-2.342,10.726-4.307,15.917l-9.721-8.908
	c3.154-9.436,4.83-18.831,5.02-28.182L214.012,25.1z M225.02,16.254l33.952,0.104l0.035-1.694l-26.377-0.081l-2.129-0.006
	l-5.445-0.017L225.02,16.254z M240.348,27.213l-13.818-0.042l0.078-3.999l13.82,0.042L240.348,27.213z M240.24,32.637l-13.82-0.042
	l0.083-4l13.817,0.041L240.24,32.637z M238.705,52.83l-2.858-0.009c-0.769,0.722-1.485,1.375-2.164,1.96h-0.065l2.322,0.008
	l2.728,0.006L238.705,52.83z M238.852,38.866l-2.727-0.007l-0.049,2.507l2.724,0.009L238.852,38.866z M238.592,58.524l-2.729-0.009
	l-0.041,1.966l2.728,0.009L238.592,58.524z M253.324,23.051l-0.197,9.759l-11.36-0.035l0.194-9.759L253.324,23.051z M249.48,38.9
	l-2.723-0.007l-0.052,2.508l2.727,0.009L249.48,38.9z M254.953,64.268c0.214,0.405,0.404,0.836,0.572,1.29l1.326,0.003
	c1.772,0.005,2.961-0.623,3.563-1.888c0.513-1.31,0.828-4.899,0.947-10.774l-12.359-0.037l-0.038,1.966l2.457,0.01l3.522,0.01
	l3.586,0.01l-0.112,5.693l-0.036,1.83l-0.038,1.896L254.953,64.268z M251.306,60.528l0.04-1.966l-2.458-0.008l-0.037,1.966
	L251.306,60.528z M248.773,64.248l-0.035,1.764l2.726,0.007c-0.299-0.589-0.533-1.177-0.694-1.765L248.773,64.248z M271.976,27.311
	l-17.011-0.053l0.082-3.999l17.008,0.052L271.976,27.311z M271.867,32.732l-17.01-0.05l0.082-4l17.006,0.052L271.867,32.732z
	 M257.34,41.432l2.725,0.009l0.049-2.508l-2.723-0.01L257.34,41.432z"/>
<path fill="#E33D5E" d="M285.771,31.963l-5.916-0.02l0.256-12.674l5.912,0.017l0.234-11.588l11.628,0.035l-0.233,11.591l3.455,0.01
	l-0.256,12.673l-3.455-0.008l-0.117,5.827l3.732-0.598l-0.255,12.673l-3.731,0.599l-0.278,13.76
	c-0.125,6.326-3.909,9.478-11.353,9.455l-3.256-0.012l-3.332-12.683l4.317,0.011c1.372,0.006,2.073-0.691,2.103-2.094l0.135-6.643
	l-5.664,0.797l0.254-12.675l5.666-0.797L285.771,31.963z M329.617,19.013l5.25,0.015l5.316,0.017l-1.101,54.697l-10.563-0.033
	L328.57,71l-16.01-0.049l-0.055,2.708l-10.563-0.03l0.857-42.835l0.123-5.964l0.116-5.898l13.157,0.042l0.224-11.184l10.831,0.035
	l-0.227,11.181L329.617,19.013z M315.959,30.832l-2.594-0.008l-0.166,8.34l2.593,0.006L315.959,30.832z M315.559,50.761l-2.591-0.01
	l-0.169,8.338l2.591,0.008L315.559,50.761z M326.622,39.203l2.592,0.009l0.165-8.337l-2.59-0.01L326.622,39.203z M326.223,59.13
	l2.59,0.008l0.166-8.336l-2.591-0.01L326.223,59.13z"/>
<path fill="#E33D5E" d="M375.859,39.15l4.691-2.021l-7.51-0.021l0.178-8.88l0.066,0.001l-1.848-3.938l-0.462,22.978l-10.03-0.03
	l0.25-12.471l-1.729-0.006c-0.556,5.693-1.666,10.229-3.329,13.615l-8.58-6.195c1.018-2.074,1.777-4.557,2.278-7.448l-2.526-0.007
	l0.194-9.693l13.888,0.044l0.03-1.561l-11.69-0.035l0.094-4.744l0.093-4.677l0.086-4.271l8.97,0.027l-0.084,4.271l2.723,0.008
	l0.131-6.44l10.033,0.032l-0.111,5.558c5.344-1.429,9.386-3.111,12.127-5.048l10.498,0.034c-0.818,0.946-1.588,1.849-2.313,2.704
	l15.347,0.047l-0.123,6.167c-2.485,2.479-5.541,4.684-9.168,6.614l6.91,0.022l-0.092,4.541l4.251,0.013l-0.178,8.878l-4.252-0.011
	l-0.072,3.523c-0.063,1.04-0.327,1.985-0.789,2.844c1.109,2.128,1.984,3.826,2.624,5.093l1.994,0.006l-0.201,9.963l-20.797-0.063
	c4.872,2.273,12.044,3.563,21.52,3.859l-4.563,12.119c-8.271-0.703-14.663-2.168-19.18-4.396c-2.589-1.319-5.21-3.092-7.869-5.312
	c-6.103,6.08-14.203,9.242-24.312,9.48l-6.998-12.018c9.651,0.164,16.434-1.104,20.34-3.803l-19.267-0.059l0.199-9.963l25.447,0.077
	l0.099-4.813l5.645,0.018C377.679,42.23,376.801,40.69,375.859,39.15 M376.222,21.053c-0.491,0.18-0.937,0.359-1.339,0.54
	l-3.234-7.603l-0.19,9.421c1.911-0.31,3.731-0.598,5.466-0.864C376.623,22.004,376.39,21.506,376.222,21.053 M382.26,21.479
	c0.76-0.224,1.561-0.402,2.403-0.535c-0.513-0.995-1.048-2.037-1.599-3.123c-0.718,0.313-1.408,0.672-2.082,1.077
	C381.538,19.895,381.966,20.756,382.26,21.479 M393.807,25.514c-2.633,0.986-5.643,1.903-9.025,2.751l8.971,0.027L393.807,25.514z
	 M384.639,48.6l9.768,0.028c-0.215-0.406-0.405-0.77-0.575-1.086l0.403-0.201c-0.444-0.002-0.891-0.004-1.33-0.004l-2.524-0.01
	l-1.59-3.597l-4.086,1.612L384.639,48.6z M388.594,17.093c0.516,0.951,0.916,1.789,1.212,2.511c0.403-0.27,0.81-0.426,1.207-0.47
	c1.562-0.629,3.104-1.301,4.623-2.021L388.594,17.093z M391.992,39.81c1.02-0.04,1.539-0.56,1.56-1.554l0.021-1.085l-5.979-0.019
	c0.559,0.906,1.051,1.789,1.475,2.648L391.992,39.81z"/>
</svg>
